G04 Layer_Color=65535*
%FSLAX25Y25*%
%MOIN*%
G70*
G01*
G75*
%ADD21C,0.00787*%
%ADD54C,0.02362*%
%ADD55C,0.00984*%
%ADD56C,0.01000*%
%ADD57C,0.00394*%
%ADD58C,0.00600*%
%ADD59C,0.00500*%
%ADD60C,0.00591*%
D21*
X131346Y191500D02*
G03*
X131346Y196500I0J2500D01*
G01*
X4461Y165500D02*
G03*
X4461Y170500I0J2500D01*
G01*
X301847Y191500D02*
G03*
X301847Y196500I0J2500D01*
G01*
X102555Y53937D02*
Y105118D01*
X24445D02*
X102555D01*
X24445Y53937D02*
X102555D01*
X24445D02*
Y105118D01*
X198555Y53937D02*
Y105118D01*
X120445D02*
X198555D01*
X120445Y53937D02*
X198555D01*
X120445D02*
Y105118D01*
X106500Y68000D02*
X114500D01*
X106500Y116000D02*
X114500D01*
Y68000D02*
Y116000D01*
X106500Y68000D02*
Y116000D01*
X201500Y68000D02*
X209500D01*
X201500Y116000D02*
X209500D01*
Y68000D02*
Y116000D01*
X201500Y68000D02*
Y116000D01*
X293000Y68000D02*
X301000D01*
X293000Y116000D02*
X301000D01*
Y68000D02*
Y116000D01*
X293000Y68000D02*
Y116000D01*
X175500Y133000D02*
Y143000D01*
X125500Y133000D02*
X175500D01*
X125500Y143000D02*
X175500D01*
X125500Y133000D02*
Y143000D01*
X185000Y133000D02*
Y143000D01*
X225000D01*
X185000Y133000D02*
X225000D01*
Y143000D01*
X381575Y53937D02*
Y105118D01*
X303465D02*
X381575D01*
X303465Y53937D02*
X381575D01*
X303465D02*
Y105118D01*
X313898Y149000D02*
X393898D01*
X313898Y129000D02*
X393898D01*
X313898D02*
Y149000D01*
X393898Y129000D02*
Y149000D01*
X313898Y173000D02*
X393898D01*
X313898Y153000D02*
X393898D01*
X313898D02*
Y173000D01*
X393898Y153000D02*
Y173000D01*
X10000Y270000D02*
X18000D01*
X10000Y222000D02*
X18000D01*
X10000D02*
Y270000D01*
X18000Y222000D02*
Y270000D01*
X130937Y217764D02*
X182118D01*
Y295874D01*
X130937Y217764D02*
Y295874D01*
X182118D01*
X95500Y270000D02*
X103500D01*
X95500Y222000D02*
X103500D01*
X95500D02*
Y270000D01*
X103500Y222000D02*
Y270000D01*
X110500D02*
X118500D01*
X110500Y222000D02*
X118500D01*
X110500D02*
Y270000D01*
X118500Y222000D02*
Y270000D01*
X28937Y217764D02*
X80118D01*
Y295874D01*
X28937Y217764D02*
Y295874D01*
X80118D01*
X194000Y270000D02*
X202000D01*
X194000Y222000D02*
X202000D01*
X194000D02*
Y270000D01*
X202000Y222000D02*
Y270000D01*
X387000Y269000D02*
X395000D01*
X387000Y221000D02*
X395000D01*
X387000D02*
Y269000D01*
X395000Y221000D02*
Y269000D01*
X131346Y183567D02*
Y191500D01*
Y196500D02*
Y204433D01*
X224654Y183567D02*
Y204433D01*
X131346Y183567D02*
X224654D01*
X131346Y204433D02*
X224654D01*
X228382Y217764D02*
X279563D01*
Y295874D01*
X228382Y217764D02*
Y295874D01*
X279563D01*
X327437Y217764D02*
X378618D01*
Y295874D01*
X327437Y217764D02*
Y295874D01*
X378618D01*
X238394Y139894D02*
X287606D01*
X238394Y189106D02*
X287606D01*
X238394Y139894D02*
Y189106D01*
X287606Y139894D02*
Y189106D01*
X291500Y270000D02*
X299500D01*
X291500Y222000D02*
X299500D01*
X291500D02*
Y270000D01*
X299500Y222000D02*
Y270000D01*
X212000D02*
X220000D01*
X212000Y222000D02*
X220000D01*
X212000D02*
Y270000D01*
X220000Y222000D02*
Y270000D01*
X309500D02*
X317500D01*
X309500Y222000D02*
X317500D01*
X309500D02*
Y270000D01*
X317500Y222000D02*
Y270000D01*
X290555Y53937D02*
Y105118D01*
X212445D02*
X290555D01*
X212445Y53937D02*
X290555D01*
X212445D02*
Y105118D01*
X10000Y68000D02*
X18000D01*
X10000Y116000D02*
X18000D01*
Y68000D02*
Y116000D01*
X10000Y68000D02*
Y116000D01*
X24539Y157567D02*
Y178433D01*
X4461Y170500D02*
Y178433D01*
Y157567D02*
Y165500D01*
Y178433D02*
X24539D01*
X4461Y157567D02*
X24539D01*
X18500Y142000D02*
X98500D01*
X18500Y122000D02*
X98500D01*
X18500D02*
Y142000D01*
X98500Y122000D02*
Y142000D01*
X133500Y173000D02*
X213500D01*
X133500Y153000D02*
X213500D01*
X133500D02*
Y173000D01*
X213500Y153000D02*
Y173000D01*
X301847Y183567D02*
Y191500D01*
Y196500D02*
Y204433D01*
X395153Y183567D02*
Y204433D01*
X301847Y183567D02*
X395153D01*
X301847Y204433D02*
X395153D01*
X9900Y273800D02*
Y276949D01*
X11474D01*
X11999Y276424D01*
Y275374D01*
X11474Y274850D01*
X9900D01*
X10949D02*
X11999Y273800D01*
X13049D02*
X14098D01*
X13573D01*
Y276949D01*
X13049Y276424D01*
X17247Y273800D02*
Y276949D01*
X15672Y275374D01*
X17772D01*
X131300Y302249D02*
Y299625D01*
X131825Y299100D01*
X132874D01*
X133399Y299625D01*
Y302249D01*
X134449Y299100D02*
X135498D01*
X134973D01*
Y302249D01*
X134449Y301724D01*
X137072D02*
X137597Y302249D01*
X138647D01*
X139172Y301724D01*
Y301199D01*
X138647Y300674D01*
X138122D01*
X138647D01*
X139172Y300149D01*
Y299625D01*
X138647Y299100D01*
X137597D01*
X137072Y299625D01*
X193900Y273800D02*
Y276949D01*
X195474D01*
X195999Y276424D01*
Y275374D01*
X195474Y274850D01*
X193900D01*
X194949D02*
X195999Y273800D01*
X199148D02*
X197049D01*
X199148Y275899D01*
Y276424D01*
X198623Y276949D01*
X197573D01*
X197049Y276424D01*
X200197D02*
X200722Y276949D01*
X201771D01*
X202296Y276424D01*
Y275899D01*
X201771Y275374D01*
X201247D01*
X201771D01*
X202296Y274850D01*
Y274325D01*
X201771Y273800D01*
X200722D01*
X200197Y274325D01*
X386900Y272800D02*
Y275949D01*
X388474D01*
X388999Y275424D01*
Y274374D01*
X388474Y273850D01*
X386900D01*
X387949D02*
X388999Y272800D01*
X392148D02*
X390049D01*
X392148Y274899D01*
Y275424D01*
X391623Y275949D01*
X390573D01*
X390049Y275424D01*
X393197Y272800D02*
X394247D01*
X393722D01*
Y275949D01*
X393197Y275424D01*
X95400Y273800D02*
Y276949D01*
X96974D01*
X97499Y276424D01*
Y275374D01*
X96974Y274850D01*
X95400D01*
X96450D02*
X97499Y273800D01*
X98549D02*
X99598D01*
X99073D01*
Y276949D01*
X98549Y276424D01*
X103271Y276949D02*
X101172D01*
Y275374D01*
X102222Y275899D01*
X102747D01*
X103271Y275374D01*
Y274325D01*
X102747Y273800D01*
X101697D01*
X101172Y274325D01*
X11000Y137000D02*
Y140149D01*
X12574D01*
X13099Y139624D01*
Y138574D01*
X12574Y138049D01*
X11000D01*
X16248Y140149D02*
X15198Y139624D01*
X14149Y138574D01*
Y137525D01*
X14673Y137000D01*
X15723D01*
X16248Y137525D01*
Y138049D01*
X15723Y138574D01*
X14149D01*
X5744Y29441D02*
X2596D01*
Y31015D01*
X3120Y31540D01*
X4170D01*
X4695Y31015D01*
Y29441D01*
X2596Y32590D02*
Y34689D01*
X3120D01*
X5219Y32590D01*
X5744D01*
X10500Y299500D02*
Y302649D01*
X12074D01*
X12599Y302124D01*
Y301074D01*
X12074Y300550D01*
X10500D01*
X13649Y302124D02*
X14173Y302649D01*
X15223D01*
X15748Y302124D01*
Y301599D01*
X15223Y301074D01*
X15748Y300550D01*
Y300025D01*
X15223Y299500D01*
X14173D01*
X13649Y300025D01*
Y300550D01*
X14173Y301074D01*
X13649Y301599D01*
Y302124D01*
X14173Y301074D02*
X15223D01*
X305300Y135700D02*
Y138849D01*
X306874D01*
X307399Y138324D01*
Y137274D01*
X306874Y136749D01*
X305300D01*
X308449Y136225D02*
X308973Y135700D01*
X310023D01*
X310548Y136225D01*
Y138324D01*
X310023Y138849D01*
X308973D01*
X308449Y138324D01*
Y137799D01*
X308973Y137274D01*
X310548D01*
X208500Y308000D02*
Y311149D01*
X210074D01*
X210599Y310624D01*
Y309574D01*
X210074Y309050D01*
X208500D01*
X211649Y308000D02*
X212698D01*
X212173D01*
Y311149D01*
X211649Y310624D01*
X214272D02*
X214797Y311149D01*
X215847D01*
X216371Y310624D01*
Y308525D01*
X215847Y308000D01*
X214797D01*
X214272Y308525D01*
Y310624D01*
X214035Y17941D02*
X210887D01*
Y19515D01*
X211412Y20040D01*
X212461D01*
X212986Y19515D01*
Y17941D01*
X214035Y21090D02*
Y22139D01*
Y21614D01*
X210887D01*
X211412Y21090D01*
X214035Y23713D02*
Y24763D01*
Y24238D01*
X210887D01*
X211412Y23713D01*
X7500Y120500D02*
Y123649D01*
X9074D01*
X9599Y123124D01*
Y122074D01*
X9074Y121549D01*
X7500D01*
X8550D02*
X9599Y120500D01*
X12223D02*
Y123649D01*
X10649Y122074D01*
X12748D01*
X15896Y123649D02*
X14847Y123124D01*
X13797Y122074D01*
Y121025D01*
X14322Y120500D01*
X15371D01*
X15896Y121025D01*
Y121549D01*
X15371Y122074D01*
X13797D01*
X9000Y44000D02*
Y47149D01*
X10574D01*
X11099Y46624D01*
Y45574D01*
X10574Y45050D01*
X9000D01*
X10050D02*
X11099Y44000D01*
X14248Y47149D02*
X12149D01*
Y45574D01*
X13198Y46099D01*
X13723D01*
X14248Y45574D01*
Y44525D01*
X13723Y44000D01*
X12673D01*
X12149Y44525D01*
X15297Y46624D02*
X15822Y47149D01*
X16872D01*
X17396Y46624D01*
Y44525D01*
X16872Y44000D01*
X15822D01*
X15297Y44525D01*
Y46624D01*
X42000Y43000D02*
X38851D01*
Y44574D01*
X39376Y45099D01*
X40426D01*
X40951Y44574D01*
Y43000D01*
Y44050D02*
X42000Y45099D01*
X38851Y48248D02*
Y46149D01*
X40426D01*
X39901Y47198D01*
Y47723D01*
X40426Y48248D01*
X41475D01*
X42000Y47723D01*
Y46673D01*
X41475Y46149D01*
X42000Y49297D02*
Y50347D01*
Y49822D01*
X38851D01*
X39376Y49297D01*
X64000Y42500D02*
X60851D01*
Y44074D01*
X61376Y44599D01*
X62426D01*
X62950Y44074D01*
Y42500D01*
Y43549D02*
X64000Y44599D01*
X60851Y47748D02*
Y45649D01*
X62426D01*
X61901Y46698D01*
Y47223D01*
X62426Y47748D01*
X63475D01*
X64000Y47223D01*
Y46173D01*
X63475Y45649D01*
X64000Y50896D02*
Y48797D01*
X61901Y50896D01*
X61376D01*
X60851Y50371D01*
Y49322D01*
X61376Y48797D01*
X87500Y42000D02*
X84351D01*
Y43574D01*
X84876Y44099D01*
X85926D01*
X86450Y43574D01*
Y42000D01*
Y43049D02*
X87500Y44099D01*
X84351Y47248D02*
Y45149D01*
X85926D01*
X85401Y46198D01*
Y46723D01*
X85926Y47248D01*
X86975D01*
X87500Y46723D01*
Y45673D01*
X86975Y45149D01*
X87500Y49872D02*
X84351D01*
X85926Y48297D01*
Y50396D01*
X107000Y122000D02*
Y125149D01*
X108574D01*
X109099Y124624D01*
Y123574D01*
X108574Y123049D01*
X107000D01*
X108049D02*
X109099Y122000D01*
X112248Y125149D02*
X110149D01*
Y123574D01*
X111198Y124099D01*
X111723D01*
X112248Y123574D01*
Y122525D01*
X111723Y122000D01*
X110673D01*
X110149Y122525D01*
X115396Y125149D02*
X114347Y124624D01*
X113297Y123574D01*
Y122525D01*
X113822Y122000D01*
X114872D01*
X115396Y122525D01*
Y123049D01*
X114872Y123574D01*
X113297D01*
X111000Y42500D02*
X107851D01*
Y44074D01*
X108376Y44599D01*
X109426D01*
X109950Y44074D01*
Y42500D01*
Y43549D02*
X111000Y44599D01*
X107851Y47748D02*
Y45649D01*
X109426D01*
X108901Y46698D01*
Y47223D01*
X109426Y47748D01*
X110475D01*
X111000Y47223D01*
Y46173D01*
X110475Y45649D01*
Y48797D02*
X111000Y49322D01*
Y50371D01*
X110475Y50896D01*
X108376D01*
X107851Y50371D01*
Y49322D01*
X108376Y48797D01*
X108901D01*
X109426Y49322D01*
Y50896D01*
X134000Y43000D02*
X130851D01*
Y44574D01*
X131376Y45099D01*
X132426D01*
X132950Y44574D01*
Y43000D01*
Y44050D02*
X134000Y45099D01*
X130851Y48248D02*
X131376Y47198D01*
X132426Y46149D01*
X133475D01*
X134000Y46673D01*
Y47723D01*
X133475Y48248D01*
X132950D01*
X132426Y47723D01*
Y46149D01*
X131376Y49297D02*
X130851Y49822D01*
Y50871D01*
X131376Y51396D01*
X133475D01*
X134000Y50871D01*
Y49822D01*
X133475Y49297D01*
X131376D01*
X157000Y42500D02*
X153851D01*
Y44074D01*
X154376Y44599D01*
X155426D01*
X155950Y44074D01*
Y42500D01*
Y43549D02*
X157000Y44599D01*
X153851Y47748D02*
X154376Y46698D01*
X155426Y45649D01*
X156475D01*
X157000Y46173D01*
Y47223D01*
X156475Y47748D01*
X155950D01*
X155426Y47223D01*
Y45649D01*
X157000Y48797D02*
Y49847D01*
Y49322D01*
X153851D01*
X154376Y48797D01*
X180000Y42500D02*
X176851D01*
Y44074D01*
X177376Y44599D01*
X178426D01*
X178951Y44074D01*
Y42500D01*
Y43549D02*
X180000Y44599D01*
X176851Y47748D02*
X177376Y46698D01*
X178426Y45649D01*
X179475D01*
X180000Y46173D01*
Y47223D01*
X179475Y47748D01*
X178951D01*
X178426Y47223D01*
Y45649D01*
X177376Y48797D02*
X176851Y49322D01*
Y50371D01*
X177376Y50896D01*
X177901D01*
X178426Y50371D01*
Y49847D01*
Y50371D01*
X178951Y50896D01*
X179475D01*
X180000Y50371D01*
Y49322D01*
X179475Y48797D01*
X201300Y121400D02*
Y124549D01*
X202874D01*
X203399Y124024D01*
Y122974D01*
X202874Y122450D01*
X201300D01*
X202349D02*
X203399Y121400D01*
X206548Y124549D02*
X205498Y124024D01*
X204449Y122974D01*
Y121925D01*
X204973Y121400D01*
X206023D01*
X206548Y121925D01*
Y122450D01*
X206023Y122974D01*
X204449D01*
X207597Y124549D02*
X209696D01*
Y124024D01*
X207597Y121925D01*
Y121400D01*
X203000Y42500D02*
X199851D01*
Y44074D01*
X200376Y44599D01*
X201426D01*
X201951Y44074D01*
Y42500D01*
Y43549D02*
X203000Y44599D01*
X199851Y47748D02*
X200376Y46698D01*
X201426Y45649D01*
X202475D01*
X203000Y46173D01*
Y47223D01*
X202475Y47748D01*
X201951D01*
X201426Y47223D01*
Y45649D01*
X202475Y48797D02*
X203000Y49322D01*
Y50371D01*
X202475Y50896D01*
X200376D01*
X199851Y50371D01*
Y49322D01*
X200376Y48797D01*
X200901D01*
X201426Y49322D01*
Y50896D01*
X227000Y42500D02*
X223851D01*
Y44074D01*
X224376Y44599D01*
X225426D01*
X225951Y44074D01*
Y42500D01*
Y43549D02*
X227000Y44599D01*
X223851Y45649D02*
Y47748D01*
X224376D01*
X226475Y45649D01*
X227000D01*
Y48797D02*
Y49847D01*
Y49322D01*
X223851D01*
X224376Y48797D01*
X251000Y42500D02*
X247851D01*
Y44074D01*
X248376Y44599D01*
X249426D01*
X249951Y44074D01*
Y42500D01*
Y43549D02*
X251000Y44599D01*
X247851Y45649D02*
Y47748D01*
X248376D01*
X250475Y45649D01*
X251000D01*
X248376Y48797D02*
X247851Y49322D01*
Y50371D01*
X248376Y50896D01*
X248901D01*
X249426Y50371D01*
Y49847D01*
Y50371D01*
X249951Y50896D01*
X250475D01*
X251000Y50371D01*
Y49322D01*
X250475Y48797D01*
X274051Y42500D02*
X270903D01*
Y44074D01*
X271427Y44599D01*
X272477D01*
X273002Y44074D01*
Y42500D01*
Y43549D02*
X274051Y44599D01*
X270903Y45649D02*
Y47748D01*
X271427D01*
X273526Y45649D01*
X274051D01*
X270903Y50896D02*
Y48797D01*
X272477D01*
X271952Y49847D01*
Y50371D01*
X272477Y50896D01*
X273526D01*
X274051Y50371D01*
Y49322D01*
X273526Y48797D01*
X292800Y121400D02*
Y124549D01*
X294374D01*
X294899Y124024D01*
Y122974D01*
X294374Y122450D01*
X292800D01*
X293849D02*
X294899Y121400D01*
X295949Y124549D02*
X298048D01*
Y124024D01*
X295949Y121925D01*
Y121400D01*
X301196Y124549D02*
X300147Y124024D01*
X299097Y122974D01*
Y121925D01*
X299622Y121400D01*
X300672D01*
X301196Y121925D01*
Y122450D01*
X300672Y122974D01*
X299097D01*
X293500Y52500D02*
Y55649D01*
X295074D01*
X295599Y55124D01*
Y54074D01*
X295074Y53549D01*
X293500D01*
X294549D02*
X295599Y52500D01*
X296649Y55649D02*
X298748D01*
Y55124D01*
X296649Y53025D01*
Y52500D01*
X299797Y55649D02*
X301896D01*
Y55124D01*
X299797Y53025D01*
Y52500D01*
X318551Y41776D02*
X315403D01*
Y43350D01*
X315927Y43875D01*
X316977D01*
X317502Y43350D01*
Y41776D01*
Y42825D02*
X318551Y43875D01*
X315403Y44924D02*
Y47023D01*
X315927D01*
X318026Y44924D01*
X318551D01*
X315927Y48073D02*
X315403Y48597D01*
Y49647D01*
X315927Y50172D01*
X316452D01*
X316977Y49647D01*
X317502Y50172D01*
X318026D01*
X318551Y49647D01*
Y48597D01*
X318026Y48073D01*
X317502D01*
X316977Y48597D01*
X316452Y48073D01*
X315927D01*
X316977Y48597D02*
Y49647D01*
X340551Y42500D02*
X337403D01*
Y44074D01*
X337927Y44599D01*
X338977D01*
X339502Y44074D01*
Y42500D01*
Y43549D02*
X340551Y44599D01*
X337403Y45649D02*
Y47748D01*
X337927D01*
X340026Y45649D01*
X340551D01*
X340026Y48797D02*
X340551Y49322D01*
Y50371D01*
X340026Y50896D01*
X337927D01*
X337403Y50371D01*
Y49322D01*
X337927Y48797D01*
X338452D01*
X338977Y49322D01*
Y50896D01*
X385000Y43000D02*
Y46149D01*
X386574D01*
X387099Y45624D01*
Y44574D01*
X386574Y44050D01*
X385000D01*
X386050D02*
X387099Y43000D01*
X388149Y45624D02*
X388673Y46149D01*
X389723D01*
X390248Y45624D01*
Y45099D01*
X389723Y44574D01*
X390248Y44050D01*
Y43525D01*
X389723Y43000D01*
X388673D01*
X388149Y43525D01*
Y44050D01*
X388673Y44574D01*
X388149Y45099D01*
Y45624D01*
X388673Y44574D02*
X389723D01*
X391297Y45624D02*
X391822Y46149D01*
X392871D01*
X393396Y45624D01*
Y43525D01*
X392871Y43000D01*
X391822D01*
X391297Y43525D01*
Y45624D01*
X269500Y210500D02*
Y213649D01*
X271074D01*
X271599Y213124D01*
Y212074D01*
X271074Y211549D01*
X269500D01*
X272649Y210500D02*
X273698D01*
X273173D01*
Y213649D01*
X272649Y213124D01*
X290000Y203649D02*
Y201025D01*
X290525Y200500D01*
X291574D01*
X292099Y201025D01*
Y203649D01*
X293149Y200500D02*
X294198D01*
X293673D01*
Y203649D01*
X293149Y203124D01*
X297871Y203649D02*
X295772D01*
Y202074D01*
X296822Y202599D01*
X297347D01*
X297871Y202074D01*
Y201025D01*
X297347Y200500D01*
X296297D01*
X295772Y201025D01*
X121500Y189149D02*
Y186525D01*
X122025Y186000D01*
X123074D01*
X123599Y186525D01*
Y189149D01*
X124649Y186000D02*
X125698D01*
X125173D01*
Y189149D01*
X124649Y188624D01*
X128847Y186000D02*
Y189149D01*
X127272Y187574D01*
X129372D01*
X2000Y147649D02*
Y145025D01*
X2525Y144500D01*
X3574D01*
X4099Y145025D01*
Y147649D01*
X6723Y144500D02*
Y147649D01*
X5149Y146074D01*
X7248D01*
X305300Y159700D02*
Y162849D01*
X306874D01*
X307399Y162324D01*
Y161274D01*
X306874Y160749D01*
X305300D01*
X310548Y162849D02*
X308449D01*
Y161274D01*
X309498Y161799D01*
X310023D01*
X310548Y161274D01*
Y160225D01*
X310023Y159700D01*
X308973D01*
X308449Y160225D01*
X126500Y169500D02*
Y172649D01*
X128074D01*
X128599Y172124D01*
Y171074D01*
X128074Y170549D01*
X126500D01*
X131223Y169500D02*
Y172649D01*
X129649Y171074D01*
X131748D01*
X228800Y302249D02*
Y299625D01*
X229325Y299100D01*
X230374D01*
X230899Y299625D01*
Y302249D01*
X231949Y299625D02*
X232473Y299100D01*
X233523D01*
X234048Y299625D01*
Y301724D01*
X233523Y302249D01*
X232473D01*
X231949Y301724D01*
Y301199D01*
X232473Y300674D01*
X234048D01*
X327800Y302249D02*
Y299625D01*
X328325Y299100D01*
X329374D01*
X329899Y299625D01*
Y302249D01*
X330949Y299100D02*
X331998D01*
X331473D01*
Y302249D01*
X330949Y301724D01*
X335671Y299100D02*
X333572D01*
X335671Y301199D01*
Y301724D01*
X335147Y302249D01*
X334097D01*
X333572Y301724D01*
X229300Y204849D02*
Y202225D01*
X229825Y201700D01*
X230874D01*
X231399Y202225D01*
Y204849D01*
X232449Y201700D02*
X233498D01*
X232973D01*
Y204849D01*
X232449Y204324D01*
X291400Y273800D02*
Y276949D01*
X292974D01*
X293499Y276424D01*
Y275374D01*
X292974Y274850D01*
X291400D01*
X292449D02*
X293499Y273800D01*
X294549D02*
X295598D01*
X295073D01*
Y276949D01*
X294549Y276424D01*
X297172D02*
X297697Y276949D01*
X298747D01*
X299271Y276424D01*
Y275899D01*
X298747Y275374D01*
X298222D01*
X298747D01*
X299271Y274850D01*
Y274325D01*
X298747Y273800D01*
X297697D01*
X297172Y274325D01*
X110400Y273800D02*
Y276949D01*
X111974D01*
X112499Y276424D01*
Y275374D01*
X111974Y274850D01*
X110400D01*
X111450D02*
X112499Y273800D01*
X115648D02*
X113549D01*
X115648Y275899D01*
Y276424D01*
X115123Y276949D01*
X114073D01*
X113549Y276424D01*
X118272Y273800D02*
Y276949D01*
X116697Y275374D01*
X118796D01*
X211900Y273800D02*
Y276949D01*
X213474D01*
X213999Y276424D01*
Y275374D01*
X213474Y274850D01*
X211900D01*
X212949D02*
X213999Y273800D01*
X215049D02*
X216098D01*
X215573D01*
Y276949D01*
X215049Y276424D01*
X219772Y276949D02*
X218722Y276424D01*
X217672Y275374D01*
Y274325D01*
X218197Y273800D01*
X219247D01*
X219772Y274325D01*
Y274850D01*
X219247Y275374D01*
X217672D01*
X309400Y273800D02*
Y276949D01*
X310974D01*
X311499Y276424D01*
Y275374D01*
X310974Y274850D01*
X309400D01*
X310450D02*
X311499Y273800D01*
X314648D02*
X312549D01*
X314648Y275899D01*
Y276424D01*
X314123Y276949D01*
X313073D01*
X312549Y276424D01*
X317796Y273800D02*
X315697D01*
X317796Y275899D01*
Y276424D01*
X317271Y276949D01*
X316222D01*
X315697Y276424D01*
X125900Y146200D02*
Y149349D01*
X127474D01*
X127999Y148824D01*
Y147774D01*
X127474Y147249D01*
X125900D01*
X131148Y146200D02*
X129049D01*
X131148Y148299D01*
Y148824D01*
X130623Y149349D01*
X129573D01*
X129049Y148824D01*
X185400Y146200D02*
Y149349D01*
X186974D01*
X187499Y148824D01*
Y147774D01*
X186974Y147249D01*
X185400D01*
X188549Y148824D02*
X189073Y149349D01*
X190123D01*
X190648Y148824D01*
Y148299D01*
X190123Y147774D01*
X189598D01*
X190123D01*
X190648Y147249D01*
Y146725D01*
X190123Y146200D01*
X189073D01*
X188549Y146725D01*
X73000Y213649D02*
Y210500D01*
X75099D01*
X78248D02*
X76149D01*
X78248Y212599D01*
Y213124D01*
X77723Y213649D01*
X76673D01*
X76149Y213124D01*
X31099Y196124D02*
X30574Y196649D01*
X29525D01*
X29000Y196124D01*
Y194025D01*
X29525Y193500D01*
X30574D01*
X31099Y194025D01*
X32149Y193500D02*
X33198D01*
X32673D01*
Y196649D01*
X32149Y196124D01*
X36871Y193500D02*
X34772D01*
X36871Y195599D01*
Y196124D01*
X36347Y196649D01*
X35297D01*
X34772Y196124D01*
X117099Y148624D02*
X116574Y149149D01*
X115525D01*
X115000Y148624D01*
Y146525D01*
X115525Y146000D01*
X116574D01*
X117099Y146525D01*
X118149Y146000D02*
X119198D01*
X118673D01*
Y149149D01*
X118149Y148624D01*
X122347Y146000D02*
Y149149D01*
X120772Y147574D01*
X122871D01*
X71500Y303149D02*
Y300525D01*
X72025Y300000D01*
X73074D01*
X73599Y300525D01*
Y303149D01*
X74649Y302624D02*
X75173Y303149D01*
X76223D01*
X76748Y302624D01*
Y302099D01*
X76223Y301574D01*
X76748Y301049D01*
Y300525D01*
X76223Y300000D01*
X75173D01*
X74649Y300525D01*
Y301049D01*
X75173Y301574D01*
X74649Y302099D01*
Y302624D01*
X75173Y301574D02*
X76223D01*
X24800Y111449D02*
Y108825D01*
X25325Y108300D01*
X26374D01*
X26899Y108825D01*
Y111449D01*
X27949Y108300D02*
X28998D01*
X28473D01*
Y111449D01*
X27949Y110924D01*
X32671Y111449D02*
X31622Y110924D01*
X30572Y109874D01*
Y108825D01*
X31097Y108300D01*
X32147D01*
X32671Y108825D01*
Y109350D01*
X32147Y109874D01*
X30572D01*
X120800Y111449D02*
Y108825D01*
X121325Y108300D01*
X122374D01*
X122899Y108825D01*
Y111449D01*
X123949Y108300D02*
X124998D01*
X124473D01*
Y111449D01*
X123949Y110924D01*
X126572Y111449D02*
X128672D01*
Y110924D01*
X126572Y108825D01*
Y108300D01*
X279000Y112149D02*
Y109525D01*
X279525Y109000D01*
X280574D01*
X281099Y109525D01*
Y112149D01*
X282149Y109000D02*
X283198D01*
X282673D01*
Y112149D01*
X282149Y111624D01*
X284772D02*
X285297Y112149D01*
X286347D01*
X286872Y111624D01*
Y111099D01*
X286347Y110574D01*
X286872Y110049D01*
Y109525D01*
X286347Y109000D01*
X285297D01*
X284772Y109525D01*
Y110049D01*
X285297Y110574D01*
X284772Y111099D01*
Y111624D01*
X285297Y110574D02*
X286347D01*
X303900Y111449D02*
Y108825D01*
X304425Y108300D01*
X305474D01*
X305999Y108825D01*
Y111449D01*
X307049Y108300D02*
X308098D01*
X307573D01*
Y111449D01*
X307049Y110924D01*
X309672Y108825D02*
X310197Y108300D01*
X311247D01*
X311771Y108825D01*
Y110924D01*
X311247Y111449D01*
X310197D01*
X309672Y110924D01*
Y110399D01*
X310197Y109874D01*
X311771D01*
X271000Y112149D02*
Y111624D01*
X272049Y110574D01*
X273099Y111624D01*
Y112149D01*
X272049Y110574D02*
Y109000D01*
X274149D02*
X275198D01*
X274673D01*
Y112149D01*
X274149Y111624D01*
D54*
X243512Y143831D02*
G03*
X243512Y143831I-1181J0D01*
G01*
X9579Y161504D02*
G03*
X9579Y161504I-1181J0D01*
G01*
D55*
X26992Y55512D02*
G03*
X26992Y55512I-492J0D01*
G01*
X122992D02*
G03*
X122992Y55512I-492J0D01*
G01*
X306012D02*
G03*
X306012Y55512I-492J0D01*
G01*
X181035Y219819D02*
G03*
X181035Y219819I-492J0D01*
G01*
X79035D02*
G03*
X79035Y219819I-492J0D01*
G01*
X278480D02*
G03*
X278480Y219819I-492J0D01*
G01*
X377535D02*
G03*
X377535Y219819I-492J0D01*
G01*
X237114Y134776D02*
G03*
X237114Y134776I-492J0D01*
G01*
X214992Y55512D02*
G03*
X214992Y55512I-492J0D01*
G01*
X4874Y153000D02*
G03*
X4874Y153000I-492J0D01*
G01*
D56*
X396063Y9055D02*
Y38976D01*
X218740D02*
X396063D01*
X218898Y9055D02*
Y38976D01*
Y9055D02*
X396063D01*
X185827D02*
Y38976D01*
X8504D02*
X185827D01*
X8661Y9055D02*
Y38976D01*
Y9055D02*
X185827D01*
X216409Y108658D02*
Y113579D01*
Y108658D02*
X267590D01*
Y113579D01*
Y123421D02*
Y128342D01*
X216409D02*
X267590D01*
X216409Y123421D02*
Y128342D01*
X110500Y142890D02*
X110500Y147614D01*
X108138Y145252D02*
X112862Y145252D01*
X108138Y176748D02*
X112862Y176748D01*
X110500Y179110D02*
X110500Y174386D01*
X25740Y187024D02*
X30465Y187024D01*
X28102Y184661D02*
X28102Y189386D01*
X65898D02*
X65898Y184661D01*
X63535Y187024D02*
X68260Y187024D01*
X185827Y306299D02*
Y336221D01*
X8504D02*
X185827D01*
X8661Y306299D02*
Y336221D01*
Y306299D02*
X185827D01*
X396063D02*
Y336221D01*
X218740D02*
X396063D01*
X218898Y306299D02*
Y336221D01*
Y306299D02*
X396063D01*
D57*
X41342Y41776D02*
Y51224D01*
Y41776D02*
X60240D01*
Y51224D01*
X41342D02*
X60240D01*
X20051Y41776D02*
Y51224D01*
Y41776D02*
X38949D01*
Y51224D01*
X20051D02*
X38949D01*
X64842Y41776D02*
Y51224D01*
Y41776D02*
X83740D01*
Y51224D01*
X64842D02*
X83740D01*
X88342Y41776D02*
Y51224D01*
Y41776D02*
X107240D01*
Y51224D01*
X88342D02*
X107240D01*
X111551Y41776D02*
Y51224D01*
Y41776D02*
X130449D01*
Y51224D01*
X111551D02*
X130449D01*
X134260Y41776D02*
Y51224D01*
Y41776D02*
X153157D01*
Y51224D01*
X134260D02*
X153157D01*
X157551Y41776D02*
Y51224D01*
Y41776D02*
X176449D01*
Y51224D01*
X157551D02*
X176449D01*
X180551Y41776D02*
Y51224D01*
Y41776D02*
X199449D01*
Y51224D01*
X180551D02*
X199449D01*
X203551Y41776D02*
Y51224D01*
Y41776D02*
X222449D01*
Y51224D01*
X203551D02*
X222449D01*
X228051Y41776D02*
Y51224D01*
Y41776D02*
X246949D01*
Y51224D01*
X228051D02*
X246949D01*
X251551Y41776D02*
Y51224D01*
Y41776D02*
X270449D01*
Y51224D01*
X251551D02*
X270449D01*
X274051Y41776D02*
Y51224D01*
Y41776D02*
X292949D01*
Y51224D01*
X274051D02*
X292949D01*
X296051Y41776D02*
Y51224D01*
Y41776D02*
X314949D01*
Y51224D01*
X296051D02*
X314949D01*
X318551Y41776D02*
Y51224D01*
Y41776D02*
X337449D01*
Y51224D01*
X318551D02*
X337449D01*
X340551Y41776D02*
Y51224D01*
Y41776D02*
X359449D01*
Y51224D01*
X340551D02*
X359449D01*
X363551Y41776D02*
Y51224D01*
Y41776D02*
X382449D01*
Y51224D01*
X363551D02*
X382449D01*
D58*
X104988Y177142D02*
X110894Y171236D01*
X78610Y177142D02*
X104988D01*
Y144858D02*
X110894Y150764D01*
X78610Y144858D02*
X104988D01*
X78610Y165528D02*
Y177142D01*
X110894Y165528D02*
Y171236D01*
X78610Y144858D02*
Y156472D01*
X110894Y150764D02*
Y156472D01*
X93177Y151157D02*
Y170843D01*
X96327Y151157D02*
Y170843D01*
Y161000D02*
X97902D01*
X91602D02*
X93177D01*
X47000Y161827D02*
Y166157D01*
Y170095D02*
Y174819D01*
X37157Y170095D02*
X56842D01*
X37157Y166157D02*
X56842D01*
X52118Y188992D02*
X59598D01*
X52118Y147260D02*
X67866D01*
X34402Y188992D02*
X41882D01*
X26134Y147260D02*
X41882D01*
X67866D02*
Y180724D01*
X59598Y188992D02*
X67866Y180724D01*
X26134Y147260D02*
Y180724D01*
X34402Y188992D01*
X82000Y208784D02*
X94337Y219000D01*
X82000Y192216D02*
X94337Y182000D01*
X109663D02*
X122000Y192216D01*
X94337Y182000D02*
X109663D01*
X94337Y219000D02*
X109663D01*
X122000Y208784D01*
D59*
X267000Y206000D02*
Y216000D01*
X227000D02*
X267000D01*
X227000Y206000D02*
Y216000D01*
Y206000D02*
X267000D01*
D60*
X111500Y118000D02*
Y117082D01*
Y117541D01*
X114255D01*
X113796Y118000D01*
X206500D02*
Y117082D01*
Y117541D01*
X209255D01*
X208796Y118000D01*
X298000D02*
Y117082D01*
Y117541D01*
X300755D01*
X300296Y118000D01*
X13000Y220000D02*
Y220918D01*
Y220459D01*
X10245D01*
X10704Y220000D01*
X98500D02*
Y220918D01*
Y220459D01*
X95745D01*
X96204Y220000D01*
X113500D02*
Y220918D01*
Y220459D01*
X110745D01*
X111204Y220000D01*
X197000D02*
Y220918D01*
Y220459D01*
X194245D01*
X194704Y220000D01*
X390000Y219000D02*
Y219918D01*
Y219459D01*
X387245D01*
X387704Y219000D01*
X294500Y220000D02*
Y220918D01*
Y220459D01*
X291745D01*
X292204Y220000D01*
X215000D02*
Y220918D01*
Y220459D01*
X212245D01*
X212704Y220000D01*
X312500D02*
Y220918D01*
Y220459D01*
X309745D01*
X310204Y220000D01*
X15000Y118000D02*
Y117082D01*
Y117541D01*
X17755D01*
X17296Y118000D01*
M02*
