G04 Layer_Color=8421504*
%FSLAX25Y25*%
%MOIN*%
G70*
G01*
G75*
%ADD10O,0.03937X0.11811*%
%ADD11O,0.04724X0.11811*%
%ADD12R,0.21654X0.07874*%
%ADD13O,0.11811X0.04724*%
%ADD14O,0.11811X0.03937*%
%ADD15O,0.01181X0.07087*%
%ADD16O,0.07087X0.01181*%
G04:AMPARAMS|DCode=17|XSize=70.87mil|YSize=51.18mil|CornerRadius=6.4mil|HoleSize=0mil|Usage=FLASHONLY|Rotation=90.000|XOffset=0mil|YOffset=0mil|HoleType=Round|Shape=RoundedRectangle|*
%AMROUNDEDRECTD17*
21,1,0.07087,0.03839,0,0,90.0*
21,1,0.05807,0.05118,0,0,90.0*
1,1,0.01280,0.01919,0.02904*
1,1,0.01280,0.01919,-0.02904*
1,1,0.01280,-0.01919,-0.02904*
1,1,0.01280,-0.01919,0.02904*
%
%ADD17ROUNDEDRECTD17*%
G04:AMPARAMS|DCode=18|XSize=157.48mil|YSize=62.99mil|CornerRadius=7.87mil|HoleSize=0mil|Usage=FLASHONLY|Rotation=0.000|XOffset=0mil|YOffset=0mil|HoleType=Round|Shape=RoundedRectangle|*
%AMROUNDEDRECTD18*
21,1,0.15748,0.04724,0,0,0.0*
21,1,0.14173,0.06299,0,0,0.0*
1,1,0.01575,0.07087,-0.02362*
1,1,0.01575,-0.07087,-0.02362*
1,1,0.01575,-0.07087,0.02362*
1,1,0.01575,0.07087,0.02362*
%
%ADD18ROUNDEDRECTD18*%
G04:AMPARAMS|DCode=19|XSize=78.74mil|YSize=161.42mil|CornerRadius=9.84mil|HoleSize=0mil|Usage=FLASHONLY|Rotation=180.000|XOffset=0mil|YOffset=0mil|HoleType=Round|Shape=RoundedRectangle|*
%AMROUNDEDRECTD19*
21,1,0.07874,0.14173,0,0,180.0*
21,1,0.05906,0.16142,0,0,180.0*
1,1,0.01969,-0.02953,0.07087*
1,1,0.01969,0.02953,0.07087*
1,1,0.01969,0.02953,-0.07087*
1,1,0.01969,-0.02953,-0.07087*
%
%ADD19ROUNDEDRECTD19*%
G04:AMPARAMS|DCode=20|XSize=115mil|YSize=110mil|CornerRadius=13.75mil|HoleSize=0mil|Usage=FLASHONLY|Rotation=0.000|XOffset=0mil|YOffset=0mil|HoleType=Round|Shape=RoundedRectangle|*
%AMROUNDEDRECTD20*
21,1,0.11500,0.08250,0,0,0.0*
21,1,0.08750,0.11000,0,0,0.0*
1,1,0.02750,0.04375,-0.04125*
1,1,0.02750,-0.04375,-0.04125*
1,1,0.02750,-0.04375,0.04125*
1,1,0.02750,0.04375,0.04125*
%
%ADD20ROUNDEDRECTD20*%
D10*
X68500Y61811D02*
D03*
X164500D02*
D03*
X347520D02*
D03*
X256500D02*
D03*
D11*
X77319D02*
D03*
X87319D02*
D03*
X97319D02*
D03*
X59563D02*
D03*
X49681D02*
D03*
X39681D02*
D03*
X29681D02*
D03*
X97319Y97244D02*
D03*
X87319D02*
D03*
X77319D02*
D03*
X68500D02*
D03*
X58500D02*
D03*
X49681D02*
D03*
X39681D02*
D03*
X29996D02*
D03*
X173319Y61811D02*
D03*
X183319D02*
D03*
X193319D02*
D03*
X155563D02*
D03*
X145681D02*
D03*
X135681D02*
D03*
X125681D02*
D03*
X193319Y97244D02*
D03*
X183319D02*
D03*
X173319D02*
D03*
X164500D02*
D03*
X154500D02*
D03*
X145681D02*
D03*
X135681D02*
D03*
X125996D02*
D03*
X356339Y61811D02*
D03*
X366339D02*
D03*
X376339D02*
D03*
X338583D02*
D03*
X328701D02*
D03*
X318701D02*
D03*
X308701D02*
D03*
X376339Y97244D02*
D03*
X366339D02*
D03*
X356339D02*
D03*
X347520D02*
D03*
X337520D02*
D03*
X328701D02*
D03*
X318701D02*
D03*
X309016D02*
D03*
X265319Y61811D02*
D03*
X275319D02*
D03*
X285319D02*
D03*
X247563D02*
D03*
X237681D02*
D03*
X227681D02*
D03*
X217681D02*
D03*
X285319Y97244D02*
D03*
X275319D02*
D03*
X265319D02*
D03*
X256500D02*
D03*
X246500D02*
D03*
X237681D02*
D03*
X227681D02*
D03*
X217996D02*
D03*
D12*
X222315Y118500D02*
D03*
X261685D02*
D03*
D13*
X138811Y223315D02*
D03*
Y233000D02*
D03*
Y243000D02*
D03*
Y251819D02*
D03*
Y261819D02*
D03*
Y270638D02*
D03*
Y280638D02*
D03*
Y290638D02*
D03*
X174244Y223000D02*
D03*
Y233000D02*
D03*
Y243000D02*
D03*
Y252882D02*
D03*
Y290638D02*
D03*
Y280638D02*
D03*
Y270638D02*
D03*
X36811Y223315D02*
D03*
Y233000D02*
D03*
Y243000D02*
D03*
Y251819D02*
D03*
Y261819D02*
D03*
Y270638D02*
D03*
Y280638D02*
D03*
Y290638D02*
D03*
X72244Y223000D02*
D03*
Y233000D02*
D03*
Y243000D02*
D03*
Y252882D02*
D03*
Y290638D02*
D03*
Y280638D02*
D03*
Y270638D02*
D03*
X236256Y223315D02*
D03*
Y233000D02*
D03*
Y243000D02*
D03*
Y251819D02*
D03*
Y261819D02*
D03*
Y270638D02*
D03*
Y280638D02*
D03*
Y290638D02*
D03*
X271689Y223000D02*
D03*
Y233000D02*
D03*
Y243000D02*
D03*
Y252882D02*
D03*
Y290638D02*
D03*
Y280638D02*
D03*
Y270638D02*
D03*
X335311Y223315D02*
D03*
Y233000D02*
D03*
Y243000D02*
D03*
Y251819D02*
D03*
Y261819D02*
D03*
Y270638D02*
D03*
Y280638D02*
D03*
Y290638D02*
D03*
X370744Y223000D02*
D03*
Y233000D02*
D03*
Y243000D02*
D03*
Y252882D02*
D03*
Y290638D02*
D03*
Y280638D02*
D03*
Y270638D02*
D03*
D14*
X174244Y261819D02*
D03*
X72244D02*
D03*
X271689D02*
D03*
X370744D02*
D03*
D15*
X239378Y134776D02*
D03*
X241347D02*
D03*
X243315D02*
D03*
X245284D02*
D03*
X247252D02*
D03*
X249220D02*
D03*
X251189D02*
D03*
X253157D02*
D03*
X255126D02*
D03*
X257095D02*
D03*
X259063D02*
D03*
X261032D02*
D03*
X263000D02*
D03*
X264968D02*
D03*
X266937D02*
D03*
X268905D02*
D03*
X270874D02*
D03*
X272843D02*
D03*
X274811D02*
D03*
X276780D02*
D03*
X278748D02*
D03*
X280716D02*
D03*
X282685D02*
D03*
X284653D02*
D03*
X286622D02*
D03*
Y194224D02*
D03*
X284653D02*
D03*
X282685D02*
D03*
X280716D02*
D03*
X278748D02*
D03*
X276780D02*
D03*
X274811D02*
D03*
X272843D02*
D03*
X270874D02*
D03*
X268905D02*
D03*
X266937D02*
D03*
X264968D02*
D03*
X263000D02*
D03*
X261032D02*
D03*
X259063D02*
D03*
X257095D02*
D03*
X255126D02*
D03*
X253157D02*
D03*
X251189D02*
D03*
X249220D02*
D03*
X247252D02*
D03*
X245284D02*
D03*
X243315D02*
D03*
X241347D02*
D03*
X239378D02*
D03*
D16*
X292724Y140878D02*
D03*
Y142847D02*
D03*
Y144815D02*
D03*
Y146783D02*
D03*
Y148752D02*
D03*
Y150721D02*
D03*
Y152689D02*
D03*
Y154657D02*
D03*
Y156626D02*
D03*
Y158595D02*
D03*
Y160563D02*
D03*
Y162531D02*
D03*
Y164500D02*
D03*
Y166469D02*
D03*
Y168437D02*
D03*
Y170405D02*
D03*
Y172374D02*
D03*
Y174343D02*
D03*
Y176311D02*
D03*
Y178279D02*
D03*
Y180248D02*
D03*
Y182217D02*
D03*
Y184185D02*
D03*
Y186153D02*
D03*
Y188122D02*
D03*
X233276D02*
D03*
Y186153D02*
D03*
Y184185D02*
D03*
Y182217D02*
D03*
Y180248D02*
D03*
Y178279D02*
D03*
Y176311D02*
D03*
Y174343D02*
D03*
Y172374D02*
D03*
Y170405D02*
D03*
Y168437D02*
D03*
Y166469D02*
D03*
Y164500D02*
D03*
Y162531D02*
D03*
Y160563D02*
D03*
Y158595D02*
D03*
Y156626D02*
D03*
Y154657D02*
D03*
Y152689D02*
D03*
Y150721D02*
D03*
Y148752D02*
D03*
Y146783D02*
D03*
Y144815D02*
D03*
Y142847D02*
D03*
Y140878D02*
D03*
D17*
X56500Y46500D02*
D03*
X45083D02*
D03*
X35209D02*
D03*
X23791D02*
D03*
X80000D02*
D03*
X68583D02*
D03*
X103500D02*
D03*
X92083D02*
D03*
X126709D02*
D03*
X115291D02*
D03*
X149417D02*
D03*
X138000D02*
D03*
X172709D02*
D03*
X161291D02*
D03*
X195709D02*
D03*
X184291D02*
D03*
X218709D02*
D03*
X207291D02*
D03*
X243209D02*
D03*
X231791D02*
D03*
X266709D02*
D03*
X255291D02*
D03*
X289209D02*
D03*
X277791D02*
D03*
X311209D02*
D03*
X299791D02*
D03*
X333709D02*
D03*
X322291D02*
D03*
X355709D02*
D03*
X344291D02*
D03*
X378709D02*
D03*
X367291D02*
D03*
D18*
X110500Y161000D02*
D03*
X79004D02*
D03*
D19*
X47000Y151000D02*
D03*
Y185252D02*
D03*
D20*
X122250Y200500D02*
D03*
X81750D02*
D03*
M02*
