G04 Layer_Color=32896*
%FSLAX25Y25*%
%MOIN*%
G70*
G01*
G75*
%ADD21C,0.00787*%
%ADD54C,0.02362*%
%ADD55C,0.00984*%
%ADD57C,0.00394*%
%ADD59C,0.00500*%
%ADD60C,0.00591*%
G36*
X98500Y192000D02*
X96000D01*
Y196000D01*
X98500D01*
Y192000D01*
D02*
G37*
G36*
X112000D02*
X109500D01*
Y196000D01*
X112000D01*
Y192000D01*
D02*
G37*
D21*
X294858Y192461D02*
X295055D01*
X276945D02*
X277142D01*
X276945Y162539D02*
Y192461D01*
X295055Y162539D02*
Y192461D01*
X276945Y162539D02*
X277142D01*
X294858D02*
X295055D01*
X276945Y171595D02*
X295055D01*
X247217Y186689D02*
X261784D01*
X247217Y160311D02*
Y186689D01*
Y160311D02*
X261784D01*
Y186689D01*
X8098Y339890D02*
X32902D01*
X8098Y326110D02*
X32902D01*
Y326307D01*
Y339693D02*
Y339890D01*
X8098Y326110D02*
Y326307D01*
Y339693D02*
Y339890D01*
X31110Y284842D02*
Y309646D01*
X44890Y284842D02*
Y309646D01*
X44693D02*
X44890D01*
X31110D02*
X31307D01*
X44693Y284842D02*
X44890D01*
X31110D02*
X31307D01*
X50610D02*
Y309646D01*
X64390Y284842D02*
Y309646D01*
X64193D02*
X64390D01*
X50610D02*
X50807D01*
X64193Y284842D02*
X64390D01*
X50610D02*
X50807D01*
X70610D02*
Y309646D01*
X84390Y284842D02*
Y309646D01*
X84193D02*
X84390D01*
X70610D02*
X70807D01*
X84193Y284842D02*
X84390D01*
X70610D02*
X70807D01*
X90110D02*
Y309646D01*
X103890Y284842D02*
Y309646D01*
X103693D02*
X103890D01*
X90110D02*
X90307D01*
X103693Y284842D02*
X103890D01*
X90110D02*
X90307D01*
X110110D02*
Y309646D01*
X123890Y284842D02*
Y309646D01*
X123693D02*
X123890D01*
X110110D02*
X110307D01*
X123693Y284842D02*
X123890D01*
X110110D02*
X110307D01*
X129610D02*
Y309646D01*
X143390Y284842D02*
Y309646D01*
X143193D02*
X143390D01*
X129610D02*
X129807D01*
X143193Y284842D02*
X143390D01*
X129610D02*
X129807D01*
X149110D02*
Y309646D01*
X162890Y284842D02*
Y309646D01*
X162693D02*
X162890D01*
X149110D02*
X149307D01*
X162693Y284842D02*
X162890D01*
X149110D02*
X149307D01*
X169110D02*
Y309646D01*
X182890Y284842D02*
Y309646D01*
X182693D02*
X182890D01*
X169110D02*
X169307D01*
X182693Y284842D02*
X182890D01*
X169110D02*
X169307D01*
X221610D02*
Y309646D01*
X235390Y284842D02*
Y309646D01*
X235193D02*
X235390D01*
X221610D02*
X221807D01*
X235193Y284842D02*
X235390D01*
X221610D02*
X221807D01*
X241110D02*
Y309646D01*
X254890Y284842D02*
Y309646D01*
X254693D02*
X254890D01*
X241110D02*
X241307D01*
X254693Y284842D02*
X254890D01*
X241110D02*
X241307D01*
X261110D02*
Y309646D01*
X274890Y284842D02*
Y309646D01*
X274693D02*
X274890D01*
X261110D02*
X261307D01*
X274693Y284842D02*
X274890D01*
X261110D02*
X261307D01*
X281110D02*
Y309646D01*
X294890Y284842D02*
Y309646D01*
X294693D02*
X294890D01*
X281110D02*
X281307D01*
X294693Y284842D02*
X294890D01*
X281110D02*
X281307D01*
X300610D02*
Y309646D01*
X314390Y284842D02*
Y309646D01*
X314193D02*
X314390D01*
X300610D02*
X300807D01*
X314193Y284842D02*
X314390D01*
X300610D02*
X300807D01*
X320110D02*
Y309646D01*
X333890Y284842D02*
Y309646D01*
X333693D02*
X333890D01*
X320110D02*
X320307D01*
X333693Y284842D02*
X333890D01*
X320110D02*
X320307D01*
X340110D02*
Y309646D01*
X353890Y284842D02*
Y309646D01*
X353693D02*
X353890D01*
X340110D02*
X340307D01*
X353693Y284842D02*
X353890D01*
X340110D02*
X340307D01*
X360110D02*
Y309646D01*
X373890Y284842D02*
Y309646D01*
X373693D02*
X373890D01*
X360110D02*
X360307D01*
X373693Y284842D02*
X373890D01*
X360110D02*
X360307D01*
X340689Y270091D02*
X364311D01*
X340689Y218910D02*
X364311D01*
Y270091D01*
X340689Y218910D02*
Y270091D01*
X144189D02*
X167811D01*
X144189Y218910D02*
X167811D01*
Y270091D01*
X144189Y218910D02*
Y270091D01*
X244189D02*
X267811D01*
X244189Y218910D02*
X267811D01*
Y270091D01*
X244189Y218910D02*
Y270091D01*
X44689Y269590D02*
X68311D01*
X44689Y218409D02*
X68311D01*
Y269590D01*
X44689Y218409D02*
Y269590D01*
X6157Y205831D02*
X25842D01*
X6157Y197169D02*
X25842D01*
X6157D02*
Y205831D01*
X25842Y197169D02*
Y205831D01*
X186874Y77831D02*
Y119169D01*
X171126Y77831D02*
Y119169D01*
X186874D01*
X171126Y77831D02*
X186874D01*
X74957Y172658D02*
X82043D01*
X74957Y192342D02*
X82043D01*
X74957Y172658D02*
Y192342D01*
X82043Y172658D02*
Y192342D01*
X371900Y201100D02*
Y204249D01*
X370326D01*
X369801Y203724D01*
Y202674D01*
X370326Y202150D01*
X371900D01*
X370850D02*
X369801Y201100D01*
X367177D02*
Y204249D01*
X368751Y202674D01*
X366652D01*
X365603Y203724D02*
X365078Y204249D01*
X364029D01*
X363504Y203724D01*
Y203199D01*
X364029Y202674D01*
X364553D01*
X364029D01*
X363504Y202150D01*
Y201625D01*
X364029Y201100D01*
X365078D01*
X365603Y201625D01*
X341900Y201100D02*
Y204249D01*
X340326D01*
X339801Y203724D01*
Y202674D01*
X340326Y202150D01*
X341900D01*
X340850D02*
X339801Y201100D01*
X337177D02*
Y204249D01*
X338751Y202674D01*
X336652D01*
X335603Y203724D02*
X335078Y204249D01*
X334029D01*
X333504Y203724D01*
Y201625D01*
X334029Y201100D01*
X335078D01*
X335603Y201625D01*
Y203724D01*
X381900Y201100D02*
Y204249D01*
X380326D01*
X379801Y203724D01*
Y202674D01*
X380326Y202150D01*
X381900D01*
X380851D02*
X379801Y201100D01*
X377177D02*
Y204249D01*
X378751Y202674D01*
X376652D01*
X374028Y201100D02*
Y204249D01*
X375603Y202674D01*
X373504D01*
X361900Y201100D02*
Y204249D01*
X360326D01*
X359801Y203724D01*
Y202674D01*
X360326Y202150D01*
X361900D01*
X360851D02*
X359801Y201100D01*
X357177D02*
Y204249D01*
X358751Y202674D01*
X356652D01*
X353504Y201100D02*
X355603D01*
X353504Y203199D01*
Y203724D01*
X354029Y204249D01*
X355078D01*
X355603Y203724D01*
X352400Y201100D02*
Y204249D01*
X350826D01*
X350301Y203724D01*
Y202674D01*
X350826Y202150D01*
X352400D01*
X351350D02*
X350301Y201100D01*
X347677D02*
Y204249D01*
X349251Y202674D01*
X347152D01*
X346103Y201100D02*
X345053D01*
X345578D01*
Y204249D01*
X346103Y203724D01*
X331900Y201100D02*
Y204249D01*
X330326D01*
X329801Y203724D01*
Y202674D01*
X330326Y202150D01*
X331900D01*
X330851D02*
X329801Y201100D01*
X328751Y203724D02*
X328227Y204249D01*
X327177D01*
X326652Y203724D01*
Y203199D01*
X327177Y202674D01*
X327702D01*
X327177D01*
X326652Y202150D01*
Y201625D01*
X327177Y201100D01*
X328227D01*
X328751Y201625D01*
X325603D02*
X325078Y201100D01*
X324028D01*
X323504Y201625D01*
Y203724D01*
X324028Y204249D01*
X325078D01*
X325603Y203724D01*
Y203199D01*
X325078Y202674D01*
X323504D01*
X321900Y201100D02*
Y204249D01*
X320326D01*
X319801Y203724D01*
Y202674D01*
X320326Y202150D01*
X321900D01*
X320850D02*
X319801Y201100D01*
X318751Y203724D02*
X318227Y204249D01*
X317177D01*
X316652Y203724D01*
Y203199D01*
X317177Y202674D01*
X317702D01*
X317177D01*
X316652Y202150D01*
Y201625D01*
X317177Y201100D01*
X318227D01*
X318751Y201625D01*
X315603Y203724D02*
X315078Y204249D01*
X314029D01*
X313504Y203724D01*
Y203199D01*
X314029Y202674D01*
X313504Y202150D01*
Y201625D01*
X314029Y201100D01*
X315078D01*
X315603Y201625D01*
Y202150D01*
X315078Y202674D01*
X315603Y203199D01*
Y203724D01*
X315078Y202674D02*
X314029D01*
X311900Y201100D02*
Y204249D01*
X310326D01*
X309801Y203724D01*
Y202674D01*
X310326Y202150D01*
X311900D01*
X310851D02*
X309801Y201100D01*
X308751Y203724D02*
X308227Y204249D01*
X307177D01*
X306652Y203724D01*
Y203199D01*
X307177Y202674D01*
X307702D01*
X307177D01*
X306652Y202150D01*
Y201625D01*
X307177Y201100D01*
X308227D01*
X308751Y201625D01*
X305603Y204249D02*
X303504D01*
Y203724D01*
X305603Y201625D01*
Y201100D01*
X293401Y200624D02*
X293926Y201149D01*
X294975D01*
X295500Y200624D01*
Y198525D01*
X294975Y198000D01*
X293926D01*
X293401Y198525D01*
X290252Y201149D02*
X291302Y200624D01*
X292351Y199574D01*
Y198525D01*
X291827Y198000D01*
X290777D01*
X290252Y198525D01*
Y199049D01*
X290777Y199574D01*
X292351D01*
X273300Y193049D02*
Y190425D01*
X272775Y189900D01*
X271726D01*
X271201Y190425D01*
Y193049D01*
X270151Y192524D02*
X269627Y193049D01*
X268577D01*
X268052Y192524D01*
Y191999D01*
X268577Y191474D01*
X269102D01*
X268577D01*
X268052Y190949D01*
Y190425D01*
X268577Y189900D01*
X269627D01*
X270151Y190425D01*
X227101Y186384D02*
X227626Y186908D01*
X228675D01*
X229200Y186384D01*
Y184285D01*
X228675Y183760D01*
X227626D01*
X227101Y184285D01*
X223952Y186908D02*
X226051D01*
Y185334D01*
X225002Y185859D01*
X224477D01*
X223952Y185334D01*
Y184285D01*
X224477Y183760D01*
X225527D01*
X226051Y184285D01*
X182500Y200500D02*
Y203649D01*
X180926D01*
X180401Y203124D01*
Y202074D01*
X180926Y201550D01*
X182500D01*
X181450D02*
X180401Y200500D01*
X179351Y203124D02*
X178827Y203649D01*
X177777D01*
X177252Y203124D01*
Y202599D01*
X177777Y202074D01*
X178302D01*
X177777D01*
X177252Y201550D01*
Y201025D01*
X177777Y200500D01*
X178827D01*
X179351Y201025D01*
X176203Y203124D02*
X175678Y203649D01*
X174628D01*
X174104Y203124D01*
Y202599D01*
X174628Y202074D01*
X175153D01*
X174628D01*
X174104Y201550D01*
Y201025D01*
X174628Y200500D01*
X175678D01*
X176203Y201025D01*
X212900Y200100D02*
Y203249D01*
X211326D01*
X210801Y202724D01*
Y201674D01*
X211326Y201150D01*
X212900D01*
X211851D02*
X210801Y200100D01*
X209751Y202724D02*
X209227Y203249D01*
X208177D01*
X207652Y202724D01*
Y202199D01*
X208177Y201674D01*
X208702D01*
X208177D01*
X207652Y201150D01*
Y200625D01*
X208177Y200100D01*
X209227D01*
X209751Y200625D01*
X204504Y203249D02*
X205553Y202724D01*
X206603Y201674D01*
Y200625D01*
X206078Y200100D01*
X205029D01*
X204504Y200625D01*
Y201150D01*
X205029Y201674D01*
X206603D01*
X202400Y200100D02*
Y203249D01*
X200826D01*
X200301Y202724D01*
Y201674D01*
X200826Y201150D01*
X202400D01*
X201350D02*
X200301Y200100D01*
X199251Y202724D02*
X198727Y203249D01*
X197677D01*
X197152Y202724D01*
Y202199D01*
X197677Y201674D01*
X198202D01*
X197677D01*
X197152Y201150D01*
Y200625D01*
X197677Y200100D01*
X198727D01*
X199251Y200625D01*
X194004Y203249D02*
X196103D01*
Y201674D01*
X195053Y202199D01*
X194528D01*
X194004Y201674D01*
Y200625D01*
X194528Y200100D01*
X195578D01*
X196103Y200625D01*
X192400Y200100D02*
Y203249D01*
X190826D01*
X190301Y202724D01*
Y201674D01*
X190826Y201150D01*
X192400D01*
X191350D02*
X190301Y200100D01*
X189251Y202724D02*
X188727Y203249D01*
X187677D01*
X187152Y202724D01*
Y202199D01*
X187677Y201674D01*
X188202D01*
X187677D01*
X187152Y201150D01*
Y200625D01*
X187677Y200100D01*
X188727D01*
X189251Y200625D01*
X184529Y200100D02*
Y203249D01*
X186103Y201674D01*
X184004D01*
X172900Y200100D02*
Y203249D01*
X171326D01*
X170801Y202724D01*
Y201674D01*
X171326Y201150D01*
X172900D01*
X171851D02*
X170801Y200100D01*
X169751Y202724D02*
X169227Y203249D01*
X168177D01*
X167652Y202724D01*
Y202199D01*
X168177Y201674D01*
X168702D01*
X168177D01*
X167652Y201150D01*
Y200625D01*
X168177Y200100D01*
X169227D01*
X169751Y200625D01*
X164504Y200100D02*
X166603D01*
X164504Y202199D01*
Y202724D01*
X165029Y203249D01*
X166078D01*
X166603Y202724D01*
X162900Y200100D02*
Y203249D01*
X161326D01*
X160801Y202724D01*
Y201674D01*
X161326Y201150D01*
X162900D01*
X161851D02*
X160801Y200100D01*
X159751Y202724D02*
X159227Y203249D01*
X158177D01*
X157652Y202724D01*
Y202199D01*
X158177Y201674D01*
X158702D01*
X158177D01*
X157652Y201150D01*
Y200625D01*
X158177Y200100D01*
X159227D01*
X159751Y200625D01*
X156603Y200100D02*
X155553D01*
X156078D01*
Y203249D01*
X156603Y202724D01*
X152900Y200100D02*
Y203249D01*
X151326D01*
X150801Y202724D01*
Y201674D01*
X151326Y201150D01*
X152900D01*
X151850D02*
X150801Y200100D01*
X149751Y202724D02*
X149227Y203249D01*
X148177D01*
X147652Y202724D01*
Y202199D01*
X148177Y201674D01*
X148702D01*
X148177D01*
X147652Y201150D01*
Y200625D01*
X148177Y200100D01*
X149227D01*
X149751Y200625D01*
X146603Y202724D02*
X146078Y203249D01*
X145028D01*
X144504Y202724D01*
Y200625D01*
X145028Y200100D01*
X146078D01*
X146603Y200625D01*
Y202724D01*
X124000Y198500D02*
Y195351D01*
X125574D01*
X126099Y195876D01*
Y196926D01*
X125574Y197450D01*
X124000D01*
X125049D02*
X126099Y198500D01*
X129248D02*
X127149D01*
X129248Y196401D01*
Y195876D01*
X128723Y195351D01*
X127673D01*
X127149Y195876D01*
X130297Y197975D02*
X130822Y198500D01*
X131871D01*
X132396Y197975D01*
Y195876D01*
X131871Y195351D01*
X130822D01*
X130297Y195876D01*
Y196401D01*
X130822Y196926D01*
X132396D01*
X181000Y144149D02*
Y141000D01*
X178901D01*
X177851D02*
X176802D01*
X177327D01*
Y144149D01*
X177851Y143624D01*
X153601D02*
X154126Y144149D01*
X155175D01*
X155700Y143624D01*
Y141525D01*
X155175Y141000D01*
X154126D01*
X153601Y141525D01*
X152551Y143624D02*
X152027Y144149D01*
X150977D01*
X150452Y143624D01*
Y143099D01*
X150977Y142574D01*
X150452Y142050D01*
Y141525D01*
X150977Y141000D01*
X152027D01*
X152551Y141525D01*
Y142050D01*
X152027Y142574D01*
X152551Y143099D01*
Y143624D01*
X152027Y142574D02*
X150977D01*
X136401Y143624D02*
X136926Y144149D01*
X137975D01*
X138500Y143624D01*
Y141525D01*
X137975Y141000D01*
X136926D01*
X136401Y141525D01*
X133777Y141000D02*
Y144149D01*
X135351Y142574D01*
X133252D01*
X40401Y337649D02*
X42500D01*
Y336074D01*
X41451D01*
X42500D01*
Y334500D01*
X39351D02*
X38302D01*
X38827D01*
Y337649D01*
X39351Y337124D01*
X40151Y329343D02*
X42250D01*
Y327768D01*
X41201D01*
X42250D01*
Y326194D01*
X37002D02*
X39101D01*
X37002Y328293D01*
Y328818D01*
X37527Y329343D01*
X38577D01*
X39101Y328818D01*
X59651Y329343D02*
X61750D01*
Y327768D01*
X60701D01*
X61750D01*
Y326194D01*
X58601Y328818D02*
X58077Y329343D01*
X57027D01*
X56502Y328818D01*
Y328293D01*
X57027Y327768D01*
X57552D01*
X57027D01*
X56502Y327244D01*
Y326719D01*
X57027Y326194D01*
X58077D01*
X58601Y326719D01*
X79651Y329343D02*
X81750D01*
Y327768D01*
X80700D01*
X81750D01*
Y326194D01*
X77027D02*
Y329343D01*
X78601Y327768D01*
X76502D01*
X99151Y329343D02*
X101250D01*
Y327768D01*
X100200D01*
X101250D01*
Y326194D01*
X96002Y329343D02*
X98101D01*
Y327768D01*
X97052Y328293D01*
X96527D01*
X96002Y327768D01*
Y326719D01*
X96527Y326194D01*
X97577D01*
X98101Y326719D01*
X119151Y329343D02*
X121250D01*
Y327768D01*
X120201D01*
X121250D01*
Y326194D01*
X116002Y329343D02*
X117052Y328818D01*
X118101Y327768D01*
Y326719D01*
X117577Y326194D01*
X116527D01*
X116002Y326719D01*
Y327244D01*
X116527Y327768D01*
X118101D01*
X138651Y329343D02*
X140750D01*
Y327768D01*
X139700D01*
X140750D01*
Y326194D01*
X137601Y329343D02*
X135502D01*
Y328818D01*
X137601Y326719D01*
Y326194D01*
X158151Y329343D02*
X160250D01*
Y327768D01*
X159201D01*
X160250D01*
Y326194D01*
X157101Y328818D02*
X156577Y329343D01*
X155527D01*
X155002Y328818D01*
Y328293D01*
X155527Y327768D01*
X155002Y327244D01*
Y326719D01*
X155527Y326194D01*
X156577D01*
X157101Y326719D01*
Y327244D01*
X156577Y327768D01*
X157101Y328293D01*
Y328818D01*
X156577Y327768D02*
X155527D01*
X178151Y329343D02*
X180250D01*
Y327768D01*
X179200D01*
X180250D01*
Y326194D01*
X177101Y326719D02*
X176577Y326194D01*
X175527D01*
X175002Y326719D01*
Y328818D01*
X175527Y329343D01*
X176577D01*
X177101Y328818D01*
Y328293D01*
X176577Y327768D01*
X175002D01*
X230651Y329343D02*
X232750D01*
Y327768D01*
X231700D01*
X232750D01*
Y326194D01*
X229601D02*
X228552D01*
X229077D01*
Y329343D01*
X229601Y328818D01*
X226978D02*
X226453Y329343D01*
X225403D01*
X224879Y328818D01*
Y326719D01*
X225403Y326194D01*
X226453D01*
X226978Y326719D01*
Y328818D01*
X250151Y329343D02*
X252250D01*
Y327768D01*
X251201D01*
X252250D01*
Y326194D01*
X249101D02*
X248052D01*
X248577D01*
Y329343D01*
X249101Y328818D01*
X246478Y326194D02*
X245428D01*
X245953D01*
Y329343D01*
X246478Y328818D01*
X270151Y329343D02*
X272250D01*
Y327768D01*
X271200D01*
X272250D01*
Y326194D01*
X269101D02*
X268052D01*
X268577D01*
Y329343D01*
X269101Y328818D01*
X264378Y326194D02*
X266478D01*
X264378Y328293D01*
Y328818D01*
X264903Y329343D01*
X265953D01*
X266478Y328818D01*
X290151Y329343D02*
X292250D01*
Y327768D01*
X291200D01*
X292250D01*
Y326194D01*
X289101D02*
X288052D01*
X288577D01*
Y329343D01*
X289101Y328818D01*
X286478D02*
X285953Y329343D01*
X284903D01*
X284379Y328818D01*
Y328293D01*
X284903Y327768D01*
X285428D01*
X284903D01*
X284379Y327244D01*
Y326719D01*
X284903Y326194D01*
X285953D01*
X286478Y326719D01*
X309651Y329343D02*
X311750D01*
Y327768D01*
X310700D01*
X311750D01*
Y326194D01*
X308601D02*
X307552D01*
X308077D01*
Y329343D01*
X308601Y328818D01*
X304403Y326194D02*
Y329343D01*
X305978Y327768D01*
X303878D01*
X329151Y329343D02*
X331250D01*
Y327768D01*
X330201D01*
X331250D01*
Y326194D01*
X328101D02*
X327052D01*
X327577D01*
Y329343D01*
X328101Y328818D01*
X323378Y329343D02*
X325478D01*
Y327768D01*
X324428Y328293D01*
X323903D01*
X323378Y327768D01*
Y326719D01*
X323903Y326194D01*
X324953D01*
X325478Y326719D01*
X349151Y329343D02*
X351250D01*
Y327768D01*
X350201D01*
X351250D01*
Y326194D01*
X348101D02*
X347052D01*
X347577D01*
Y329343D01*
X348101Y328818D01*
X343378Y329343D02*
X344428Y328818D01*
X345478Y327768D01*
Y326719D01*
X344953Y326194D01*
X343903D01*
X343378Y326719D01*
Y327244D01*
X343903Y327768D01*
X345478D01*
X369151Y329343D02*
X371250D01*
Y327768D01*
X370200D01*
X371250D01*
Y326194D01*
X368101D02*
X367052D01*
X367577D01*
Y329343D01*
X368101Y328818D01*
X365478Y329343D02*
X363379D01*
Y328818D01*
X365478Y326719D01*
Y326194D01*
X199901Y221124D02*
X200426Y221649D01*
X201475D01*
X202000Y221124D01*
Y219025D01*
X201475Y218500D01*
X200426D01*
X199901Y219025D01*
X196752Y218500D02*
X198851D01*
X196752Y220599D01*
Y221124D01*
X197277Y221649D01*
X198327D01*
X198851Y221124D01*
X195703D02*
X195178Y221649D01*
X194129D01*
X193604Y221124D01*
Y220599D01*
X194129Y220074D01*
X193604Y219549D01*
Y219025D01*
X194129Y218500D01*
X195178D01*
X195703Y219025D01*
Y219549D01*
X195178Y220074D01*
X195703Y220599D01*
Y221124D01*
X195178Y220074D02*
X194129D01*
X201400Y240300D02*
Y243449D01*
X199826D01*
X199301Y242924D01*
Y241874D01*
X199826Y241350D01*
X201400D01*
X200350D02*
X199301Y240300D01*
X196152D02*
X198251D01*
X196152Y242399D01*
Y242924D01*
X196677Y243449D01*
X197727D01*
X198251Y242924D01*
X195103D02*
X194578Y243449D01*
X193528D01*
X193004Y242924D01*
Y242399D01*
X193528Y241874D01*
X193004Y241350D01*
Y240825D01*
X193528Y240300D01*
X194578D01*
X195103Y240825D01*
Y241350D01*
X194578Y241874D01*
X195103Y242399D01*
Y242924D01*
X194578Y241874D02*
X193528D01*
X199301Y261224D02*
X199826Y261749D01*
X200875D01*
X201400Y261224D01*
Y259125D01*
X200875Y258600D01*
X199826D01*
X199301Y259125D01*
X198251Y261224D02*
X197727Y261749D01*
X196677D01*
X196152Y261224D01*
Y260699D01*
X196677Y260174D01*
X197202D01*
X196677D01*
X196152Y259649D01*
Y259125D01*
X196677Y258600D01*
X197727D01*
X198251Y259125D01*
X193004Y258600D02*
X195103D01*
X193004Y260699D01*
Y261224D01*
X193528Y261749D01*
X194578D01*
X195103Y261224D01*
X375300Y277249D02*
Y274625D01*
X374775Y274100D01*
X373726D01*
X373201Y274625D01*
Y277249D01*
X372151Y274100D02*
X371102D01*
X371627D01*
Y277249D01*
X372151Y276724D01*
X369528D02*
X369003Y277249D01*
X367953D01*
X367428Y276724D01*
Y274625D01*
X367953Y274100D01*
X369003D01*
X369528Y274625D01*
Y276724D01*
X178800Y277249D02*
Y274625D01*
X178275Y274100D01*
X177226D01*
X176701Y274625D01*
Y277249D01*
X175651Y274100D02*
X174602D01*
X175127D01*
Y277249D01*
X175651Y276724D01*
X173028Y274100D02*
X171978D01*
X172503D01*
Y277249D01*
X173028Y276724D01*
X278800Y277249D02*
Y274625D01*
X278275Y274100D01*
X277226D01*
X276701Y274625D01*
Y277249D01*
X275651D02*
X273552D01*
Y276724D01*
X275651Y274625D01*
Y274100D01*
X298901Y221124D02*
X299426Y221649D01*
X300475D01*
X301000Y221124D01*
Y219025D01*
X300475Y218500D01*
X299426D01*
X298901Y219025D01*
X295752Y218500D02*
X297851D01*
X295752Y220599D01*
Y221124D01*
X296277Y221649D01*
X297327D01*
X297851Y221124D01*
X294703D02*
X294178Y221649D01*
X293128D01*
X292604Y221124D01*
Y219025D01*
X293128Y218500D01*
X294178D01*
X294703Y219025D01*
Y221124D01*
X300900Y240800D02*
Y243949D01*
X299326D01*
X298801Y243424D01*
Y242374D01*
X299326Y241849D01*
X300900D01*
X299851D02*
X298801Y240800D01*
X295652D02*
X297751D01*
X295652Y242899D01*
Y243424D01*
X296177Y243949D01*
X297227D01*
X297751Y243424D01*
X294603D02*
X294078Y243949D01*
X293028D01*
X292504Y243424D01*
Y241325D01*
X293028Y240800D01*
X294078D01*
X294603Y241325D01*
Y243424D01*
X298801Y261724D02*
X299326Y262249D01*
X300375D01*
X300900Y261724D01*
Y259625D01*
X300375Y259100D01*
X299326D01*
X298801Y259625D01*
X295652Y259100D02*
X297751D01*
X295652Y261199D01*
Y261724D01*
X296177Y262249D01*
X297227D01*
X297751Y261724D01*
X293028Y259100D02*
Y262249D01*
X294603Y260674D01*
X292504D01*
X315500Y218500D02*
Y221649D01*
X313926D01*
X313401Y221124D01*
Y220074D01*
X313926Y219549D01*
X315500D01*
X314451D02*
X313401Y218500D01*
X310252D02*
X312351D01*
X310252Y220599D01*
Y221124D01*
X310777Y221649D01*
X311827D01*
X312351Y221124D01*
X307104Y221649D02*
X309203D01*
Y220074D01*
X308153Y220599D01*
X307628D01*
X307104Y220074D01*
Y219025D01*
X307628Y218500D01*
X308678D01*
X309203Y219025D01*
X314301Y243424D02*
X314826Y243949D01*
X315875D01*
X316400Y243424D01*
Y241325D01*
X315875Y240800D01*
X314826D01*
X314301Y241325D01*
X311152Y240800D02*
X313251D01*
X311152Y242899D01*
Y243424D01*
X311677Y243949D01*
X312727D01*
X313251Y243424D01*
X308004Y243949D02*
X310103D01*
Y242374D01*
X309053Y242899D01*
X308528D01*
X308004Y242374D01*
Y241325D01*
X308528Y240800D01*
X309578D01*
X310103Y241325D01*
X314301Y261724D02*
X314826Y262249D01*
X315875D01*
X316400Y261724D01*
Y259625D01*
X315875Y259100D01*
X314826D01*
X314301Y259625D01*
X311152Y259100D02*
X313251D01*
X311152Y261199D01*
Y261724D01*
X311677Y262249D01*
X312727D01*
X313251Y261724D01*
X310103Y259625D02*
X309578Y259100D01*
X308528D01*
X308004Y259625D01*
Y261724D01*
X308528Y262249D01*
X309578D01*
X310103Y261724D01*
Y261199D01*
X309578Y260674D01*
X308004D01*
X393901Y220124D02*
X394426Y220649D01*
X395475D01*
X396000Y220124D01*
Y218025D01*
X395475Y217500D01*
X394426D01*
X393901Y218025D01*
X392851Y220124D02*
X392327Y220649D01*
X391277D01*
X390752Y220124D01*
Y219599D01*
X391277Y219074D01*
X391802D01*
X391277D01*
X390752Y218549D01*
Y218025D01*
X391277Y217500D01*
X392327D01*
X392851Y218025D01*
X389703Y220124D02*
X389178Y220649D01*
X388128D01*
X387604Y220124D01*
Y218025D01*
X388128Y217500D01*
X389178D01*
X389703Y218025D01*
Y220124D01*
X397400Y239800D02*
Y242949D01*
X395826D01*
X395301Y242424D01*
Y241374D01*
X395826Y240849D01*
X397400D01*
X396351D02*
X395301Y239800D01*
X392152D02*
X394251D01*
X392152Y241899D01*
Y242424D01*
X392677Y242949D01*
X393727D01*
X394251Y242424D01*
X389004Y242949D02*
X390053Y242424D01*
X391103Y241374D01*
Y240325D01*
X390578Y239800D01*
X389528D01*
X389004Y240325D01*
Y240849D01*
X389528Y241374D01*
X391103D01*
X395301Y260724D02*
X395826Y261249D01*
X396875D01*
X397400Y260724D01*
Y258625D01*
X396875Y258100D01*
X395826D01*
X395301Y258625D01*
X392152Y258100D02*
X394251D01*
X392152Y260199D01*
Y260724D01*
X392677Y261249D01*
X393727D01*
X394251Y260724D01*
X389004Y261249D02*
X390053Y260724D01*
X391103Y259674D01*
Y258625D01*
X390578Y258100D01*
X389528D01*
X389004Y258625D01*
Y259150D01*
X389528Y259674D01*
X391103D01*
X117500Y218500D02*
Y221649D01*
X115926D01*
X115401Y221124D01*
Y220074D01*
X115926Y219549D01*
X117500D01*
X116451D02*
X115401Y218500D01*
X112252D02*
X114351D01*
X112252Y220599D01*
Y221124D01*
X112777Y221649D01*
X113827D01*
X114351Y221124D01*
X111203Y221649D02*
X109104D01*
Y221124D01*
X111203Y219025D01*
Y218500D01*
X220000Y217500D02*
Y220649D01*
X218426D01*
X217901Y220124D01*
Y219074D01*
X218426Y218549D01*
X220000D01*
X218951D02*
X217901Y217500D01*
X216851D02*
X215802D01*
X216327D01*
Y220649D01*
X216851Y220124D01*
X214228Y218025D02*
X213703Y217500D01*
X212653D01*
X212128Y218025D01*
Y220124D01*
X212653Y220649D01*
X213703D01*
X214228Y220124D01*
Y219599D01*
X213703Y219074D01*
X212128D01*
X115801Y242424D02*
X116326Y242949D01*
X117375D01*
X117900Y242424D01*
Y240325D01*
X117375Y239800D01*
X116326D01*
X115801Y240325D01*
X114751Y242424D02*
X114227Y242949D01*
X113177D01*
X112652Y242424D01*
Y241899D01*
X113177Y241374D01*
X113702D01*
X113177D01*
X112652Y240849D01*
Y240325D01*
X113177Y239800D01*
X114227D01*
X114751Y240325D01*
X111603Y239800D02*
X110553D01*
X111078D01*
Y242949D01*
X111603Y242424D01*
X115801Y260724D02*
X116326Y261249D01*
X117375D01*
X117900Y260724D01*
Y258625D01*
X117375Y258100D01*
X116326D01*
X115801Y258625D01*
X112652Y258100D02*
X114751D01*
X112652Y260199D01*
Y260724D01*
X113177Y261249D01*
X114227D01*
X114751Y260724D01*
X111603Y261249D02*
X109504D01*
Y260724D01*
X111603Y258625D01*
Y258100D01*
X218301Y242424D02*
X218826Y242949D01*
X219875D01*
X220400Y242424D01*
Y240325D01*
X219875Y239800D01*
X218826D01*
X218301Y240325D01*
X215152Y239800D02*
X217251D01*
X215152Y241899D01*
Y242424D01*
X215677Y242949D01*
X216727D01*
X217251Y242424D01*
X214103D02*
X213578Y242949D01*
X212528D01*
X212004Y242424D01*
Y241899D01*
X212528Y241374D01*
X213053D01*
X212528D01*
X212004Y240849D01*
Y240325D01*
X212528Y239800D01*
X213578D01*
X214103Y240325D01*
X218301Y260724D02*
X218826Y261249D01*
X219875D01*
X220400Y260724D01*
Y258625D01*
X219875Y258100D01*
X218826D01*
X218301Y258625D01*
X217251Y258100D02*
X216202D01*
X216727D01*
Y261249D01*
X217251Y260724D01*
X214628Y258625D02*
X214103Y258100D01*
X213053D01*
X212528Y258625D01*
Y260724D01*
X213053Y261249D01*
X214103D01*
X214628Y260724D01*
Y260199D01*
X214103Y259674D01*
X212528D01*
X64000Y275649D02*
Y273025D01*
X63475Y272500D01*
X62426D01*
X61901Y273025D01*
Y275649D01*
X58752D02*
X59802Y275124D01*
X60851Y274074D01*
Y273025D01*
X60327Y272500D01*
X59277D01*
X58752Y273025D01*
Y273550D01*
X59277Y274074D01*
X60851D01*
X99401Y273624D02*
X99926Y274149D01*
X100975D01*
X101500Y273624D01*
Y271525D01*
X100975Y271000D01*
X99926D01*
X99401Y271525D01*
X96252Y271000D02*
X98351D01*
X96252Y273099D01*
Y273624D01*
X96777Y274149D01*
X97827D01*
X98351Y273624D01*
X93104Y271000D02*
X95203D01*
X93104Y273099D01*
Y273624D01*
X93629Y274149D01*
X94678D01*
X95203Y273624D01*
X100000Y249500D02*
Y252649D01*
X98426D01*
X97901Y252124D01*
Y251074D01*
X98426Y250550D01*
X100000D01*
X98950D02*
X97901Y249500D01*
X96851D02*
X95802D01*
X96327D01*
Y252649D01*
X96851Y252124D01*
X94228D02*
X93703Y252649D01*
X92653D01*
X92128Y252124D01*
Y251599D01*
X92653Y251074D01*
X92128Y250550D01*
Y250025D01*
X92653Y249500D01*
X93703D01*
X94228Y250025D01*
Y250550D01*
X93703Y251074D01*
X94228Y251599D01*
Y252124D01*
X93703Y251074D02*
X92653D01*
X98901Y232624D02*
X99426Y233149D01*
X100475D01*
X101000Y232624D01*
Y230525D01*
X100475Y230000D01*
X99426D01*
X98901Y230525D01*
X97851Y230000D02*
X96802D01*
X97327D01*
Y233149D01*
X97851Y232624D01*
X95228D02*
X94703Y233149D01*
X93653D01*
X93129Y232624D01*
Y232099D01*
X93653Y231574D01*
X93129Y231049D01*
Y230525D01*
X93653Y230000D01*
X94703D01*
X95228Y230525D01*
Y231049D01*
X94703Y231574D01*
X95228Y232099D01*
Y232624D01*
X94703Y231574D02*
X93653D01*
X14401Y252124D02*
X14926Y252649D01*
X15975D01*
X16500Y252124D01*
Y250025D01*
X15975Y249500D01*
X14926D01*
X14401Y250025D01*
X13351Y249500D02*
X12302D01*
X12827D01*
Y252649D01*
X13351Y252124D01*
X10728Y252649D02*
X8629D01*
Y252124D01*
X10728Y250025D01*
Y249500D01*
X16401Y242124D02*
X16926Y242649D01*
X17975D01*
X18500Y242124D01*
Y240025D01*
X17975Y239500D01*
X16926D01*
X16401Y240025D01*
X13252Y239500D02*
X15351D01*
X13252Y241599D01*
Y242124D01*
X13777Y242649D01*
X14827D01*
X15351Y242124D01*
X12203Y239500D02*
X11153D01*
X11678D01*
Y242649D01*
X12203Y242124D01*
X17500Y230000D02*
Y233149D01*
X15926D01*
X15401Y232624D01*
Y231574D01*
X15926Y231049D01*
X17500D01*
X16451D02*
X15401Y230000D01*
X14351D02*
X13302D01*
X13827D01*
Y233149D01*
X14351Y232624D01*
X11728Y233149D02*
X9629D01*
Y232624D01*
X11728Y230525D01*
Y230000D01*
X4401Y220025D02*
Y222124D01*
X4926Y222649D01*
X5975D01*
X6500Y222124D01*
Y220025D01*
X5975Y219500D01*
X4926D01*
X5451Y220550D02*
X4401Y219500D01*
X4926D02*
X4401Y220025D01*
X3351Y219500D02*
X2302D01*
X2827D01*
Y222649D01*
X3351Y222124D01*
X34500Y217000D02*
Y220149D01*
X32926D01*
X32401Y219624D01*
Y218574D01*
X32926Y218050D01*
X34500D01*
X33450D02*
X32401Y217000D01*
X29252Y220149D02*
X31351D01*
Y218574D01*
X30302Y219099D01*
X29777D01*
X29252Y218574D01*
Y217525D01*
X29777Y217000D01*
X30827D01*
X31351Y217525D01*
X57500Y206000D02*
Y209149D01*
X55926D01*
X55401Y208624D01*
Y207574D01*
X55926Y207049D01*
X57500D01*
X56450D02*
X55401Y206000D01*
X52252Y209149D02*
X53302Y208624D01*
X54351Y207574D01*
Y206525D01*
X53827Y206000D01*
X52777D01*
X52252Y206525D01*
Y207049D01*
X52777Y207574D01*
X54351D01*
X46500Y99500D02*
Y102649D01*
X44926D01*
X44401Y102124D01*
Y101074D01*
X44926Y100549D01*
X46500D01*
X45450D02*
X44401Y99500D01*
X41777D02*
Y102649D01*
X43351Y101074D01*
X41252D01*
X38104Y102649D02*
X40203D01*
Y101074D01*
X39153Y101599D01*
X38629D01*
X38104Y101074D01*
Y100025D01*
X38629Y99500D01*
X39678D01*
X40203Y100025D01*
X46200Y91000D02*
Y94149D01*
X44626D01*
X44101Y93624D01*
Y92574D01*
X44626Y92049D01*
X46200D01*
X45151D02*
X44101Y91000D01*
X41477D02*
Y94149D01*
X43051Y92574D01*
X40952D01*
X39903Y94149D02*
X37804D01*
Y93624D01*
X39903Y91525D01*
Y91000D01*
X46200Y80500D02*
Y83649D01*
X44626D01*
X44101Y83124D01*
Y82074D01*
X44626Y81550D01*
X46200D01*
X45151D02*
X44101Y80500D01*
X41477D02*
Y83649D01*
X43051Y82074D01*
X40952D01*
X39903Y83124D02*
X39378Y83649D01*
X38328D01*
X37804Y83124D01*
Y82599D01*
X38328Y82074D01*
X37804Y81550D01*
Y81025D01*
X38328Y80500D01*
X39378D01*
X39903Y81025D01*
Y81550D01*
X39378Y82074D01*
X39903Y82599D01*
Y83124D01*
X39378Y82074D02*
X38328D01*
X46200Y70500D02*
Y73649D01*
X44626D01*
X44101Y73124D01*
Y72074D01*
X44626Y71549D01*
X46200D01*
X45151D02*
X44101Y70500D01*
X41477D02*
Y73649D01*
X43051Y72074D01*
X40952D01*
X39903Y71025D02*
X39378Y70500D01*
X38328D01*
X37804Y71025D01*
Y73124D01*
X38328Y73649D01*
X39378D01*
X39903Y73124D01*
Y72599D01*
X39378Y72074D01*
X37804D01*
X146000Y100000D02*
Y103149D01*
X144426D01*
X143901Y102624D01*
Y101574D01*
X144426Y101049D01*
X146000D01*
X144950D02*
X143901Y100000D01*
X140752Y103149D02*
X142851D01*
Y101574D01*
X141802Y102099D01*
X141277D01*
X140752Y101574D01*
Y100525D01*
X141277Y100000D01*
X142327D01*
X142851Y100525D01*
X139703Y102624D02*
X139178Y103149D01*
X138128D01*
X137604Y102624D01*
Y102099D01*
X138128Y101574D01*
X138653D01*
X138128D01*
X137604Y101049D01*
Y100525D01*
X138128Y100000D01*
X139178D01*
X139703Y100525D01*
X146000Y91000D02*
Y94149D01*
X144426D01*
X143901Y93624D01*
Y92574D01*
X144426Y92049D01*
X146000D01*
X144950D02*
X143901Y91000D01*
X140752Y94149D02*
X142851D01*
Y92574D01*
X141802Y93099D01*
X141277D01*
X140752Y92574D01*
Y91525D01*
X141277Y91000D01*
X142327D01*
X142851Y91525D01*
X137604Y94149D02*
X139703D01*
Y92574D01*
X138653Y93099D01*
X138128D01*
X137604Y92574D01*
Y91525D01*
X138128Y91000D01*
X139178D01*
X139703Y91525D01*
X145500Y80500D02*
Y83649D01*
X143926D01*
X143401Y83124D01*
Y82074D01*
X143926Y81550D01*
X145500D01*
X144450D02*
X143401Y80500D01*
X140252Y83649D02*
X142351D01*
Y82074D01*
X141302Y82599D01*
X140777D01*
X140252Y82074D01*
Y81025D01*
X140777Y80500D01*
X141827D01*
X142351Y81025D01*
X139203Y83649D02*
X137104D01*
Y83124D01*
X139203Y81025D01*
Y80500D01*
X146000Y70500D02*
Y73649D01*
X144426D01*
X143901Y73124D01*
Y72074D01*
X144426Y71549D01*
X146000D01*
X144950D02*
X143901Y70500D01*
X140752Y73649D02*
X142851D01*
Y72074D01*
X141802Y72599D01*
X141277D01*
X140752Y72074D01*
Y71025D01*
X141277Y70500D01*
X142327D01*
X142851Y71025D01*
X139703Y73124D02*
X139178Y73649D01*
X138128D01*
X137604Y73124D01*
Y72599D01*
X138128Y72074D01*
X137604Y71549D01*
Y71025D01*
X138128Y70500D01*
X139178D01*
X139703Y71025D01*
Y71549D01*
X139178Y72074D01*
X139703Y72599D01*
Y73124D01*
X139178Y72074D02*
X138128D01*
X240000Y100500D02*
Y103649D01*
X238426D01*
X237901Y103124D01*
Y102074D01*
X238426Y101549D01*
X240000D01*
X238950D02*
X237901Y100500D01*
X234752Y103649D02*
X235802Y103124D01*
X236851Y102074D01*
Y101025D01*
X236327Y100500D01*
X235277D01*
X234752Y101025D01*
Y101549D01*
X235277Y102074D01*
X236851D01*
X231604Y100500D02*
X233703D01*
X231604Y102599D01*
Y103124D01*
X232129Y103649D01*
X233178D01*
X233703Y103124D01*
X239000Y91000D02*
Y94149D01*
X237426D01*
X236901Y93624D01*
Y92574D01*
X237426Y92049D01*
X239000D01*
X237950D02*
X236901Y91000D01*
X233752Y94149D02*
X234802Y93624D01*
X235851Y92574D01*
Y91525D01*
X235327Y91000D01*
X234277D01*
X233752Y91525D01*
Y92049D01*
X234277Y92574D01*
X235851D01*
X231129Y91000D02*
Y94149D01*
X232703Y92574D01*
X230604D01*
X239500Y81000D02*
Y84149D01*
X237926D01*
X237401Y83624D01*
Y82574D01*
X237926Y82050D01*
X239500D01*
X238451D02*
X237401Y81000D01*
X234252Y84149D02*
X235302Y83624D01*
X236351Y82574D01*
Y81525D01*
X235827Y81000D01*
X234777D01*
X234252Y81525D01*
Y82050D01*
X234777Y82574D01*
X236351D01*
X231104Y84149D02*
X233203D01*
Y82574D01*
X232153Y83099D01*
X231628D01*
X231104Y82574D01*
Y81525D01*
X231628Y81000D01*
X232678D01*
X233203Y81525D01*
X239500Y69500D02*
Y72649D01*
X237926D01*
X237401Y72124D01*
Y71074D01*
X237926Y70549D01*
X239500D01*
X238451D02*
X237401Y69500D01*
X234252Y72649D02*
X235302Y72124D01*
X236351Y71074D01*
Y70025D01*
X235827Y69500D01*
X234777D01*
X234252Y70025D01*
Y70549D01*
X234777Y71074D01*
X236351D01*
X231104Y72649D02*
X232153Y72124D01*
X233203Y71074D01*
Y70025D01*
X232678Y69500D01*
X231628D01*
X231104Y70025D01*
Y70549D01*
X231628Y71074D01*
X233203D01*
X332000Y100500D02*
Y103649D01*
X330426D01*
X329901Y103124D01*
Y102074D01*
X330426Y101549D01*
X332000D01*
X330950D02*
X329901Y100500D01*
X326752Y103649D02*
X327802Y103124D01*
X328851Y102074D01*
Y101025D01*
X328327Y100500D01*
X327277D01*
X326752Y101025D01*
Y101549D01*
X327277Y102074D01*
X328851D01*
X325703Y103124D02*
X325178Y103649D01*
X324129D01*
X323604Y103124D01*
Y102599D01*
X324129Y102074D01*
X323604Y101549D01*
Y101025D01*
X324129Y100500D01*
X325178D01*
X325703Y101025D01*
Y101549D01*
X325178Y102074D01*
X325703Y102599D01*
Y103124D01*
X325178Y102074D02*
X324129D01*
X332500Y91500D02*
Y94649D01*
X330926D01*
X330401Y94124D01*
Y93074D01*
X330926Y92550D01*
X332500D01*
X331451D02*
X330401Y91500D01*
X329351Y94649D02*
X327252D01*
Y94124D01*
X329351Y92025D01*
Y91500D01*
X326203Y94124D02*
X325678Y94649D01*
X324628D01*
X324104Y94124D01*
Y92025D01*
X324628Y91500D01*
X325678D01*
X326203Y92025D01*
Y94124D01*
X332500Y80500D02*
Y83649D01*
X330926D01*
X330401Y83124D01*
Y82074D01*
X330926Y81550D01*
X332500D01*
X331451D02*
X330401Y80500D01*
X329351Y83649D02*
X327252D01*
Y83124D01*
X329351Y81025D01*
Y80500D01*
X324104D02*
X326203D01*
X324104Y82599D01*
Y83124D01*
X324628Y83649D01*
X325678D01*
X326203Y83124D01*
X333000Y70500D02*
Y73649D01*
X331426D01*
X330901Y73124D01*
Y72074D01*
X331426Y71549D01*
X333000D01*
X331950D02*
X330901Y70500D01*
X329851Y73649D02*
X327752D01*
Y73124D01*
X329851Y71025D01*
Y70500D01*
X325129D02*
Y73649D01*
X326703Y72074D01*
X324604D01*
X67000Y162000D02*
Y165149D01*
X65426D01*
X64901Y164624D01*
Y163574D01*
X65426Y163049D01*
X67000D01*
X65951D02*
X64901Y162000D01*
X63851D02*
X62802D01*
X63327D01*
Y165149D01*
X63851Y164624D01*
X59128Y162000D02*
X61228D01*
X59128Y164099D01*
Y164624D01*
X59653Y165149D01*
X60703D01*
X61228Y164624D01*
X10600Y144400D02*
Y147549D01*
X9026D01*
X8501Y147024D01*
Y145974D01*
X9026Y145449D01*
X10600D01*
X9550D02*
X8501Y144400D01*
X7451Y147549D02*
X5352D01*
Y147024D01*
X7451Y144925D01*
Y144400D01*
X114500Y202649D02*
Y199500D01*
X112926D01*
X112401Y200025D01*
Y202124D01*
X112926Y202649D01*
X114500D01*
X111351Y199500D02*
X110302D01*
X110827D01*
Y202649D01*
X111351Y202124D01*
X92700Y200249D02*
Y197625D01*
X92175Y197100D01*
X91126D01*
X90601Y197625D01*
Y200249D01*
X87452D02*
X89551D01*
Y198674D01*
X88502Y199199D01*
X87977D01*
X87452Y198674D01*
Y197625D01*
X87977Y197100D01*
X89027D01*
X89551Y197625D01*
X125901Y193624D02*
X126426Y194149D01*
X127475D01*
X128000Y193624D01*
Y191525D01*
X127475Y191000D01*
X126426D01*
X125901Y191525D01*
X124851Y191000D02*
X123802D01*
X124327D01*
Y194149D01*
X124851Y193624D01*
X120129Y194149D02*
X121178Y193624D01*
X122228Y192574D01*
Y191525D01*
X121703Y191000D01*
X120653D01*
X120129Y191525D01*
Y192050D01*
X120653Y192574D01*
X122228D01*
X167401Y60124D02*
X167926Y60649D01*
X168975D01*
X169500Y60124D01*
Y58025D01*
X168975Y57500D01*
X167926D01*
X167401Y58025D01*
X166351Y57500D02*
X165302D01*
X165827D01*
Y60649D01*
X166351Y60124D01*
X163728D02*
X163203Y60649D01*
X162153D01*
X161628Y60124D01*
Y58025D01*
X162153Y57500D01*
X163203D01*
X163728Y58025D01*
Y60124D01*
X169500Y76649D02*
Y74025D01*
X168975Y73500D01*
X167926D01*
X167401Y74025D01*
Y76649D01*
X164252Y73500D02*
X166351D01*
X164252Y75599D01*
Y76124D01*
X164777Y76649D01*
X165827D01*
X166351Y76124D01*
X287500Y134000D02*
Y137149D01*
X285926D01*
X285401Y136624D01*
Y135574D01*
X285926Y135049D01*
X287500D01*
X286451D02*
X285401Y134000D01*
X284351D02*
X283302D01*
X283827D01*
Y137149D01*
X284351Y136624D01*
X201200Y66500D02*
Y69649D01*
X199626D01*
X199101Y69124D01*
Y68074D01*
X199626Y67550D01*
X201200D01*
X200150D02*
X199101Y66500D01*
X196477D02*
Y69649D01*
X198051Y68074D01*
X195952D01*
X208500Y125500D02*
Y128649D01*
X206926D01*
X206401Y128124D01*
Y127074D01*
X206926Y126549D01*
X208500D01*
X207451D02*
X206401Y125500D01*
X205351Y128124D02*
X204827Y128649D01*
X203777D01*
X203252Y128124D01*
Y127599D01*
X203777Y127074D01*
X204302D01*
X203777D01*
X203252Y126549D01*
Y126025D01*
X203777Y125500D01*
X204827D01*
X205351Y126025D01*
X181000Y135000D02*
Y138149D01*
X179426D01*
X178901Y137624D01*
Y136574D01*
X179426Y136049D01*
X181000D01*
X179950D02*
X178901Y135000D01*
X175752D02*
X177851D01*
X175752Y137099D01*
Y137624D01*
X176277Y138149D01*
X177327D01*
X177851Y137624D01*
X199401Y59124D02*
X199926Y59649D01*
X200975D01*
X201500Y59124D01*
Y57025D01*
X200975Y56500D01*
X199926D01*
X199401Y57025D01*
X198351Y56500D02*
X197302D01*
X197827D01*
Y59649D01*
X198351Y59124D01*
X195728Y56500D02*
X194678D01*
X195203D01*
Y59649D01*
X195728Y59124D01*
X274401Y137624D02*
X274926Y138149D01*
X275975D01*
X276500Y137624D01*
Y135525D01*
X275975Y135000D01*
X274926D01*
X274401Y135525D01*
X273351Y135000D02*
X272302D01*
X272827D01*
Y138149D01*
X273351Y137624D01*
X132901Y121124D02*
X133426Y121649D01*
X134475D01*
X135000Y121124D01*
Y119025D01*
X134475Y118500D01*
X133426D01*
X132901Y119025D01*
X131851D02*
X131327Y118500D01*
X130277D01*
X129752Y119025D01*
Y121124D01*
X130277Y121649D01*
X131327D01*
X131851Y121124D01*
Y120599D01*
X131327Y120074D01*
X129752D01*
X262401Y125624D02*
X262926Y126149D01*
X263975D01*
X264500Y125624D01*
Y123525D01*
X263975Y123000D01*
X262926D01*
X262401Y123525D01*
X261351Y125624D02*
X260827Y126149D01*
X259777D01*
X259252Y125624D01*
Y125099D01*
X259777Y124574D01*
X260302D01*
X259777D01*
X259252Y124049D01*
Y123525D01*
X259777Y123000D01*
X260827D01*
X261351Y123525D01*
X236401Y125624D02*
X236926Y126149D01*
X237975D01*
X238500Y125624D01*
Y123525D01*
X237975Y123000D01*
X236926D01*
X236401Y123525D01*
X233252Y123000D02*
X235351D01*
X233252Y125099D01*
Y125624D01*
X233777Y126149D01*
X234827D01*
X235351Y125624D01*
X49600Y168600D02*
Y171749D01*
X48026D01*
X47501Y171224D01*
Y170174D01*
X48026Y169650D01*
X49600D01*
X48551D02*
X47501Y168600D01*
X46451Y171224D02*
X45927Y171749D01*
X44877D01*
X44352Y171224D01*
Y170699D01*
X44877Y170174D01*
X44352Y169650D01*
Y169125D01*
X44877Y168600D01*
X45927D01*
X46451Y169125D01*
Y169650D01*
X45927Y170174D01*
X46451Y170699D01*
Y171224D01*
X45927Y170174D02*
X44877D01*
X19101Y146624D02*
X19626Y147149D01*
X20675D01*
X21200Y146624D01*
Y144525D01*
X20675Y144000D01*
X19626D01*
X19101Y144525D01*
X18051Y144000D02*
X17002D01*
X17527D01*
Y147149D01*
X18051Y146624D01*
X15428D02*
X14903Y147149D01*
X13853D01*
X13329Y146624D01*
Y146099D01*
X13853Y145574D01*
X14378D01*
X13853D01*
X13329Y145050D01*
Y144525D01*
X13853Y144000D01*
X14903D01*
X15428Y144525D01*
X108901Y159124D02*
X109426Y159649D01*
X110475D01*
X111000Y159124D01*
Y157025D01*
X110475Y156500D01*
X109426D01*
X108901Y157025D01*
X107851Y156500D02*
X106802D01*
X107327D01*
Y159649D01*
X107851Y159124D01*
X103129Y159649D02*
X105228D01*
Y158074D01*
X104178Y158599D01*
X103653D01*
X103129Y158074D01*
Y157025D01*
X103653Y156500D01*
X104703D01*
X105228Y157025D01*
X37100Y168700D02*
Y171849D01*
X35526D01*
X35001Y171324D01*
Y170274D01*
X35526Y169749D01*
X37100D01*
X36051D02*
X35001Y168700D01*
X33951Y169225D02*
X33427Y168700D01*
X32377D01*
X31852Y169225D01*
Y171324D01*
X32377Y171849D01*
X33427D01*
X33951Y171324D01*
Y170799D01*
X33427Y170274D01*
X31852D01*
X61600Y168600D02*
Y171749D01*
X60026D01*
X59501Y171224D01*
Y170174D01*
X60026Y169650D01*
X61600D01*
X60550D02*
X59501Y168600D01*
X58451D02*
X57402D01*
X57927D01*
Y171749D01*
X58451Y171224D01*
X55828D02*
X55303Y171749D01*
X54253D01*
X53728Y171224D01*
Y169125D01*
X54253Y168600D01*
X55303D01*
X55828Y169125D01*
Y171224D01*
X81000Y145000D02*
Y148149D01*
X79426D01*
X78901Y147624D01*
Y146574D01*
X79426Y146049D01*
X81000D01*
X79950D02*
X78901Y145000D01*
X77851D02*
X76802D01*
X77327D01*
Y148149D01*
X77851Y147624D01*
X75228Y145000D02*
X74178D01*
X74703D01*
Y148149D01*
X75228Y147624D01*
X295901Y136124D02*
X296426Y136649D01*
X297475D01*
X298000Y136124D01*
Y134025D01*
X297475Y133500D01*
X296426D01*
X295901Y134025D01*
X294851Y136649D02*
X292752D01*
Y136124D01*
X294851Y134025D01*
Y133500D01*
D54*
X345807Y222847D02*
G03*
X345807Y222847I-1181J0D01*
G01*
X149307D02*
G03*
X149307Y222847I-1181J0D01*
G01*
X249307D02*
G03*
X249307Y222847I-1181J0D01*
G01*
X49807Y222346D02*
G03*
X49807Y222346I-1181J0D01*
G01*
X184118Y115232D02*
G03*
X184118Y115232I-1181J0D01*
G01*
D55*
X273594Y182555D02*
G03*
X273594Y182555I-492J0D01*
G01*
X335079Y218653D02*
G03*
X335079Y218653I-492J0D01*
G01*
X138579D02*
G03*
X138579Y218653I-492J0D01*
G01*
X238579D02*
G03*
X238579Y218653I-492J0D01*
G01*
X39079Y218154D02*
G03*
X39079Y218154I-492J0D01*
G01*
X5646Y211343D02*
G03*
X5646Y211343I-492J0D01*
G01*
X193075Y117988D02*
G03*
X193075Y117988I-492J0D01*
G01*
X88441Y193347D02*
G03*
X88441Y193347I-492J0D01*
G01*
D57*
X29276Y196760D02*
X38724D01*
X29276D02*
Y215657D01*
X38724D01*
Y196760D02*
Y215657D01*
X41276Y215449D02*
X50724D01*
Y196551D02*
Y215449D01*
X41276Y196551D02*
X50724D01*
X41276D02*
Y215449D01*
X4276Y178949D02*
X13724D01*
Y160051D02*
Y178949D01*
X4276Y160051D02*
X13724D01*
X4276D02*
Y178949D01*
X51224Y174260D02*
Y193157D01*
X41776D02*
X51224D01*
X41776Y174260D02*
Y193157D01*
Y174260D02*
X51224D01*
X15669Y160445D02*
X24331D01*
X15669Y178555D02*
X24331D01*
X15669Y160445D02*
Y178555D01*
X24331Y160445D02*
Y178555D01*
X38724Y174343D02*
Y193240D01*
X29276D02*
X38724D01*
X29276Y174343D02*
Y193240D01*
Y174343D02*
X38724D01*
X63224Y174260D02*
Y193157D01*
X53776D02*
X63224D01*
X53776Y174260D02*
Y193157D01*
Y174260D02*
X63224D01*
X69842Y158724D02*
X88740D01*
X69842Y149276D02*
Y158724D01*
Y149276D02*
X88740D01*
Y158724D01*
X70051Y160776D02*
Y170224D01*
X88949D01*
Y160776D02*
Y170224D01*
X70051Y160776D02*
X88949D01*
X111555Y161169D02*
Y169831D01*
X93445Y161169D02*
Y169831D01*
Y161169D02*
X111555D01*
X93445Y169831D02*
X111555D01*
D59*
X112000Y192000D02*
Y196000D01*
X109500D02*
X112000D01*
Y175000D02*
Y192000D01*
X109500D02*
X112000D01*
X109500D02*
Y196000D01*
Y175000D02*
X112000D01*
X96000D02*
X98500D01*
Y192000D02*
Y196000D01*
X96000Y192000D02*
X98500D01*
X96000Y175000D02*
Y192000D01*
Y196000D02*
X98500D01*
X96000Y192000D02*
Y196000D01*
D60*
X372437Y183020D02*
Y197980D01*
X364563D02*
X372437D01*
X364563Y183020D02*
Y197980D01*
Y183020D02*
X372437D01*
X342437D02*
Y197980D01*
X334563D02*
X342437D01*
X334563Y183020D02*
Y197980D01*
Y183020D02*
X342437D01*
X382437D02*
Y197980D01*
X374563D02*
X382437D01*
X374563Y183020D02*
Y197980D01*
Y183020D02*
X382437D01*
X362437D02*
Y197980D01*
X354563D02*
X362437D01*
X354563Y183020D02*
Y197980D01*
Y183020D02*
X362437D01*
X352937D02*
Y197980D01*
X345063D02*
X352937D01*
X345063Y183020D02*
Y197980D01*
Y183020D02*
X352937D01*
X332437D02*
Y197980D01*
X324563D02*
X332437D01*
X324563Y183020D02*
Y197980D01*
Y183020D02*
X332437D01*
X322437D02*
Y197980D01*
X314563D02*
X322437D01*
X314563Y183020D02*
Y197980D01*
Y183020D02*
X322437D01*
X312437D02*
Y197980D01*
X304563D02*
X312437D01*
X304563Y183020D02*
Y197980D01*
Y183020D02*
X312437D01*
X294500Y158500D02*
Y161500D01*
X293000Y160000D02*
X296000D01*
X222063Y165520D02*
X229937D01*
X222063D02*
Y180480D01*
X229937D01*
Y165520D02*
Y180480D01*
X181937Y183020D02*
Y197980D01*
X174063D02*
X181937D01*
X174063Y183020D02*
Y197980D01*
Y183020D02*
X181937D01*
X212437D02*
Y197980D01*
X204563D02*
X212437D01*
X204563Y183020D02*
Y197980D01*
Y183020D02*
X212437D01*
X201937D02*
Y197980D01*
X194063D02*
X201937D01*
X194063Y183020D02*
Y197980D01*
Y183020D02*
X201937D01*
X191937D02*
Y197980D01*
X184063D02*
X191937D01*
X184063Y183020D02*
Y197980D01*
Y183020D02*
X191937D01*
X172437D02*
Y197980D01*
X164563D02*
X172437D01*
X164563Y183020D02*
Y197980D01*
Y183020D02*
X172437D01*
X162437D02*
Y197980D01*
X154563D02*
X162437D01*
X154563Y183020D02*
Y197980D01*
Y183020D02*
X162437D01*
X152437D02*
Y197980D01*
X144563D02*
X152437D01*
X144563Y183020D02*
Y197980D01*
Y183020D02*
X152437D01*
X142437D02*
Y197980D01*
X134563D02*
X142437D01*
X134563Y183020D02*
Y197980D01*
Y183020D02*
X142437D01*
X176480Y144563D02*
Y152437D01*
X161520Y144563D02*
X176480D01*
X161520D02*
Y152437D01*
X176480D01*
X143780Y144563D02*
Y152437D01*
X158740D01*
Y144563D02*
Y152437D01*
X143780Y144563D02*
X158740D01*
X141480D02*
Y152437D01*
X126520Y144563D02*
X141480D01*
X126520D02*
Y152437D01*
X141480D01*
X181563Y220020D02*
X189437D01*
X181563D02*
Y234980D01*
X189437D01*
Y220020D02*
Y234980D01*
X181563Y238280D02*
Y253240D01*
Y238280D02*
X189437D01*
Y253240D01*
X181563D02*
X189437D01*
X181563Y271480D02*
X189437D01*
Y256520D02*
Y271480D01*
X181563Y256520D02*
X189437D01*
X181563D02*
Y271480D01*
X281563Y220020D02*
X289437D01*
X281563D02*
Y234980D01*
X289437D01*
Y220020D02*
Y234980D01*
X281563Y238280D02*
Y253240D01*
Y238280D02*
X289437D01*
Y253240D01*
X281563D02*
X289437D01*
X281563Y271480D02*
X289437D01*
Y256520D02*
Y271480D01*
X281563Y256520D02*
X289437D01*
X281563D02*
Y271480D01*
X319063Y220020D02*
Y234980D01*
Y220020D02*
X326937D01*
Y234980D01*
X319063D02*
X326937D01*
X319063Y238280D02*
X326937D01*
X319063D02*
Y253240D01*
X326937D01*
Y238280D02*
Y253240D01*
X319063Y271480D02*
X326937D01*
Y256520D02*
Y271480D01*
X319063Y256520D02*
X326937D01*
X319063D02*
Y271480D01*
X377563Y220020D02*
X385437D01*
X377563D02*
Y234980D01*
X385437D01*
Y220020D02*
Y234980D01*
X377563Y238280D02*
Y253240D01*
Y238280D02*
X385437D01*
Y253240D01*
X377563D02*
X385437D01*
X377563Y271480D02*
X385437D01*
Y256520D02*
Y271480D01*
X377563Y256520D02*
X385437D01*
X377563D02*
Y271480D01*
X120563Y220020D02*
Y234980D01*
Y220020D02*
X128437D01*
Y234980D01*
X120563D02*
X128437D01*
X223063Y220020D02*
Y234980D01*
Y220020D02*
X230937D01*
Y234980D01*
X223063D02*
X230937D01*
X120563Y238280D02*
X128437D01*
X120563D02*
Y253240D01*
X128437D01*
Y238280D02*
Y253240D01*
X120563Y271480D02*
X128437D01*
Y256520D02*
Y271480D01*
X120563Y256520D02*
X128437D01*
X120563D02*
Y271480D01*
X223063Y238280D02*
X230937D01*
X223063D02*
Y253240D01*
X230937D01*
Y238280D02*
Y253240D01*
X223063Y271480D02*
X230937D01*
Y256520D02*
Y271480D01*
X223063Y256520D02*
X230937D01*
X223063D02*
Y271480D01*
X82563D02*
X90437D01*
Y256520D02*
Y271480D01*
X82563Y256520D02*
X90437D01*
X82563D02*
Y271480D01*
Y238280D02*
Y253240D01*
Y238280D02*
X90437D01*
Y253240D01*
X82563D02*
X90437D01*
X82063Y220020D02*
X89937D01*
X82063D02*
Y234980D01*
X89937D01*
Y220020D02*
Y234980D01*
X22063Y271480D02*
X29937D01*
Y256520D02*
Y271480D01*
X22063Y256520D02*
X29937D01*
X22063D02*
Y271480D01*
Y238280D02*
X29937D01*
X22063D02*
Y253240D01*
X29937D01*
Y238280D02*
Y253240D01*
X22063Y220020D02*
Y234980D01*
Y220020D02*
X29937D01*
Y234980D01*
X22063D02*
X29937D01*
X19780Y88563D02*
X34740D01*
Y96437D01*
X19780D02*
X34740D01*
X19780Y88563D02*
Y96437D01*
Y78063D02*
X34740D01*
Y85937D01*
X19780D02*
X34740D01*
X19780Y78063D02*
Y85937D01*
Y68063D02*
X34740D01*
Y75937D01*
X19780D02*
X34740D01*
X19780Y68063D02*
Y75937D01*
X119520Y97563D02*
X134480D01*
Y105437D01*
X119520D02*
X134480D01*
X119520Y97563D02*
Y105437D01*
Y88563D02*
X134480D01*
Y96437D01*
X119520D02*
X134480D01*
X119520Y88563D02*
Y96437D01*
X119020Y78063D02*
X133980D01*
Y85937D01*
X119020D02*
X133980D01*
X119020Y78063D02*
Y85937D01*
X119520Y68063D02*
X134480D01*
Y75937D01*
X119520D02*
X134480D01*
X119520Y68063D02*
Y75937D01*
X176760Y64063D02*
X191720D01*
Y71937D01*
X176760D02*
X191720D01*
X176760Y64063D02*
Y71937D01*
X177020Y54063D02*
Y61937D01*
X191980D01*
Y54063D02*
Y61937D01*
X177020Y54063D02*
X191980D01*
X160020Y64063D02*
Y71937D01*
X174980D01*
Y64063D02*
Y71937D01*
X160020Y64063D02*
X174980D01*
X213260Y97563D02*
X228221D01*
Y105437D01*
X213260D02*
X228221D01*
X213260Y97563D02*
Y105437D01*
Y68063D02*
X228221D01*
Y75937D01*
X213260D02*
X228221D01*
X213260Y68063D02*
Y75937D01*
X264980Y112063D02*
Y119937D01*
X250020Y112063D02*
X264980D01*
X250020D02*
Y119937D01*
X264980D01*
X224020Y112063D02*
Y119937D01*
X238980D01*
Y112063D02*
Y119937D01*
X224020Y112063D02*
X238980D01*
X213260Y88563D02*
X228221D01*
Y96437D01*
X213260D02*
X228221D01*
X213260Y88563D02*
Y96437D01*
Y78063D02*
X228221D01*
Y85937D01*
X213260D02*
X228221D01*
X213260Y78063D02*
Y85937D01*
X306260Y68063D02*
X321220D01*
Y75937D01*
X306260D02*
X321220D01*
X306260Y68063D02*
Y75937D01*
Y78063D02*
X321220D01*
Y85937D01*
X306260D02*
X321220D01*
X306260Y78063D02*
Y85937D01*
Y88563D02*
X321220D01*
Y96437D01*
X306260D02*
X321220D01*
X306260Y88563D02*
Y96437D01*
Y97563D02*
X321220D01*
Y105437D01*
X306260D02*
X321220D01*
X306260Y97563D02*
Y105437D01*
X292563Y140520D02*
X300437D01*
X292563D02*
Y155480D01*
X300437D01*
Y140520D02*
Y155480D01*
X289437Y140520D02*
Y155480D01*
X281563D02*
X289437D01*
X281563Y140520D02*
Y155480D01*
Y140520D02*
X289437D01*
X271063D02*
X278937D01*
X271063D02*
Y155480D01*
X278937D01*
Y140520D02*
Y155480D01*
X186020Y123563D02*
X200980D01*
Y131437D01*
X186020D02*
X200980D01*
X186020Y123563D02*
Y131437D01*
X161520Y123563D02*
X176480D01*
Y131437D01*
X161520D02*
X176480D01*
X161520Y123563D02*
Y131437D01*
X126020Y123563D02*
Y131437D01*
X140980D01*
Y123563D02*
Y131437D01*
X126020Y123563D02*
X140980D01*
X19780Y97563D02*
X34740D01*
Y105437D01*
X19780D02*
X34740D01*
X19780Y97563D02*
Y105437D01*
X116063Y188480D02*
X123937D01*
Y173520D02*
Y188480D01*
X116063Y173520D02*
X123937D01*
X116063D02*
Y188480D01*
M02*
