M48
;Layer_Color=9474304
;FILE_FORMAT=2:5
INCH,LZ
;TYPE=PLATED
T1F00S00C0.02362
T2F00S00C0.02800
T3F00S00C0.03000
T4F00S00C0.03200
T5F00S00C0.03543
T6F00S00C0.04724
T7F00S00C0.05118
T8F00S00C0.13780
%
T01
X0297Y0072
Y0082
Y0092
Y0102
Y0112
X02055
Y0102
Y0092
Y0082
Y0072
X01105
Y0082
Y0092
Y0102
Y0112
X0014
Y0102
Y0092
Y0082
Y0072
Y0226
Y0236
Y0246
Y0256
Y0266
X00995
Y0256
Y0246
Y0236
Y0226
X01145
Y0236
Y0246
Y0256
Y0266
X0198
Y0256
Y0246
Y0236
Y0226
X0216
Y0236
Y0246
Y0256
Y0266
X02955
Y0256
Y0246
Y0236
Y0226
X03135
Y0236
Y0246
Y0256
Y0266
X0391Y0265
Y0255
Y0245
Y0235
Y0225
T02
X0376Y0085
X03565Y00855
X02925Y0127
X0286Y01255
X02795Y0129
X02675Y01495
X02765Y0159
X02735Y01735
X0286Y0172
X02465Y0174
X02315Y0136
X02425Y01185
X0248151Y0117024
X023Y01085
X0265Y0107
X01835Y0115
X0183Y0129
X01715Y0119
X0159Y0128
X01495Y012
Y01135
X0097Y0108
X00775
X00585Y01085
X008Y01685
X01Y0154
X01135Y0193
X01915Y00775
X00405Y0184
X0048Y02265
X0056Y0227
X00495Y0273
X00205Y0253
X0011763Y02185
X00625Y0248
X0063Y0262
X01295Y0255
X0126Y02735
X01615Y0262
X0165Y025
X01605Y0227
X015Y02265
X0221Y0251
X02235Y0276
X02595Y0262
X0264Y02485
X02585Y0227
X0249
X0347
X0356
X03615Y0246
X0356Y02615
X0323Y0255
X03195Y0275
T03
X0265Y00845
X02845Y0084
T04
X0232Y0211
X0242
X0252
X0262
T05
X0368898Y0134
X0378898
X0388898
Y0144
X0378898
X0368898
Y0158
X0378898
X0388898
Y0168
X0378898
X0368898
X03785Y0179
X03885
Y0209
X03785
X03685
X03585
X03485
X03385
X03285
X03185
X03085
Y0179
X03185
X03285
X03385
X03485
X03585
X03685
X0358898Y0168
Y0158
X0348898
Y0168
X0338898
Y0158
X0328898
Y0168
X0318898
Y0158
Y0144
X0328898
X0338898
X0348898
X0358898
Y0134
X0348898
X0338898
X0328898
X0318898
X022Y0138
X0218Y0179
Y0209
X0208
X0198
X0188
X0178
X0168
X0158
X0148
X0138
Y0179
X0148
X0158
X0168
X0178
X0188
X0198
X0208
X02085Y0168
Y0158
X01985
Y0168
X01885
Y0158
X01785
Y0168
X01685
Y0158
X01585
Y0168
X01485
Y0158
X01385
Y0168
X01405Y0138
X01305
X01505
X01605
X01705
X019
X02
X021
X00935Y0137
Y0127
X00835
Y0137
X00735
Y0127
X00635
Y0137
X00535
Y0127
X00435
Y0137
X00335
Y0127
X00235
Y0137
X00195Y0153
X00095
Y0183
X00195
T06
X0038189Y0022441
X0057874
X0077559
X0097244
X0116929
X0136614
X0156299
X0175984
X0248425
X026811
X0287795
X030748
X0327165
X034685
X0366535
X0386221
X0038189Y0319685
X0057874
X0077559
X0097244
X0116929
X0136614
X0156299
X0175984
X0248425
X026811
X0287795
X030748
X0327165
X034685
X0366535
X0386221
T07
X0018504Y0022441
X022874
X0018504Y0319685
X022874
T08
X0016142Y0055512
X0388583
X0016142Y0286614
X0388976
M30
