G04 Layer_Physical_Order=2*
G04 Layer_Color=16711680*
%FSLAX25Y25*%
%MOIN*%
G70*
G01*
G75*
G04:AMPARAMS|DCode=17|XSize=70.87mil|YSize=51.18mil|CornerRadius=6.4mil|HoleSize=0mil|Usage=FLASHONLY|Rotation=90.000|XOffset=0mil|YOffset=0mil|HoleType=Round|Shape=RoundedRectangle|*
%AMROUNDEDRECTD17*
21,1,0.07087,0.03839,0,0,90.0*
21,1,0.05807,0.05118,0,0,90.0*
1,1,0.01280,0.01919,0.02904*
1,1,0.01280,0.01919,-0.02904*
1,1,0.01280,-0.01919,-0.02904*
1,1,0.01280,-0.01919,0.02904*
%
%ADD17ROUNDEDRECTD17*%
%ADD21C,0.00787*%
%ADD22C,0.03937*%
%ADD23C,0.01575*%
%ADD25O,0.07874X0.09843*%
%ADD26C,0.06000*%
%ADD27R,0.05118X0.05118*%
%ADD28C,0.05118*%
%ADD29C,0.05906*%
%ADD30R,0.05906X0.05906*%
%ADD31R,0.05906X0.05906*%
%ADD32C,0.05906*%
%ADD33R,0.05906X0.05906*%
%ADD34O,0.06000X0.08000*%
G04:AMPARAMS|DCode=35|XSize=60mil|YSize=80mil|CornerRadius=7.5mil|HoleSize=0mil|Usage=FLASHONLY|Rotation=180.000|XOffset=0mil|YOffset=0mil|HoleType=Round|Shape=RoundedRectangle|*
%AMROUNDEDRECTD35*
21,1,0.06000,0.06500,0,0,180.0*
21,1,0.04500,0.08000,0,0,180.0*
1,1,0.01500,-0.02250,0.03250*
1,1,0.01500,0.02250,0.03250*
1,1,0.01500,0.02250,-0.03250*
1,1,0.01500,-0.02250,-0.03250*
%
%ADD35ROUNDEDRECTD35*%
%ADD36C,0.05000*%
%ADD37C,0.04921*%
%ADD38R,0.05906X0.05118*%
%ADD39R,0.09449X0.10236*%
%ADD40R,0.06890X0.04331*%
%ADD41R,0.06890X0.04331*%
%ADD42R,0.06890X0.13780*%
%ADD43R,0.05118X0.05906*%
%ADD44R,0.10236X0.08661*%
%ADD45R,0.08661X0.10236*%
%ADD46O,0.09055X0.02362*%
%ADD47O,0.02362X0.07874*%
G04:AMPARAMS|DCode=48|XSize=70.87mil|YSize=51.18mil|CornerRadius=6.4mil|HoleSize=0mil|Usage=FLASHONLY|Rotation=0.000|XOffset=0mil|YOffset=0mil|HoleType=Round|Shape=RoundedRectangle|*
%AMROUNDEDRECTD48*
21,1,0.07087,0.03839,0,0,0.0*
21,1,0.05807,0.05118,0,0,0.0*
1,1,0.01280,0.02904,-0.01919*
1,1,0.01280,-0.02904,-0.01919*
1,1,0.01280,-0.02904,0.01919*
1,1,0.01280,0.02904,0.01919*
%
%ADD48ROUNDEDRECTD48*%
%ADD49O,0.08268X0.01378*%
G04:AMPARAMS|DCode=50|XSize=98.43mil|YSize=86.61mil|CornerRadius=10.83mil|HoleSize=0mil|Usage=FLASHONLY|Rotation=90.000|XOffset=0mil|YOffset=0mil|HoleType=Round|Shape=RoundedRectangle|*
%AMROUNDEDRECTD50*
21,1,0.09843,0.06496,0,0,90.0*
21,1,0.07677,0.08661,0,0,90.0*
1,1,0.02165,0.03248,0.03839*
1,1,0.02165,0.03248,-0.03839*
1,1,0.02165,-0.03248,-0.03839*
1,1,0.02165,-0.03248,0.03839*
%
%ADD50ROUNDEDRECTD50*%
%ADD51O,0.08661X0.02362*%
G04:AMPARAMS|DCode=52|XSize=70.87mil|YSize=45.28mil|CornerRadius=5.66mil|HoleSize=0mil|Usage=FLASHONLY|Rotation=0.000|XOffset=0mil|YOffset=0mil|HoleType=Round|Shape=RoundedRectangle|*
%AMROUNDEDRECTD52*
21,1,0.07087,0.03396,0,0,0.0*
21,1,0.05955,0.04528,0,0,0.0*
1,1,0.01132,0.02977,-0.01698*
1,1,0.01132,-0.02977,-0.01698*
1,1,0.01132,-0.02977,0.01698*
1,1,0.01132,0.02977,0.01698*
%
%ADD52ROUNDEDRECTD52*%
G04:AMPARAMS|DCode=53|XSize=70.87mil|YSize=45.28mil|CornerRadius=5.66mil|HoleSize=0mil|Usage=FLASHONLY|Rotation=90.000|XOffset=0mil|YOffset=0mil|HoleType=Round|Shape=RoundedRectangle|*
%AMROUNDEDRECTD53*
21,1,0.07087,0.03396,0,0,90.0*
21,1,0.05955,0.04528,0,0,90.0*
1,1,0.01132,0.01698,0.02977*
1,1,0.01132,0.01698,-0.02977*
1,1,0.01132,-0.01698,-0.02977*
1,1,0.01132,-0.01698,0.02977*
%
%ADD53ROUNDEDRECTD53*%
%ADD54C,0.02362*%
G36*
X181760Y262607D02*
Y260653D01*
X185500D01*
Y260260D01*
X185894D01*
Y256913D01*
X188764D01*
Y252650D01*
X181957D01*
Y246350D01*
X182000D01*
Y245169D01*
X181957D01*
Y238870D01*
X186651D01*
X186928Y238454D01*
X186913Y238418D01*
Y238291D01*
X186864Y238173D01*
X186913Y238056D01*
Y237929D01*
X187003Y237839D01*
X187052Y237721D01*
X190505Y234268D01*
X190595Y234051D01*
Y230469D01*
X190505Y230252D01*
X189944Y229691D01*
X189415Y229722D01*
X189350Y229753D01*
X189244Y229918D01*
X189240Y229940D01*
Y230847D01*
X185894D01*
Y227894D01*
X186798D01*
X187220Y227606D01*
X187269Y227489D01*
Y227410D01*
X187231Y227246D01*
X187006Y226909D01*
X181957D01*
Y225000D01*
X178627D01*
X178537Y225037D01*
X178500Y225127D01*
Y225698D01*
X178537Y225723D01*
X178929Y226309D01*
X179066Y227000D01*
X178929Y227691D01*
X178537Y228277D01*
X178500Y228302D01*
Y230698D01*
X178537Y230723D01*
X178929Y231309D01*
X179066Y232000D01*
X178929Y232691D01*
X178537Y233277D01*
X177951Y233669D01*
X177260Y233806D01*
X170567D01*
X169876Y233669D01*
X169481Y233405D01*
X162582D01*
X161003Y234984D01*
X161067Y255592D01*
X161071Y255595D01*
X169481D01*
X169876Y255331D01*
X170567Y255194D01*
X177260D01*
X177951Y255331D01*
X178537Y255723D01*
X178929Y256309D01*
X179066Y257000D01*
X178972Y257472D01*
X180500Y259000D01*
Y262000D01*
X181298Y262798D01*
X181760Y262607D01*
D02*
G37*
G36*
X59180Y161820D02*
X58989Y161358D01*
X24559D01*
X24149Y161858D01*
X24157Y161897D01*
Y163506D01*
X24245Y163594D01*
X57406D01*
X59180Y161820D01*
D02*
G37*
G36*
X310432Y245178D02*
X310749Y244412D01*
X311254Y243754D01*
X311912Y243249D01*
X312678Y242932D01*
X313500Y242823D01*
X314322Y242932D01*
X315088Y243249D01*
X315467Y243539D01*
X315559Y243585D01*
X316041Y243548D01*
X316150Y243503D01*
X316171Y243486D01*
X316246Y243410D01*
X316374Y243410D01*
X316493Y243361D01*
X319457D01*
Y238870D01*
X321595D01*
Y234390D01*
X319457D01*
Y228091D01*
X326543D01*
X326595Y227612D01*
Y227106D01*
X323394D01*
Y223760D01*
Y220413D01*
X326740D01*
Y222066D01*
X327240Y222273D01*
X328507Y221007D01*
X328962Y220702D01*
X329500Y220595D01*
X330154D01*
X330549Y220331D01*
X331240Y220194D01*
X337933D01*
X338624Y220331D01*
X339210Y220723D01*
X339602Y221309D01*
X339739Y222000D01*
X357000D01*
X360595Y225595D01*
X365981D01*
X366376Y225331D01*
X367067Y225194D01*
X373760D01*
X374451Y225331D01*
X375037Y225723D01*
X375429Y226309D01*
X375566Y227000D01*
X376596D01*
X377030Y226566D01*
X377194Y226498D01*
X377339Y226395D01*
X377760Y226299D01*
Y224153D01*
X385240D01*
Y227106D01*
X385240D01*
X385045Y227428D01*
X385036Y227591D01*
X385043Y228091D01*
X385043Y228091D01*
X385043Y228091D01*
Y234390D01*
X385043D01*
X385006Y234445D01*
X385065Y234587D01*
Y237347D01*
X384878Y237799D01*
X384466Y238211D01*
X384657Y238673D01*
X385240D01*
Y241626D01*
X381500D01*
Y242413D01*
X385240D01*
Y245000D01*
X387000D01*
Y217500D01*
X385000Y215500D01*
X382000Y218500D01*
X298081D01*
Y222850D01*
X298650D01*
Y229150D01*
X292350D01*
Y222850D01*
X292919D01*
Y218500D01*
X209945D01*
X201150Y227295D01*
Y229150D01*
X194850D01*
Y226501D01*
X189702Y221352D01*
X189240Y221544D01*
Y223366D01*
X185894D01*
Y220413D01*
X188110D01*
X188301Y219952D01*
X187025Y218676D01*
X117824D01*
X114308Y222192D01*
X114500Y222654D01*
X117847D01*
Y225606D01*
X114500D01*
Y226000D01*
X114106D01*
Y229346D01*
X111153D01*
Y226000D01*
X110692Y225808D01*
X107500Y229000D01*
X102650D01*
Y229150D01*
X96350D01*
Y222850D01*
X97000D01*
Y221500D01*
X106500D01*
X115500Y212500D01*
X116000Y212000D01*
X128500D01*
X132012Y208488D01*
Y197327D01*
X131922Y197109D01*
X131832Y197020D01*
X131832Y197020D01*
X131063Y196250D01*
X131038Y196190D01*
X130983Y196154D01*
X130784Y195856D01*
X130760Y195731D01*
X130689Y195625D01*
X130619Y195274D01*
X130632Y195210D01*
X130607Y195150D01*
Y178426D01*
X130517Y178209D01*
X130427Y178119D01*
X130427Y178119D01*
X130138Y177830D01*
X130089Y177713D01*
X129999Y177623D01*
X129909Y177406D01*
Y177278D01*
X129861Y177161D01*
Y175361D01*
X107500Y153000D01*
X104000Y149500D01*
X87999D01*
X87847Y150000D01*
X87948Y150067D01*
X88264Y150540D01*
X88374Y151096D01*
Y153606D01*
X85000D01*
Y154394D01*
X88374D01*
Y156904D01*
X88264Y157460D01*
X88237Y157500D01*
X88504Y158000D01*
X98000D01*
X104866Y164866D01*
X105328Y164674D01*
Y162523D01*
X105433Y161995D01*
X105732Y161547D01*
X106180Y161248D01*
X106708Y161143D01*
X108012D01*
Y165500D01*
X108405D01*
Y165894D01*
X111483D01*
Y168477D01*
X111378Y169005D01*
X111649Y169500D01*
X119000D01*
X122000Y172500D01*
X124500Y175000D01*
Y195000D01*
Y197000D01*
X113500Y208000D01*
X105000Y216500D01*
X17500D01*
X14740Y219260D01*
X14736Y219297D01*
X14428Y220039D01*
X13939Y220676D01*
X13302Y221165D01*
X12559Y221473D01*
X12522Y221478D01*
X11808Y222192D01*
X12000Y222654D01*
X13606D01*
Y226000D01*
Y229346D01*
X10654D01*
X10500Y229783D01*
Y230500D01*
X19000D01*
X22007Y227493D01*
X22260Y227106D01*
X22260D01*
X22260Y227106D01*
Y224153D01*
X26000D01*
Y223760D01*
X26394D01*
Y220413D01*
X29740D01*
Y222607D01*
X30202Y222798D01*
X33000Y220000D01*
X34296D01*
X34549Y219831D01*
X35240Y219694D01*
X41933D01*
X42624Y219831D01*
X42877Y220000D01*
X67000D01*
X68611Y221611D01*
X69084Y221377D01*
X69213Y220732D01*
X69648Y220081D01*
X70299Y219646D01*
X71067Y219493D01*
X74020D01*
Y221500D01*
Y223507D01*
X71214D01*
X71010Y223882D01*
X70993Y223993D01*
X71694Y224694D01*
X77760D01*
X78451Y224831D01*
X79037Y225223D01*
X79429Y225809D01*
X79467Y226000D01*
X80717D01*
X80755Y225962D01*
X80883Y225909D01*
X81010D01*
X81127Y225861D01*
X82260D01*
Y224153D01*
X89740D01*
Y227106D01*
X89313D01*
X89106Y227606D01*
X90500Y229000D01*
Y234741D01*
X90522Y234763D01*
Y234956D01*
X90555Y235146D01*
X90522Y235194D01*
Y235252D01*
X90500Y235304D01*
Y235500D01*
X88081Y237919D01*
X83723D01*
X83633Y237956D01*
X83596Y238046D01*
Y238546D01*
X83598Y238550D01*
Y238616D01*
X83634Y238670D01*
X83637Y238673D01*
X86106D01*
Y242020D01*
X86500D01*
Y242413D01*
X90240D01*
Y243000D01*
X98512D01*
X98678Y242932D01*
X99500Y242823D01*
X100322Y242932D01*
X100488Y243000D01*
X113512D01*
X113678Y242932D01*
X114500Y242823D01*
X115322Y242932D01*
X115488Y243000D01*
X120957D01*
Y238870D01*
X124595D01*
Y234390D01*
X120957D01*
Y228091D01*
X127163D01*
X127685Y227568D01*
X127494Y227106D01*
X124894D01*
Y224153D01*
X128240D01*
Y226360D01*
X128702Y226551D01*
X129095Y226158D01*
Y223500D01*
X129202Y222962D01*
X129507Y222507D01*
X131007Y221007D01*
X131462Y220702D01*
X132000Y220595D01*
X133654D01*
X134049Y220331D01*
X134740Y220194D01*
X141433D01*
X142124Y220331D01*
X142710Y220723D01*
X143102Y221309D01*
X143239Y222000D01*
X162500D01*
X165500Y225000D01*
X177861D01*
X178048Y224548D01*
X178500Y224361D01*
X181760D01*
Y224153D01*
X189240D01*
Y227106D01*
X188067D01*
X187859Y227606D01*
X188344Y228091D01*
X189043D01*
Y228489D01*
X189402Y228808D01*
X189515Y228858D01*
X189585D01*
X189702Y228810D01*
X189820Y228858D01*
X189947D01*
X190037Y228948D01*
X190154Y228997D01*
X191047Y229890D01*
X191234Y230342D01*
Y234178D01*
X191047Y234630D01*
X187504Y238173D01*
X187711Y238673D01*
X189240D01*
Y241626D01*
X185500D01*
Y242413D01*
X189240D01*
Y244500D01*
X195212D01*
X195249Y244412D01*
X195754Y243754D01*
X196412Y243249D01*
X197178Y242932D01*
X198000Y242823D01*
X198822Y242932D01*
X199588Y243249D01*
X200246Y243754D01*
X200751Y244412D01*
X200788Y244500D01*
X213212D01*
X213249Y244412D01*
X213754Y243754D01*
X214412Y243249D01*
X215178Y242932D01*
X216000Y242823D01*
X216822Y242932D01*
X217588Y243249D01*
X217967Y243539D01*
X218059Y243585D01*
X218541Y243548D01*
X218651Y243503D01*
X218671Y243486D01*
X218746Y243410D01*
X218874Y243410D01*
X218993Y243361D01*
X223457D01*
Y238870D01*
X225595D01*
Y234390D01*
X223457D01*
Y228091D01*
X228923D01*
X229445Y227568D01*
X229254Y227106D01*
X227394D01*
Y223760D01*
Y220413D01*
X230740D01*
Y221566D01*
X231240Y221773D01*
X232007Y221007D01*
X232462Y220702D01*
X233000Y220595D01*
X233654D01*
X234049Y220331D01*
X234740Y220194D01*
X241433D01*
X242124Y220331D01*
X242710Y220723D01*
X243102Y221309D01*
X243239Y222000D01*
X243140Y222500D01*
X243451Y223000D01*
X244000D01*
X245500Y224500D01*
X247246D01*
X247461Y224335D01*
X248203Y224027D01*
X249000Y223922D01*
X249797Y224027D01*
X250539Y224335D01*
X250754Y224500D01*
X256746D01*
X256961Y224335D01*
X257703Y224027D01*
X258500Y223922D01*
X259296Y224027D01*
X260039Y224335D01*
X260254Y224500D01*
X270550D01*
X270567Y224007D01*
X269799Y223854D01*
X269148Y223419D01*
X268713Y222768D01*
X268638Y222394D01*
X279189D01*
X279114Y222768D01*
X278679Y223419D01*
X278028Y223854D01*
X277260Y224007D01*
X277277Y224500D01*
X278164D01*
X278500Y224361D01*
X281760D01*
Y224153D01*
X289240D01*
Y227106D01*
X287917D01*
X287696Y227576D01*
X287695Y227606D01*
X287776Y227687D01*
Y227721D01*
X288145Y228091D01*
X289043D01*
Y234390D01*
X289043Y234390D01*
X288983Y234890D01*
X289065Y235087D01*
Y238347D01*
X289049Y238387D01*
X289240Y238673D01*
X289240D01*
Y241626D01*
X285500D01*
Y242020D01*
X285106D01*
Y245366D01*
X284030D01*
X283762Y245866D01*
X283852Y246000D01*
X292323D01*
X292431Y245178D01*
X292749Y244412D01*
X293254Y243754D01*
X293912Y243249D01*
X294678Y242932D01*
X295500Y242823D01*
X296322Y242932D01*
X297088Y243249D01*
X297746Y243754D01*
X298251Y244412D01*
X298569Y245178D01*
X298677Y246000D01*
X310323D01*
X310432Y245178D01*
D02*
G37*
G36*
X319457Y264591D02*
X326543D01*
Y265595D01*
X329905D01*
X330500Y265000D01*
Y263636D01*
X329963Y263277D01*
X329571Y262691D01*
X329434Y262000D01*
X329571Y261309D01*
X329963Y260723D01*
X330500Y260364D01*
Y258636D01*
X329963Y258277D01*
X329571Y257691D01*
X329434Y257000D01*
X329571Y256309D01*
X329963Y255723D01*
X330549Y255331D01*
X331240Y255194D01*
X337933D01*
X338624Y255331D01*
X339019Y255595D01*
X343500D01*
X344038Y255702D01*
X344493Y256007D01*
X346426Y254074D01*
Y237413D01*
X342418Y233405D01*
X339019D01*
X338624Y233669D01*
X337933Y233806D01*
X331240D01*
X330549Y233669D01*
X329963Y233277D01*
X329571Y232691D01*
X329434Y232000D01*
X329418Y231980D01*
X328507D01*
X327513Y232974D01*
X327057Y233278D01*
X326543Y233381D01*
Y235130D01*
X325500D01*
Y238870D01*
X326543D01*
Y245169D01*
X319457D01*
Y244000D01*
X316493D01*
X316288Y244500D01*
X316568Y245178D01*
X316677Y246000D01*
X316568Y246822D01*
X316251Y247588D01*
X315746Y248246D01*
X315088Y248751D01*
X314322Y249068D01*
X313500Y249177D01*
Y252823D01*
X314322Y252931D01*
X315088Y253249D01*
X315746Y253754D01*
X316251Y254412D01*
X316568Y255178D01*
X316677Y256000D01*
X316568Y256822D01*
X316251Y257588D01*
X315746Y258246D01*
X315088Y258751D01*
X314322Y259068D01*
X313500Y259177D01*
Y262823D01*
X314322Y262931D01*
X315088Y263249D01*
X315746Y263754D01*
X316251Y264412D01*
X316568Y265178D01*
X316677Y266000D01*
X319457D01*
Y264591D01*
D02*
G37*
G36*
X281957D02*
X286923D01*
X287445Y264068D01*
X287253Y263606D01*
X285894D01*
Y260260D01*
Y256913D01*
X288426D01*
Y254413D01*
X286663Y252650D01*
X281957D01*
Y246350D01*
X282500D01*
Y245169D01*
X281957D01*
Y238870D01*
X288047D01*
X288063Y238863D01*
X288406Y238500D01*
X288451Y238407D01*
X288426Y238347D01*
Y238282D01*
X288422Y238262D01*
X288426Y238256D01*
Y235214D01*
X288393Y235134D01*
Y234971D01*
X288349Y234814D01*
X288147Y234587D01*
X285894D01*
Y231240D01*
Y227894D01*
X286633D01*
X286966Y227667D01*
X287056Y227590D01*
X287056Y227560D01*
X287111Y227438D01*
X287112Y227410D01*
X286850Y226909D01*
X281957D01*
Y225000D01*
X278627D01*
X278500Y225053D01*
Y225698D01*
X278537Y225723D01*
X278929Y226309D01*
X279066Y227000D01*
X278929Y227691D01*
X278537Y228277D01*
X278500Y228302D01*
Y230698D01*
X278537Y230723D01*
X278929Y231309D01*
X279066Y232000D01*
X278929Y232691D01*
X278537Y233277D01*
X277951Y233669D01*
X277260Y233806D01*
X270567D01*
X269876Y233669D01*
X269481Y233405D01*
X262582D01*
X255401Y240586D01*
Y256500D01*
X256084D01*
X256578Y256007D01*
X257034Y255702D01*
X257571Y255595D01*
X269481D01*
X269876Y255331D01*
X270567Y255194D01*
X277260D01*
X277951Y255331D01*
X278537Y255723D01*
X278929Y256309D01*
X279066Y257000D01*
X278973Y257467D01*
X279000Y257500D01*
X279000D01*
Y261667D01*
X279066Y262000D01*
X279000Y262333D01*
Y265595D01*
X281957D01*
Y264591D01*
D02*
G37*
G36*
X377957D02*
X384595D01*
Y263606D01*
X381894D01*
Y260260D01*
Y256913D01*
X384595D01*
Y254822D01*
X382422Y252650D01*
X377957D01*
Y246350D01*
X379000D01*
Y245169D01*
X377957D01*
Y238870D01*
X383598D01*
X383781Y238596D01*
X383875Y238370D01*
Y238329D01*
X383826Y238211D01*
X383875Y238094D01*
Y237967D01*
X383965Y237877D01*
X384014Y237759D01*
X384336Y237437D01*
X384426Y237220D01*
Y234714D01*
X384416Y234690D01*
Y234624D01*
X384391Y234587D01*
X381894D01*
Y231240D01*
Y227894D01*
X384068D01*
X384398Y227556D01*
X384406Y227410D01*
X384405Y227391D01*
X384233Y227047D01*
X384084Y226920D01*
X384060Y226909D01*
X377957D01*
X377957Y226909D01*
X377564Y227019D01*
X377491Y227036D01*
X377438Y227089D01*
X377392Y227108D01*
X374589Y229911D01*
X374626Y230448D01*
X375037Y230723D01*
X375429Y231309D01*
X375566Y232000D01*
X375429Y232691D01*
X375037Y233277D01*
X374451Y233669D01*
X373760Y233806D01*
X367067D01*
X366376Y233669D01*
X365981Y233405D01*
X356582D01*
X356000Y233987D01*
Y255595D01*
X365981D01*
X366376Y255331D01*
X367067Y255194D01*
X373760D01*
X374451Y255331D01*
X375037Y255723D01*
X375429Y256309D01*
X375566Y257000D01*
X375429Y257691D01*
X375037Y258277D01*
X375000Y258302D01*
Y260698D01*
X375037Y260723D01*
X375429Y261309D01*
X375566Y262000D01*
X375429Y262691D01*
X375037Y263277D01*
X375000Y263302D01*
Y265595D01*
X377957D01*
Y264591D01*
D02*
G37*
G36*
X247000Y170919D02*
X263457D01*
Y170744D01*
X271528D01*
X271528Y170744D01*
X272028Y170807D01*
X272704Y170527D01*
X272840Y170509D01*
X277655Y165695D01*
X278190Y165284D01*
X278812Y165026D01*
X279480Y164939D01*
X280685D01*
Y159193D01*
X283419D01*
Y154890D01*
X281957D01*
Y148591D01*
X287615D01*
X288205Y148000D01*
X287998Y147500D01*
X272354D01*
X272000Y147854D01*
Y148000D01*
X272163Y148394D01*
X274606D01*
Y151740D01*
Y155087D01*
X271260D01*
X271000Y155479D01*
Y159861D01*
X271873D01*
X271990Y159909D01*
X272117Y159909D01*
X272207Y159947D01*
X272207Y159947D01*
X272207Y159947D01*
X272207Y159947D01*
X272297Y160037D01*
X272325Y160048D01*
X272336Y160076D01*
X272424Y160164D01*
X272452Y160175D01*
X272463Y160203D01*
X272553Y160293D01*
X272553Y160293D01*
X272553Y160293D01*
X272553Y160293D01*
X272590Y160382D01*
X272590Y160510D01*
X272639Y160627D01*
Y160979D01*
X272613Y161042D01*
Y161098D01*
X272590Y161152D01*
Y161224D01*
X272564Y161287D01*
X272549Y161354D01*
X272507Y161412D01*
X272494Y161469D01*
X272462Y161514D01*
X272446Y161581D01*
X272298Y161789D01*
X272234Y161828D01*
X272232Y161839D01*
X272216Y161849D01*
X272203Y161881D01*
X272164Y161920D01*
X272073Y161957D01*
X272022Y162008D01*
X271996Y162019D01*
X271996D01*
X271971Y162034D01*
X271900Y162046D01*
X271817Y162098D01*
X271762Y162107D01*
X271590Y162413D01*
X271528Y162569D01*
Y167201D01*
X263457D01*
Y167201D01*
X263178Y167139D01*
X249861D01*
X246572Y170428D01*
X246728Y170928D01*
X246756Y170951D01*
X247000Y170919D01*
D02*
G37*
G36*
X208126Y213018D02*
X207879Y212558D01*
X207075Y212452D01*
X206213Y212095D01*
X205473Y211527D01*
X204905Y210787D01*
X204548Y209925D01*
X204426Y209000D01*
X204548Y208075D01*
X204905Y207213D01*
X205473Y206473D01*
X206213Y205905D01*
X207075Y205548D01*
X208000Y205426D01*
X208925Y205548D01*
X209787Y205905D01*
X210527Y206473D01*
X211095Y207213D01*
X211452Y208075D01*
X211466Y208177D01*
X211993Y208356D01*
X213175Y207175D01*
X213709Y206765D01*
X214332Y206507D01*
X215000Y206419D01*
X215543D01*
X216213Y205905D01*
X217075Y205548D01*
X217912Y205438D01*
X225175Y198175D01*
X225709Y197765D01*
X226332Y197507D01*
X227000Y197419D01*
X251000D01*
X251668Y197507D01*
X252291Y197765D01*
X252825Y198175D01*
X261034Y206383D01*
X264250D01*
X264773Y206487D01*
X265216Y206784D01*
X265513Y207227D01*
X265617Y207750D01*
Y208419D01*
X281931D01*
X293675Y196675D01*
X299419Y190931D01*
Y155087D01*
X296894D01*
Y151740D01*
X296500D01*
Y151347D01*
X292760D01*
Y149222D01*
X292294Y148907D01*
X291971Y149042D01*
X291945Y149176D01*
X291553Y149762D01*
X289043Y152271D01*
Y154890D01*
X288581D01*
Y159193D01*
X291315D01*
Y170610D01*
X289177D01*
X288899Y171026D01*
X288973Y171203D01*
X289077Y172000D01*
X288973Y172796D01*
X288665Y173539D01*
X288176Y174176D01*
X287539Y174665D01*
X286796Y174973D01*
X286000Y175077D01*
X285204Y174973D01*
X284461Y174665D01*
X283824Y174176D01*
X283335Y173539D01*
X283027Y172796D01*
X282923Y172000D01*
X283027Y171203D01*
X283101Y171026D01*
X282823Y170610D01*
X280685D01*
Y170610D01*
X280185Y170465D01*
X276491Y174160D01*
X276473Y174296D01*
X276165Y175039D01*
X275676Y175676D01*
X275039Y176165D01*
X274296Y176473D01*
X273500Y176577D01*
X272704Y176473D01*
X272028Y176193D01*
X271528Y176256D01*
Y176256D01*
X271528Y176256D01*
X263457D01*
Y176081D01*
X248749D01*
X248676Y176176D01*
X248039Y176665D01*
X247297Y176973D01*
X247160Y176991D01*
X246079Y178071D01*
X245543Y178607D01*
Y180980D01*
X237472D01*
Y173000D01*
X229997D01*
X229740Y173394D01*
X229740Y173500D01*
Y176347D01*
X226000D01*
Y176740D01*
X225606D01*
Y180087D01*
X222260D01*
Y179128D01*
X221760Y179095D01*
X221644Y179976D01*
X221267Y180886D01*
X220668Y181667D01*
X219886Y182267D01*
X218976Y182644D01*
X218394Y182721D01*
Y179000D01*
X217606D01*
Y182721D01*
X217024Y182644D01*
X216114Y182267D01*
X215333Y181667D01*
X214733Y180886D01*
X214236Y180992D01*
Y189909D01*
X214129Y190447D01*
X213824Y190903D01*
X213500Y191227D01*
Y195000D01*
X212043Y196457D01*
Y197390D01*
X204957D01*
Y197000D01*
X201543D01*
Y197390D01*
X194457D01*
Y197000D01*
X191543D01*
Y197390D01*
X184457D01*
Y197000D01*
X181543D01*
Y197390D01*
X174457D01*
Y197000D01*
X172043D01*
Y197390D01*
X164957D01*
Y197000D01*
X162043D01*
Y197390D01*
X154957D01*
Y197000D01*
X152043D01*
Y197390D01*
X144957D01*
Y197000D01*
X142043D01*
Y197390D01*
X134957D01*
Y191091D01*
X135500D01*
Y189909D01*
X134957D01*
Y183610D01*
X135500D01*
Y182543D01*
X134457D01*
Y178957D01*
X133000Y177500D01*
Y153500D01*
Y152240D01*
X130654D01*
Y148500D01*
Y144760D01*
X133000D01*
Y144500D01*
X133500Y144000D01*
X142000D01*
X143711Y145711D01*
X144173Y145520D01*
Y144760D01*
X147126D01*
Y148500D01*
X147520D01*
Y148894D01*
X150866D01*
Y150861D01*
X151850D01*
Y144957D01*
X153595D01*
Y143500D01*
X153702Y142962D01*
X154007Y142507D01*
X157206Y139307D01*
X157048Y138925D01*
X156926Y138000D01*
X157048Y137075D01*
X157372Y136292D01*
X154412Y133332D01*
X154195Y133006D01*
X154119Y132622D01*
Y129492D01*
X153974Y129392D01*
X153619Y129301D01*
X151905Y131014D01*
Y134747D01*
X152287Y134905D01*
X153027Y135473D01*
X153595Y136213D01*
X153952Y137075D01*
X154074Y138000D01*
X153952Y138925D01*
X153595Y139787D01*
X153027Y140527D01*
X152287Y141095D01*
X151425Y141452D01*
X150500Y141574D01*
X149575Y141452D01*
X148713Y141095D01*
X147973Y140527D01*
X147405Y139787D01*
X147048Y138925D01*
X146926Y138000D01*
X147048Y137075D01*
X147405Y136213D01*
X147973Y135473D01*
X148713Y134905D01*
X149095Y134747D01*
Y131582D01*
X146418Y128905D01*
X140390D01*
Y131043D01*
X134091D01*
Y123957D01*
X140390D01*
Y126095D01*
X147000D01*
X147538Y126202D01*
X147994Y126506D01*
X150534Y129047D01*
X151034D01*
X151997Y128084D01*
Y122545D01*
X151497Y122314D01*
X151039Y122665D01*
X150296Y122973D01*
X149500Y123077D01*
X148704Y122973D01*
X147961Y122665D01*
X147324Y122176D01*
X146835Y121539D01*
X146779Y121405D01*
X130381D01*
X128488Y123298D01*
X128680Y123760D01*
X129366D01*
Y127106D01*
X126413D01*
Y126026D01*
X125952Y125835D01*
X104793Y146994D01*
X104337Y147298D01*
X103799Y147405D01*
X74488D01*
X73855Y148038D01*
X74047Y148500D01*
X103000D01*
X103500Y148000D01*
X128500Y173000D01*
X130500Y175000D01*
Y177161D01*
X130590Y177378D01*
X130969Y177757D01*
X131018Y177875D01*
X131107Y177964D01*
X131197Y178181D01*
Y178309D01*
X131246Y178426D01*
Y195150D01*
X131316Y195501D01*
X131515Y195799D01*
X132374Y196658D01*
X132423Y196775D01*
X132512Y196865D01*
X132602Y197082D01*
Y197209D01*
X132651Y197327D01*
X132651Y197687D01*
X132651Y197687D01*
X132651D01*
Y197687D01*
X137500Y202536D01*
Y205113D01*
X137876Y205443D01*
X138000Y205426D01*
X138925Y205548D01*
X139787Y205905D01*
X140527Y206473D01*
X141095Y207213D01*
X141452Y208075D01*
X141574Y209000D01*
X141452Y209925D01*
X141095Y210787D01*
X140527Y211527D01*
X139787Y212095D01*
X138925Y212452D01*
X138000Y212574D01*
X137876Y212558D01*
X137500Y212887D01*
Y213513D01*
X188094D01*
X188762Y213601D01*
X189385Y213859D01*
X189920Y214269D01*
X198397Y222747D01*
X208126Y213018D01*
D02*
G37*
G36*
X22260Y261646D02*
Y260653D01*
X29740D01*
Y261357D01*
X30230Y261577D01*
X30500Y261366D01*
Y255000D01*
X31500Y254000D01*
X35223D01*
X35240Y253507D01*
X34472Y253354D01*
X33821Y252919D01*
X33386Y252268D01*
X33311Y251894D01*
X43862D01*
X43787Y252268D01*
X43352Y252919D01*
X42701Y253354D01*
X41933Y253507D01*
X41950Y254000D01*
X45500D01*
Y235000D01*
X43900D01*
X43632Y235500D01*
X43787Y235732D01*
X43862Y236106D01*
X33311D01*
X33386Y235732D01*
X33541Y235500D01*
X33274Y235000D01*
X30500D01*
Y243000D01*
X29897D01*
X29543Y243354D01*
Y245169D01*
X22457D01*
Y243000D01*
X18854D01*
X18500Y243354D01*
Y249817D01*
X19000Y250063D01*
X19642Y249797D01*
X20106Y249736D01*
Y253000D01*
Y256264D01*
X19642Y256203D01*
X19000Y255937D01*
X18500Y256183D01*
Y262000D01*
X21906D01*
X22260Y261646D01*
D02*
G37*
G36*
X87672Y264068D02*
X87481Y263606D01*
X86894D01*
Y260260D01*
Y256913D01*
X89426D01*
Y252650D01*
X82957D01*
Y246350D01*
X83500D01*
Y245169D01*
X82957D01*
Y238870D01*
X82957Y238870D01*
X82957Y238046D01*
X83005Y237929D01*
X83005Y237802D01*
X83043Y237712D01*
X83043Y237712D01*
X83043Y237712D01*
X83043Y237712D01*
X83132Y237622D01*
X83144Y237594D01*
X83171Y237583D01*
X83260Y237495D01*
X83271Y237467D01*
X83299Y237456D01*
X83389Y237366D01*
X83389Y237366D01*
X83389Y237366D01*
X83389Y237366D01*
X83478Y237329D01*
X83606Y237329D01*
X83723Y237280D01*
X87816D01*
X89882Y235214D01*
Y235194D01*
X89905Y235139D01*
X89892Y235067D01*
X89903Y235019D01*
X89645Y234587D01*
X86394D01*
Y231240D01*
Y227894D01*
X88045D01*
X88177Y227804D01*
X88263Y227263D01*
X87910Y226909D01*
X82457D01*
Y226854D01*
X82103Y226500D01*
X81127D01*
X81000Y226553D01*
Y231500D01*
X79000Y233500D01*
X65500D01*
X58500Y240500D01*
Y241000D01*
Y254500D01*
X78500D01*
X81500Y257500D01*
Y264500D01*
X87240D01*
X87672Y264068D01*
D02*
G37*
G36*
X237472Y166528D02*
Y166020D01*
X245543D01*
Y166500D01*
X263260D01*
Y164839D01*
X267492D01*
Y164445D01*
X267886D01*
Y161492D01*
X271558D01*
X271926Y161210D01*
X271942Y161143D01*
X271818Y160651D01*
X271553Y160500D01*
X226000D01*
X225000Y161500D01*
X215000Y151500D01*
X175890D01*
Y152043D01*
X169591D01*
Y144957D01*
X170000D01*
Y141543D01*
X166957D01*
Y134457D01*
X170000D01*
Y131500D01*
X169500Y131000D01*
Y125000D01*
X169591D01*
Y123957D01*
X175890D01*
Y125000D01*
X178000D01*
X179500Y126500D01*
Y127553D01*
X180000Y127652D01*
X180129Y127342D01*
X180655Y126655D01*
X181342Y126128D01*
X182142Y125797D01*
X182606Y125736D01*
Y129000D01*
Y132264D01*
X182142Y132203D01*
X181342Y131871D01*
X180655Y131345D01*
X180129Y130658D01*
X180000Y130348D01*
X179500Y130447D01*
Y133000D01*
X180500Y134000D01*
X191500D01*
X193000Y132500D01*
Y131240D01*
X190154D01*
Y127500D01*
Y123760D01*
X192488D01*
X192640Y123260D01*
X191500Y122500D01*
X159000D01*
X157500Y121000D01*
Y100000D01*
Y96500D01*
X158000Y96000D01*
X160126D01*
X160242Y95922D01*
X160415Y95888D01*
X160645Y95332D01*
X160582Y95237D01*
X160546Y95055D01*
X170289D01*
X170253Y95237D01*
X170201Y95315D01*
X170468Y95815D01*
X178684D01*
X185000Y89500D01*
Y76500D01*
X189298Y72202D01*
X189107Y71740D01*
X188374D01*
Y68000D01*
X187980D01*
Y67606D01*
X184634D01*
Y65000D01*
X183650D01*
Y71543D01*
X181503D01*
Y87500D01*
X181427Y87884D01*
X181210Y88210D01*
X176607Y92812D01*
X176282Y93029D01*
X175898Y93106D01*
X170092D01*
X169927Y93597D01*
X170253Y94085D01*
X170289Y94268D01*
X160546D01*
X160582Y94085D01*
X160908Y93597D01*
X160733Y93138D01*
X160634Y93000D01*
X156126D01*
Y125524D01*
X156626Y125694D01*
X156655Y125655D01*
X157342Y125128D01*
X158142Y124797D01*
X158606Y124736D01*
Y128000D01*
Y131264D01*
X158450Y131243D01*
X158217Y131717D01*
X159000Y132500D01*
X164000D01*
Y137439D01*
X164074Y138000D01*
X164000Y138561D01*
Y141000D01*
X162500Y142500D01*
Y144760D01*
X164866D01*
Y148106D01*
X161591D01*
X161451Y148049D01*
X158150Y151350D01*
Y152043D01*
X151850D01*
Y151500D01*
X150669D01*
Y152043D01*
X144370D01*
Y151500D01*
X143500D01*
Y147500D01*
X141587Y145587D01*
X141087Y145709D01*
Y148106D01*
X137740D01*
Y148500D01*
X137346D01*
Y152240D01*
X134947D01*
X134740Y152740D01*
X136457Y154457D01*
X142043D01*
Y154500D01*
X147939D01*
X148500Y154426D01*
X149061Y154500D01*
X157939D01*
X158500Y154426D01*
X159061Y154500D01*
X167939D01*
X168500Y154426D01*
X169061Y154500D01*
X177939D01*
X178500Y154426D01*
X179061Y154500D01*
X187939D01*
X188500Y154426D01*
X189061Y154500D01*
X197939D01*
X198500Y154426D01*
X199061Y154500D01*
X207939D01*
X208500Y154426D01*
X209061Y154500D01*
X209500D01*
X209635Y154635D01*
X210287Y154905D01*
X211027Y155473D01*
X211595Y156213D01*
X211865Y156865D01*
X213500Y158500D01*
Y161013D01*
X213824Y161337D01*
X214129Y161793D01*
X214236Y162331D01*
Y164736D01*
X216000Y166500D01*
X221500Y172000D01*
X222260D01*
Y169653D01*
X229740D01*
Y172000D01*
X232000D01*
X237472Y166528D01*
D02*
G37*
G36*
X16048Y182075D02*
X16405Y181213D01*
X16973Y180473D01*
X17713Y179905D01*
X18575Y179548D01*
X18595Y179545D01*
Y178282D01*
X17023D01*
X16571Y178193D01*
X16189Y177937D01*
X15933Y177555D01*
X15844Y177103D01*
Y173851D01*
X15483Y173650D01*
X15357Y173630D01*
X13158Y175829D01*
Y177128D01*
X13062Y177608D01*
X12790Y178015D01*
X12384Y178287D01*
X11903Y178382D01*
X6097D01*
X5616Y178287D01*
X5209Y178015D01*
X4938Y177608D01*
X4842Y177128D01*
Y173289D01*
X4938Y172809D01*
X5209Y172402D01*
X5616Y172130D01*
X6097Y172035D01*
X11903D01*
X12384Y172130D01*
X12683Y172330D01*
X13674Y171339D01*
Y161091D01*
X13781Y160554D01*
X14085Y160098D01*
X15224Y158959D01*
X15680Y158655D01*
X16217Y158548D01*
X59372D01*
X72913Y145007D01*
X73369Y144702D01*
X73906Y144595D01*
X103217D01*
X118946Y128867D01*
X118754Y128405D01*
X96753D01*
X96595Y128787D01*
X96027Y129527D01*
X95287Y130095D01*
X94425Y130452D01*
X93500Y130574D01*
X92575Y130452D01*
X91713Y130095D01*
X90973Y129527D01*
X90405Y128787D01*
X90048Y127925D01*
X89926Y127000D01*
X90048Y126075D01*
X90405Y125213D01*
X90895Y124574D01*
X90740Y124074D01*
X88413D01*
X86794Y125693D01*
X86952Y126075D01*
X87074Y127000D01*
X86952Y127925D01*
X86595Y128787D01*
X86027Y129527D01*
X85287Y130095D01*
X84425Y130452D01*
X83500Y130574D01*
X82575Y130452D01*
X81713Y130095D01*
X80973Y129527D01*
X80405Y128787D01*
X80048Y127925D01*
X79926Y127000D01*
X80048Y126075D01*
X80405Y125213D01*
X80973Y124473D01*
X81713Y123905D01*
X82575Y123548D01*
X83500Y123426D01*
X84425Y123548D01*
X84807Y123706D01*
X86142Y122371D01*
X85951Y121909D01*
X80578D01*
X76794Y125693D01*
X76952Y126075D01*
X77074Y127000D01*
X76952Y127925D01*
X76595Y128787D01*
X76027Y129527D01*
X75287Y130095D01*
X74425Y130452D01*
X73500Y130574D01*
X72575Y130452D01*
X71713Y130095D01*
X70973Y129527D01*
X70405Y128787D01*
X70048Y127925D01*
X69926Y127000D01*
X70048Y126075D01*
X70405Y125213D01*
X70973Y124473D01*
X71713Y123905D01*
X72575Y123548D01*
X73500Y123426D01*
X74425Y123548D01*
X74807Y123706D01*
X78308Y120205D01*
X78116Y119744D01*
X72743D01*
X66794Y125693D01*
X66952Y126075D01*
X67074Y127000D01*
X66952Y127925D01*
X66595Y128787D01*
X66027Y129527D01*
X65287Y130095D01*
X64425Y130452D01*
X63500Y130574D01*
X62575Y130452D01*
X61713Y130095D01*
X60973Y129527D01*
X60405Y128787D01*
X60048Y127925D01*
X59926Y127000D01*
X60048Y126075D01*
X60405Y125213D01*
X60973Y124473D01*
X61713Y123905D01*
X62575Y123548D01*
X63500Y123426D01*
X64425Y123548D01*
X64807Y123706D01*
X71168Y117345D01*
X71624Y117041D01*
X72161Y116934D01*
X118579D01*
X129595Y105918D01*
Y105043D01*
X127591D01*
Y97957D01*
X133890D01*
Y101539D01*
X134390Y101785D01*
X134595Y101627D01*
Y94325D01*
X134390Y94171D01*
X133890Y94421D01*
Y96043D01*
X127591D01*
Y88957D01*
X133890D01*
Y90595D01*
X134500D01*
X135038Y90702D01*
X135494Y91007D01*
X136994Y92507D01*
X137095Y92659D01*
X137595Y92507D01*
Y86082D01*
X134918Y83405D01*
X133390D01*
Y85543D01*
X127091D01*
Y78457D01*
X133390D01*
Y80595D01*
X135500D01*
X136038Y80702D01*
X136494Y81007D01*
X139755Y84268D01*
X140309Y84115D01*
X140321Y84068D01*
X131797Y75543D01*
X127591D01*
Y68457D01*
X133890D01*
Y73663D01*
X142993Y82766D01*
X143298Y83222D01*
X143405Y83760D01*
Y102500D01*
X143298Y103038D01*
X142993Y103493D01*
X140413Y106074D01*
Y112117D01*
X140306Y112654D01*
X140001Y113110D01*
X135287Y117824D01*
X135279Y117830D01*
X135164Y118508D01*
X135229Y118595D01*
X146779D01*
X146835Y118461D01*
X147324Y117824D01*
X147961Y117335D01*
X148411Y117148D01*
Y116607D01*
X147842Y116372D01*
X147155Y115845D01*
X146628Y115158D01*
X146297Y114358D01*
X146236Y113894D01*
X149500D01*
Y113500D01*
X149894D01*
Y110236D01*
X150358Y110297D01*
X151158Y110628D01*
X151497Y110888D01*
X151997Y110642D01*
Y87051D01*
X152073Y86667D01*
X152290Y86342D01*
X157475Y81156D01*
X157801Y80939D01*
X158185Y80863D01*
X161171D01*
X161473Y80661D01*
X161972Y80562D01*
X168862D01*
X169361Y80661D01*
X169785Y80944D01*
X169997Y81261D01*
X170496Y81156D01*
Y78847D01*
X170290Y78710D01*
X163124Y71543D01*
X160610D01*
Y64457D01*
X166909D01*
Y71543D01*
X166616D01*
X166424Y72005D01*
X171416Y76996D01*
X171500D01*
X171884Y77073D01*
X172210Y77290D01*
X172427Y77616D01*
X172503Y78000D01*
Y84154D01*
X172427Y84538D01*
X172210Y84863D01*
X170154Y86919D01*
X170167Y86984D01*
X170068Y87484D01*
X169821Y87853D01*
X169785Y87907D01*
X169878Y88446D01*
X169927Y88479D01*
X170253Y88967D01*
X170289Y89150D01*
X160546D01*
X160582Y88967D01*
X160908Y88479D01*
X160957Y88446D01*
X161050Y87907D01*
X161014Y87853D01*
X160767Y87484D01*
X160668Y86984D01*
X160767Y86485D01*
X161050Y86062D01*
X160850Y85594D01*
X160699Y85429D01*
X157991D01*
X156126Y87294D01*
Y92102D01*
X160668D01*
X160767Y91603D01*
X161014Y91234D01*
X161050Y91180D01*
X160957Y90640D01*
X160908Y90608D01*
X160582Y90119D01*
X160546Y89937D01*
X170289D01*
X170253Y90119D01*
X169927Y90608D01*
X170092Y91099D01*
X175482D01*
X179497Y87084D01*
Y71543D01*
X177350D01*
Y64457D01*
X179497D01*
Y61543D01*
X177610D01*
Y54850D01*
X177500Y54740D01*
Y53691D01*
X107963D01*
Y69346D01*
X108463Y69593D01*
X108912Y69249D01*
X109678Y68932D01*
X110500Y68823D01*
X111322Y68932D01*
X112088Y69249D01*
X112746Y69754D01*
X113251Y70412D01*
X113327Y70595D01*
X120110D01*
Y68457D01*
X126409D01*
Y75543D01*
X120110D01*
Y73405D01*
X113327D01*
X113251Y73588D01*
X112746Y74246D01*
X112088Y74751D01*
X111322Y75068D01*
X110500Y75177D01*
X109678Y75068D01*
X108912Y74751D01*
X108463Y74407D01*
X107963Y74654D01*
Y79347D01*
X108463Y79593D01*
X108912Y79249D01*
X109678Y78931D01*
X110500Y78823D01*
X111322Y78931D01*
X112088Y79249D01*
X112746Y79754D01*
X113251Y80412D01*
X113327Y80595D01*
X119610D01*
Y78457D01*
X125909D01*
Y85543D01*
X119610D01*
Y83405D01*
X113327D01*
X113251Y83588D01*
X112746Y84246D01*
X112088Y84751D01*
X111322Y85069D01*
X110500Y85177D01*
X109678Y85069D01*
X108912Y84751D01*
X108463Y84407D01*
X107963Y84654D01*
Y89346D01*
X108463Y89593D01*
X108912Y89249D01*
X109678Y88932D01*
X110500Y88823D01*
X111322Y88932D01*
X112088Y89249D01*
X112746Y89754D01*
X113251Y90412D01*
X113327Y90595D01*
X120110D01*
Y88957D01*
X126409D01*
Y96043D01*
X120110D01*
Y93405D01*
X113327D01*
X113251Y93588D01*
X112746Y94246D01*
X112088Y94751D01*
X111322Y95069D01*
X110500Y95177D01*
X109678Y95069D01*
X108912Y94751D01*
X108463Y94407D01*
X107963Y94653D01*
Y99347D01*
X108463Y99593D01*
X108912Y99249D01*
X109678Y98931D01*
X110500Y98823D01*
X111322Y98931D01*
X112088Y99249D01*
X112746Y99754D01*
X113251Y100412D01*
X113327Y100595D01*
X120110D01*
Y97957D01*
X126409D01*
Y105043D01*
X120110D01*
Y103405D01*
X113327D01*
X113251Y103588D01*
X112746Y104246D01*
X112264Y104616D01*
X112210Y105130D01*
X112242Y105229D01*
X112325Y105293D01*
X112735Y105828D01*
X112993Y106450D01*
X113081Y107118D01*
Y108850D01*
X113650D01*
Y115150D01*
X107350D01*
Y109461D01*
X107089Y109353D01*
X106555Y108943D01*
X103557Y105945D01*
X103147Y105411D01*
X102889Y104788D01*
X102801Y104120D01*
Y53691D01*
X35459D01*
X21156Y67995D01*
X21347Y68457D01*
X26669D01*
Y75543D01*
X20370D01*
Y73405D01*
X16827D01*
X16751Y73588D01*
X16246Y74246D01*
X15588Y74751D01*
X14822Y75068D01*
X14000Y75177D01*
X13178Y75068D01*
X12412Y74751D01*
X11754Y74246D01*
X11249Y73588D01*
X10932Y72822D01*
X10858Y72262D01*
X10330Y72082D01*
X7081Y75331D01*
Y105431D01*
X10376Y108726D01*
X10850Y108850D01*
Y108850D01*
X10850Y108850D01*
X17150D01*
Y115150D01*
X10850D01*
Y114581D01*
X10000D01*
X9332Y114493D01*
X8709Y114235D01*
X8175Y113825D01*
X2675Y108325D01*
X2500Y108097D01*
X2000Y108267D01*
Y145500D01*
X1000Y146500D01*
X2000Y147500D01*
Y182500D01*
X5992D01*
X6048Y182075D01*
X6405Y181213D01*
X6973Y180473D01*
X7713Y179905D01*
X8575Y179548D01*
X9500Y179426D01*
X10425Y179548D01*
X11287Y179905D01*
X12027Y180473D01*
X12595Y181213D01*
X12952Y182075D01*
X13008Y182500D01*
X15992D01*
X16048Y182075D01*
D02*
G37*
G36*
X233000Y262333D02*
X232934Y262000D01*
X233000Y261667D01*
Y259000D01*
X233486Y258514D01*
X233463Y258277D01*
X233071Y257691D01*
X232934Y257000D01*
X233071Y256309D01*
X233463Y255723D01*
X234049Y255331D01*
X234740Y255194D01*
X241433D01*
X242124Y255331D01*
X242519Y255595D01*
X244500D01*
X245038Y255702D01*
X245493Y256007D01*
X247487Y258000D01*
X248949D01*
X249033Y257578D01*
X249337Y257123D01*
X249760Y256700D01*
Y238247D01*
X244918Y233405D01*
X242519D01*
X242124Y233669D01*
X241433Y233806D01*
X234740D01*
X234049Y233669D01*
X233463Y233277D01*
X233278Y233000D01*
X230543D01*
Y234390D01*
X228405D01*
Y238870D01*
X230543D01*
Y245169D01*
X223457D01*
Y244000D01*
X219120D01*
X219119Y244000D01*
X219066D01*
X219000Y244068D01*
X218930Y244165D01*
X218813Y244397D01*
X218836Y244618D01*
X219069Y245178D01*
X219177Y246000D01*
X219069Y246822D01*
X218751Y247588D01*
X218246Y248246D01*
X217588Y248751D01*
X216822Y249068D01*
X216500Y249111D01*
Y252889D01*
X216822Y252931D01*
X217588Y253249D01*
X218246Y253754D01*
X218751Y254412D01*
X219069Y255178D01*
X219177Y256000D01*
X219069Y256822D01*
X218751Y257588D01*
X218246Y258246D01*
X217588Y258751D01*
X216822Y259068D01*
X216500Y259111D01*
Y261500D01*
X219500Y264500D01*
X225721D01*
X226332Y264247D01*
X227000Y264159D01*
X227668Y264247D01*
X228279Y264500D01*
X233000D01*
Y262333D01*
D02*
G37*
G36*
X112000Y180000D02*
X116260D01*
Y177654D01*
X120000D01*
Y177260D01*
X120394D01*
Y173913D01*
X121260D01*
X121451Y173451D01*
X120500Y172500D01*
X110000D01*
X109655Y172155D01*
X109155Y172362D01*
Y175157D01*
X98845D01*
Y171713D01*
X98990Y170983D01*
X99404Y170364D01*
X100022Y169951D01*
X100636Y169829D01*
X101000Y169500D01*
Y162000D01*
X98500Y159500D01*
X78500D01*
Y165113D01*
X78916Y165391D01*
X79142Y165297D01*
X79606Y165236D01*
Y168500D01*
Y171764D01*
X79142Y171703D01*
X78916Y171609D01*
X78500Y171887D01*
Y174500D01*
X81500Y177500D01*
X85782D01*
X85799Y177007D01*
X85031Y176854D01*
X84380Y176419D01*
X83945Y175768D01*
X83871Y175394D01*
X94027D01*
X93953Y175768D01*
X93518Y176419D01*
X92866Y176854D01*
X92542Y176919D01*
X92591Y177419D01*
X96212D01*
X96828Y177500D01*
X97500D01*
X98383Y178383D01*
X98845Y178192D01*
Y175945D01*
X109155D01*
Y179390D01*
X109010Y180119D01*
X108755Y180500D01*
X109023Y181000D01*
X111000D01*
X112000Y180000D01*
D02*
G37*
G36*
X120164Y124536D02*
X119972Y124074D01*
X96260D01*
X96105Y124574D01*
X96595Y125213D01*
X96753Y125595D01*
X119105D01*
X120164Y124536D01*
D02*
G37*
G36*
X132000Y259500D02*
X133367Y258133D01*
X133071Y257691D01*
X132934Y257000D01*
X133071Y256309D01*
X133463Y255723D01*
X134049Y255331D01*
X134740Y255194D01*
X141433D01*
X142124Y255331D01*
X142519Y255595D01*
X143500D01*
X144038Y255702D01*
X144493Y256007D01*
X145244Y256757D01*
X148934Y253066D01*
Y237434D01*
X145000Y233500D01*
X142377D01*
X142124Y233669D01*
X141433Y233806D01*
X134740D01*
X134049Y233669D01*
X133796Y233500D01*
X131500D01*
X129500Y235500D01*
Y236500D01*
Y245500D01*
X118500D01*
Y263500D01*
X120503D01*
X120760Y263106D01*
X120760Y263000D01*
Y260154D01*
X128240D01*
Y263000D01*
X128240Y263106D01*
X128497Y263500D01*
X132000D01*
Y259500D01*
D02*
G37*
%LPC*%
G36*
X279189Y221606D02*
X274307D01*
Y219993D01*
X277260D01*
X278028Y220146D01*
X278679Y220581D01*
X279114Y221232D01*
X279189Y221606D01*
D02*
G37*
G36*
X370020D02*
X365138D01*
X365213Y221232D01*
X365648Y220581D01*
X366299Y220146D01*
X367067Y219993D01*
X370020D01*
Y221606D01*
D02*
G37*
G36*
X25606Y223366D02*
X22260D01*
Y220413D01*
X25606D01*
Y223366D01*
D02*
G37*
G36*
X375689Y221606D02*
X370807D01*
Y219993D01*
X373760D01*
X374528Y220146D01*
X375179Y220581D01*
X375614Y221232D01*
X375689Y221606D01*
D02*
G37*
G36*
X285106Y223366D02*
X281760D01*
Y220413D01*
X285106D01*
Y223366D01*
D02*
G37*
G36*
X185106D02*
X181760D01*
Y220413D01*
X185106D01*
Y223366D01*
D02*
G37*
G36*
X289240D02*
X285894D01*
Y220413D01*
X289240D01*
Y223366D01*
D02*
G37*
G36*
X385240D02*
X381894D01*
Y220413D01*
X385240D01*
Y223366D01*
D02*
G37*
G36*
X381106D02*
X377760D01*
Y220413D01*
X381106D01*
Y223366D01*
D02*
G37*
G36*
X89740D02*
X86394D01*
Y220413D01*
X89740D01*
Y223366D01*
D02*
G37*
G36*
X128240Y223366D02*
X124894D01*
Y220413D01*
X128240D01*
Y223366D01*
D02*
G37*
G36*
X124106D02*
X120760D01*
Y220413D01*
X124106D01*
Y223366D01*
D02*
G37*
G36*
X226606D02*
X223260D01*
Y220413D01*
X226606D01*
Y223366D01*
D02*
G37*
G36*
X85606Y223366D02*
X82260D01*
Y220413D01*
X85606D01*
Y223366D01*
D02*
G37*
G36*
X322606Y223366D02*
X319260D01*
Y220413D01*
X322606D01*
Y223366D01*
D02*
G37*
G36*
X273520Y221606D02*
X268638D01*
X268713Y221232D01*
X269148Y220581D01*
X269799Y220146D01*
X270567Y219993D01*
X273520D01*
Y221606D01*
D02*
G37*
G36*
X291512Y189705D02*
X286394D01*
Y184193D01*
X291512D01*
Y189705D01*
D02*
G37*
G36*
X285606D02*
X280488D01*
Y184193D01*
X285606D01*
Y189705D01*
D02*
G37*
G36*
X291512Y196004D02*
X286394D01*
Y190492D01*
X291512D01*
Y196004D01*
D02*
G37*
G36*
X285606D02*
X280488D01*
Y190492D01*
X285606D01*
Y196004D01*
D02*
G37*
G36*
X271724Y185508D02*
X267886D01*
Y182949D01*
X271724D01*
Y185508D01*
D02*
G37*
G36*
X267098Y182161D02*
X263260D01*
Y179602D01*
X267098D01*
Y182161D01*
D02*
G37*
G36*
X229740Y180087D02*
X226394D01*
Y177134D01*
X229740D01*
Y180087D01*
D02*
G37*
G36*
X267098Y185508D02*
X263260D01*
Y182949D01*
X267098D01*
Y185508D01*
D02*
G37*
G36*
X271724Y182161D02*
X267886D01*
Y179602D01*
X271724D01*
Y182161D01*
D02*
G37*
G36*
X79689Y221106D02*
X74807D01*
Y219493D01*
X77760D01*
X78528Y219646D01*
X79179Y220081D01*
X79614Y220732D01*
X79689Y221106D01*
D02*
G37*
G36*
X198000Y212574D02*
X197075Y212452D01*
X196213Y212095D01*
X195473Y211527D01*
X194905Y210787D01*
X194548Y209925D01*
X194426Y209000D01*
X194548Y208075D01*
X194905Y207213D01*
X195473Y206473D01*
X196213Y205905D01*
X197075Y205548D01*
X198000Y205426D01*
X198925Y205548D01*
X199787Y205905D01*
X200527Y206473D01*
X201095Y207213D01*
X201452Y208075D01*
X201574Y209000D01*
X201452Y209925D01*
X201095Y210787D01*
X200527Y211527D01*
X199787Y212095D01*
X198925Y212452D01*
X198000Y212574D01*
D02*
G37*
G36*
X179189Y221606D02*
X174307D01*
Y219993D01*
X177260D01*
X178028Y220146D01*
X178679Y220581D01*
X179114Y221232D01*
X179189Y221606D01*
D02*
G37*
G36*
X173520D02*
X168638D01*
X168713Y221232D01*
X169148Y220581D01*
X169799Y220146D01*
X170567Y219993D01*
X173520D01*
Y221606D01*
D02*
G37*
G36*
X188000Y212574D02*
X187075Y212452D01*
X186213Y212095D01*
X185473Y211527D01*
X184905Y210787D01*
X184548Y209925D01*
X184426Y209000D01*
X184548Y208075D01*
X184905Y207213D01*
X185473Y206473D01*
X186213Y205905D01*
X187075Y205548D01*
X188000Y205426D01*
X188925Y205548D01*
X189787Y205905D01*
X190527Y206473D01*
X191095Y207213D01*
X191452Y208075D01*
X191574Y209000D01*
X191452Y209925D01*
X191095Y210787D01*
X190527Y211527D01*
X189787Y212095D01*
X188925Y212452D01*
X188000Y212574D01*
D02*
G37*
G36*
X158000D02*
X157075Y212452D01*
X156213Y212095D01*
X155473Y211527D01*
X154905Y210787D01*
X154548Y209925D01*
X154426Y209000D01*
X154548Y208075D01*
X154905Y207213D01*
X155473Y206473D01*
X156213Y205905D01*
X157075Y205548D01*
X158000Y205426D01*
X158925Y205548D01*
X159787Y205905D01*
X160527Y206473D01*
X161095Y207213D01*
X161452Y208075D01*
X161574Y209000D01*
X161452Y209925D01*
X161095Y210787D01*
X160527Y211527D01*
X159787Y212095D01*
X158925Y212452D01*
X158000Y212574D01*
D02*
G37*
G36*
X148000D02*
X147075Y212452D01*
X146213Y212095D01*
X145473Y211527D01*
X144905Y210787D01*
X144548Y209925D01*
X144426Y209000D01*
X144548Y208075D01*
X144905Y207213D01*
X145473Y206473D01*
X146213Y205905D01*
X147075Y205548D01*
X148000Y205426D01*
X148925Y205548D01*
X149787Y205905D01*
X150527Y206473D01*
X151095Y207213D01*
X151452Y208075D01*
X151574Y209000D01*
X151452Y209925D01*
X151095Y210787D01*
X150527Y211527D01*
X149787Y212095D01*
X148925Y212452D01*
X148000Y212574D01*
D02*
G37*
G36*
X178000D02*
X177075Y212452D01*
X176213Y212095D01*
X175473Y211527D01*
X174905Y210787D01*
X174548Y209925D01*
X174426Y209000D01*
X174548Y208075D01*
X174905Y207213D01*
X175473Y206473D01*
X176213Y205905D01*
X177075Y205548D01*
X178000Y205426D01*
X178925Y205548D01*
X179787Y205905D01*
X180527Y206473D01*
X181095Y207213D01*
X181452Y208075D01*
X181574Y209000D01*
X181452Y209925D01*
X181095Y210787D01*
X180527Y211527D01*
X179787Y212095D01*
X178925Y212452D01*
X178000Y212574D01*
D02*
G37*
G36*
X168000D02*
X167075Y212452D01*
X166213Y212095D01*
X165473Y211527D01*
X164905Y210787D01*
X164548Y209925D01*
X164426Y209000D01*
X164548Y208075D01*
X164905Y207213D01*
X165473Y206473D01*
X166213Y205905D01*
X167075Y205548D01*
X168000Y205426D01*
X168925Y205548D01*
X169787Y205905D01*
X170527Y206473D01*
X171095Y207213D01*
X171452Y208075D01*
X171574Y209000D01*
X171452Y209925D01*
X171095Y210787D01*
X170527Y211527D01*
X169787Y212095D01*
X168925Y212452D01*
X168000Y212574D01*
D02*
G37*
G36*
X381106Y234587D02*
X377760D01*
Y231634D01*
X381106D01*
Y234587D01*
D02*
G37*
G36*
X285106D02*
X281760D01*
Y231634D01*
X285106D01*
Y234587D01*
D02*
G37*
G36*
X99500Y239177D02*
X98678Y239069D01*
X97912Y238751D01*
X97254Y238246D01*
X96749Y237588D01*
X96431Y236822D01*
X96323Y236000D01*
X96431Y235178D01*
X96749Y234412D01*
X97254Y233754D01*
X97912Y233249D01*
X98678Y232931D01*
X99500Y232823D01*
X100322Y232931D01*
X101088Y233249D01*
X101746Y233754D01*
X102251Y234412D01*
X102568Y235178D01*
X102677Y236000D01*
X102568Y236822D01*
X102251Y237588D01*
X101746Y238246D01*
X101088Y238751D01*
X100322Y239069D01*
X99500Y239177D01*
D02*
G37*
G36*
X198000D02*
X197178Y239069D01*
X196412Y238751D01*
X195754Y238246D01*
X195249Y237588D01*
X194931Y236822D01*
X194823Y236000D01*
X194931Y235178D01*
X195249Y234412D01*
X195754Y233754D01*
X196412Y233249D01*
X197178Y232931D01*
X198000Y232823D01*
X198822Y232931D01*
X199588Y233249D01*
X200246Y233754D01*
X200751Y234412D01*
X201068Y235178D01*
X201177Y236000D01*
X201068Y236822D01*
X200751Y237588D01*
X200246Y238246D01*
X199588Y238751D01*
X198822Y239069D01*
X198000Y239177D01*
D02*
G37*
G36*
X114500D02*
X113678Y239069D01*
X112912Y238751D01*
X112254Y238246D01*
X111749Y237588D01*
X111432Y236822D01*
X111323Y236000D01*
X111432Y235178D01*
X111749Y234412D01*
X112254Y233754D01*
X112912Y233249D01*
X113678Y232931D01*
X114500Y232823D01*
X115322Y232931D01*
X116088Y233249D01*
X116746Y233754D01*
X117251Y234412D01*
X117569Y235178D01*
X117677Y236000D01*
X117569Y236822D01*
X117251Y237588D01*
X116746Y238246D01*
X116088Y238751D01*
X115322Y239069D01*
X114500Y239177D01*
D02*
G37*
G36*
X381106Y230847D02*
X377760D01*
Y227894D01*
X381106D01*
Y230847D01*
D02*
G37*
G36*
X285106D02*
X281760D01*
Y227894D01*
X285106D01*
Y230847D01*
D02*
G37*
G36*
X85606Y234587D02*
X82260D01*
Y231634D01*
X85606D01*
Y234587D01*
D02*
G37*
G36*
X189240D02*
X185894D01*
Y231634D01*
X189240D01*
Y234587D01*
D02*
G37*
G36*
X185106D02*
X181760D01*
Y231634D01*
X185106D01*
Y234587D01*
D02*
G37*
G36*
X216000Y239177D02*
X215178Y239069D01*
X214412Y238751D01*
X213754Y238246D01*
X213249Y237588D01*
X212931Y236822D01*
X212823Y236000D01*
X212931Y235178D01*
X213249Y234412D01*
X213754Y233754D01*
X214412Y233249D01*
X215178Y232931D01*
X216000Y232823D01*
X216822Y232931D01*
X217588Y233249D01*
X218246Y233754D01*
X218751Y234412D01*
X219069Y235178D01*
X219177Y236000D01*
X219069Y236822D01*
X218751Y237588D01*
X218246Y238246D01*
X217588Y238751D01*
X216822Y239069D01*
X216000Y239177D01*
D02*
G37*
G36*
X173520Y236606D02*
X168638D01*
X168713Y236232D01*
X169148Y235581D01*
X169799Y235146D01*
X170567Y234993D01*
X173520D01*
Y236606D01*
D02*
G37*
G36*
X143362D02*
X138480D01*
Y234993D01*
X141433D01*
X142201Y235146D01*
X142852Y235581D01*
X143287Y236232D01*
X143362Y236606D01*
D02*
G37*
G36*
X179189D02*
X174307D01*
Y234993D01*
X177260D01*
X178028Y235146D01*
X178679Y235581D01*
X179114Y236232D01*
X179189Y236606D01*
D02*
G37*
G36*
X243362D02*
X238480D01*
Y234993D01*
X241433D01*
X242201Y235146D01*
X242852Y235581D01*
X243287Y236232D01*
X243362Y236606D01*
D02*
G37*
G36*
X237693D02*
X232811D01*
X232886Y236232D01*
X233321Y235581D01*
X233972Y235146D01*
X234740Y234993D01*
X237693D01*
Y236606D01*
D02*
G37*
G36*
X313500Y239177D02*
X312678Y239069D01*
X311912Y238751D01*
X311254Y238246D01*
X310749Y237588D01*
X310432Y236822D01*
X310323Y236000D01*
X310432Y235178D01*
X310749Y234412D01*
X311254Y233754D01*
X311912Y233249D01*
X312678Y232931D01*
X313500Y232823D01*
X314322Y232931D01*
X315088Y233249D01*
X315746Y233754D01*
X316251Y234412D01*
X316568Y235178D01*
X316677Y236000D01*
X316568Y236822D01*
X316251Y237588D01*
X315746Y238246D01*
X315088Y238751D01*
X314322Y239069D01*
X313500Y239177D01*
D02*
G37*
G36*
X295500D02*
X294678Y239069D01*
X293912Y238751D01*
X293254Y238246D01*
X292749Y237588D01*
X292431Y236822D01*
X292323Y236000D01*
X292431Y235178D01*
X292749Y234412D01*
X293254Y233754D01*
X293912Y233249D01*
X294678Y232931D01*
X295500Y232823D01*
X296322Y232931D01*
X297088Y233249D01*
X297746Y233754D01*
X298251Y234412D01*
X298569Y235178D01*
X298677Y236000D01*
X298569Y236822D01*
X298251Y237588D01*
X297746Y238246D01*
X297088Y238751D01*
X296322Y239069D01*
X295500Y239177D01*
D02*
G37*
G36*
X74020Y236106D02*
X69138D01*
X69213Y235732D01*
X69648Y235081D01*
X70299Y234646D01*
X71067Y234493D01*
X74020D01*
Y236106D01*
D02*
G37*
G36*
X137693Y236606D02*
X132811D01*
X132886Y236232D01*
X133321Y235581D01*
X133972Y235146D01*
X134740Y234993D01*
X137693D01*
Y236606D01*
D02*
G37*
G36*
X79689Y236106D02*
X74807D01*
Y234493D01*
X77760D01*
X78528Y234646D01*
X79179Y235081D01*
X79614Y235732D01*
X79689Y236106D01*
D02*
G37*
G36*
X215606Y225606D02*
X212653D01*
Y222654D01*
X215606D01*
Y225606D01*
D02*
G37*
G36*
X17346D02*
X14394D01*
Y222654D01*
X17346D01*
Y225606D01*
D02*
G37*
G36*
X219346D02*
X216394D01*
Y222654D01*
X219346D01*
Y225606D01*
D02*
G37*
G36*
X316846D02*
X313894D01*
Y222654D01*
X316846D01*
Y225606D01*
D02*
G37*
G36*
X313106D02*
X310154D01*
Y222654D01*
X313106D01*
Y225606D01*
D02*
G37*
G36*
X173520Y224007D02*
X170567D01*
X169799Y223854D01*
X169148Y223419D01*
X168713Y222768D01*
X168638Y222394D01*
X173520D01*
Y224007D01*
D02*
G37*
G36*
X77760Y223507D02*
X74807D01*
Y221894D01*
X79689D01*
X79614Y222268D01*
X79179Y222919D01*
X78528Y223354D01*
X77760Y223507D01*
D02*
G37*
G36*
X177260Y224007D02*
X174307D01*
Y222394D01*
X179189D01*
X179114Y222768D01*
X178679Y223419D01*
X178028Y223854D01*
X177260Y224007D01*
D02*
G37*
G36*
X373760D02*
X370807D01*
Y222394D01*
X375689D01*
X375614Y222768D01*
X375179Y223419D01*
X374528Y223854D01*
X373760Y224007D01*
D02*
G37*
G36*
X370020D02*
X367067D01*
X366299Y223854D01*
X365648Y223419D01*
X365213Y222768D01*
X365138Y222394D01*
X370020D01*
Y224007D01*
D02*
G37*
G36*
X124106Y227106D02*
X120760D01*
Y224153D01*
X124106D01*
Y227106D01*
D02*
G37*
G36*
X313106Y229346D02*
X310154D01*
Y226394D01*
X313106D01*
Y229346D01*
D02*
G37*
G36*
X219346D02*
X216394D01*
Y226394D01*
X219346D01*
Y229346D01*
D02*
G37*
G36*
X316846D02*
X313894D01*
Y226394D01*
X316846D01*
Y229346D01*
D02*
G37*
G36*
X185106Y230847D02*
X181760D01*
Y227894D01*
X185106D01*
Y230847D01*
D02*
G37*
G36*
X85606D02*
X82260D01*
Y227894D01*
X85606D01*
Y230847D01*
D02*
G37*
G36*
X322606Y227106D02*
X319260D01*
Y224153D01*
X322606D01*
Y227106D01*
D02*
G37*
G36*
X226606D02*
X223260D01*
Y224153D01*
X226606D01*
Y227106D01*
D02*
G37*
G36*
X14394Y229346D02*
Y226394D01*
X17346D01*
Y229346D01*
X14394D01*
D02*
G37*
G36*
X215606D02*
X212653D01*
Y226394D01*
X215606D01*
Y229346D01*
D02*
G37*
G36*
X117847D02*
X114894D01*
Y226394D01*
X117847D01*
Y229346D01*
D02*
G37*
G36*
X159394Y131264D02*
Y128000D01*
Y124736D01*
X159858Y124797D01*
X160658Y125128D01*
X161345Y125655D01*
X161413Y125745D01*
X161913Y125575D01*
Y123760D01*
X164866D01*
Y127500D01*
Y131240D01*
X161913D01*
Y130425D01*
X161413Y130255D01*
X161345Y130345D01*
X160658Y130871D01*
X159858Y131203D01*
X159394Y131264D01*
D02*
G37*
G36*
X133106Y127106D02*
X130154D01*
Y123760D01*
X133106D01*
Y127106D01*
D02*
G37*
G36*
X168606D02*
X165654D01*
Y123760D01*
X168606D01*
Y127106D01*
D02*
G37*
G36*
X129366Y131240D02*
X126413D01*
Y127894D01*
X129366D01*
Y131240D01*
D02*
G37*
G36*
X183394Y132264D02*
Y129000D01*
Y125736D01*
X183858Y125797D01*
X184658Y126128D01*
X185345Y126655D01*
X185872Y127342D01*
X185913Y127443D01*
X186413Y127344D01*
Y123760D01*
X189366D01*
Y127500D01*
Y131240D01*
X186413D01*
Y130656D01*
X185913Y130557D01*
X185872Y130658D01*
X185345Y131345D01*
X184658Y131871D01*
X183858Y132203D01*
X183394Y132264D01*
D02*
G37*
G36*
X58106Y111764D02*
X57642Y111703D01*
X56842Y111372D01*
X56155Y110845D01*
X55629Y110158D01*
X55297Y109358D01*
X55236Y108894D01*
X58106D01*
Y111764D01*
D02*
G37*
G36*
X97394Y111264D02*
Y108394D01*
X100264D01*
X100203Y108858D01*
X99871Y109658D01*
X99345Y110345D01*
X98658Y110872D01*
X97858Y111203D01*
X97394Y111264D01*
D02*
G37*
G36*
X58894Y111764D02*
Y108894D01*
X61764D01*
X61703Y109358D01*
X61371Y110158D01*
X60845Y110845D01*
X60158Y111372D01*
X59358Y111703D01*
X58894Y111764D01*
D02*
G37*
G36*
X53500Y130574D02*
X52575Y130452D01*
X51713Y130095D01*
X50973Y129527D01*
X50405Y128787D01*
X50048Y127925D01*
X49926Y127000D01*
X50048Y126075D01*
X50206Y125693D01*
X47506Y122994D01*
X47202Y122538D01*
X47095Y122000D01*
Y90082D01*
X32556Y75543D01*
X27850D01*
Y68457D01*
X34150D01*
Y73163D01*
X49494Y88507D01*
X49798Y88962D01*
X49905Y89500D01*
Y121418D01*
X52193Y123706D01*
X52575Y123548D01*
X53500Y123426D01*
X54425Y123548D01*
X55287Y123905D01*
X56027Y124473D01*
X56595Y125213D01*
X56952Y126075D01*
X57074Y127000D01*
X56952Y127925D01*
X56595Y128787D01*
X56027Y129527D01*
X55287Y130095D01*
X54425Y130452D01*
X53500Y130574D01*
D02*
G37*
G36*
X149106Y113106D02*
X146236D01*
X146297Y112642D01*
X146628Y111842D01*
X147155Y111155D01*
X147842Y110628D01*
X148642Y110297D01*
X149106Y110236D01*
Y113106D01*
D02*
G37*
G36*
X83500Y140574D02*
X82575Y140452D01*
X81713Y140095D01*
X80973Y139527D01*
X80405Y138787D01*
X80048Y137925D01*
X79926Y137000D01*
X80048Y136075D01*
X80405Y135213D01*
X80973Y134473D01*
X81713Y133905D01*
X82575Y133548D01*
X83500Y133426D01*
X84425Y133548D01*
X85287Y133905D01*
X86027Y134473D01*
X86595Y135213D01*
X86952Y136075D01*
X87074Y137000D01*
X86952Y137925D01*
X86595Y138787D01*
X86027Y139527D01*
X85287Y140095D01*
X84425Y140452D01*
X83500Y140574D01*
D02*
G37*
G36*
X73500D02*
X72575Y140452D01*
X71713Y140095D01*
X70973Y139527D01*
X70405Y138787D01*
X70048Y137925D01*
X69926Y137000D01*
X70048Y136075D01*
X70405Y135213D01*
X70973Y134473D01*
X71713Y133905D01*
X72575Y133548D01*
X73500Y133426D01*
X74425Y133548D01*
X75287Y133905D01*
X76027Y134473D01*
X76595Y135213D01*
X76952Y136075D01*
X77074Y137000D01*
X76952Y137925D01*
X76595Y138787D01*
X76027Y139527D01*
X75287Y140095D01*
X74425Y140452D01*
X73500Y140574D01*
D02*
G37*
G36*
X93500D02*
X92575Y140452D01*
X91713Y140095D01*
X90973Y139527D01*
X90405Y138787D01*
X90048Y137925D01*
X89926Y137000D01*
X90048Y136075D01*
X90405Y135213D01*
X90973Y134473D01*
X91713Y133905D01*
X92575Y133548D01*
X93500Y133426D01*
X94425Y133548D01*
X95287Y133905D01*
X96027Y134473D01*
X96595Y135213D01*
X96952Y136075D01*
X97074Y137000D01*
X96952Y137925D01*
X96595Y138787D01*
X96027Y139527D01*
X95287Y140095D01*
X94425Y140452D01*
X93500Y140574D01*
D02*
G37*
G36*
X134221Y137606D02*
X130894D01*
Y134279D01*
X131476Y134356D01*
X132386Y134733D01*
X133168Y135333D01*
X133767Y136114D01*
X134144Y137024D01*
X134221Y137606D01*
D02*
G37*
G36*
X130106D02*
X126779D01*
X126856Y137024D01*
X127233Y136114D01*
X127832Y135333D01*
X128614Y134733D01*
X129524Y134356D01*
X130106Y134279D01*
Y137606D01*
D02*
G37*
G36*
X168606Y131240D02*
X165654D01*
Y127894D01*
X168606D01*
Y131240D01*
D02*
G37*
G36*
X133106D02*
X130154D01*
Y127894D01*
X133106D01*
Y131240D01*
D02*
G37*
G36*
X23500Y140574D02*
X22575Y140452D01*
X21713Y140095D01*
X20973Y139527D01*
X20405Y138787D01*
X20048Y137925D01*
X19926Y137000D01*
X20048Y136075D01*
X20405Y135213D01*
X20973Y134473D01*
X21713Y133905D01*
X22575Y133548D01*
X23500Y133426D01*
X24425Y133548D01*
X25287Y133905D01*
X26027Y134473D01*
X26595Y135213D01*
X26952Y136075D01*
X27074Y137000D01*
X26952Y137925D01*
X26595Y138787D01*
X26027Y139527D01*
X25287Y140095D01*
X24425Y140452D01*
X23500Y140574D01*
D02*
G37*
G36*
X63500D02*
X62575Y140452D01*
X61713Y140095D01*
X60973Y139527D01*
X60405Y138787D01*
X60048Y137925D01*
X59926Y137000D01*
X60048Y136075D01*
X60405Y135213D01*
X60973Y134473D01*
X61713Y133905D01*
X62575Y133548D01*
X63500Y133426D01*
X64425Y133548D01*
X65287Y133905D01*
X66027Y134473D01*
X66595Y135213D01*
X66952Y136075D01*
X67074Y137000D01*
X66952Y137925D01*
X66595Y138787D01*
X66027Y139527D01*
X65287Y140095D01*
X64425Y140452D01*
X63500Y140574D01*
D02*
G37*
G36*
X53500D02*
X52575Y140452D01*
X51713Y140095D01*
X50973Y139527D01*
X50405Y138787D01*
X50048Y137925D01*
X49926Y137000D01*
X50048Y136075D01*
X50405Y135213D01*
X50973Y134473D01*
X51713Y133905D01*
X52575Y133548D01*
X53500Y133426D01*
X54425Y133548D01*
X55287Y133905D01*
X56027Y134473D01*
X56595Y135213D01*
X56952Y136075D01*
X57074Y137000D01*
X56952Y137925D01*
X56595Y138787D01*
X56027Y139527D01*
X55287Y140095D01*
X54425Y140452D01*
X53500Y140574D01*
D02*
G37*
G36*
X26669Y85543D02*
X20370D01*
Y83405D01*
X16827D01*
X16751Y83588D01*
X16246Y84246D01*
X15588Y84751D01*
X14822Y85069D01*
X14000Y85177D01*
X13178Y85069D01*
X12412Y84751D01*
X11754Y84246D01*
X11249Y83588D01*
X10932Y82822D01*
X10823Y82000D01*
X10932Y81178D01*
X11249Y80412D01*
X11754Y79754D01*
X12412Y79249D01*
X13178Y78931D01*
X14000Y78823D01*
X14822Y78931D01*
X15588Y79249D01*
X16246Y79754D01*
X16751Y80412D01*
X16827Y80595D01*
X20370D01*
Y78457D01*
X26669D01*
Y85543D01*
D02*
G37*
G36*
X43500Y130574D02*
X42575Y130452D01*
X41713Y130095D01*
X40973Y129527D01*
X40405Y128787D01*
X40048Y127925D01*
X39926Y127000D01*
X40048Y126075D01*
X40405Y125213D01*
X40973Y124473D01*
X41713Y123905D01*
X42095Y123747D01*
Y94842D01*
X32797Y85543D01*
X27850D01*
Y78457D01*
X34150D01*
Y82923D01*
X44493Y93266D01*
X44798Y93722D01*
X44905Y94260D01*
Y123747D01*
X45287Y123905D01*
X46027Y124473D01*
X46595Y125213D01*
X46952Y126075D01*
X47074Y127000D01*
X46952Y127925D01*
X46595Y128787D01*
X46027Y129527D01*
X45287Y130095D01*
X44425Y130452D01*
X43500Y130574D01*
D02*
G37*
G36*
X26669Y96043D02*
X20370D01*
Y93405D01*
X16827D01*
X16751Y93588D01*
X16246Y94246D01*
X15588Y94751D01*
X14822Y95069D01*
X14000Y95177D01*
X13178Y95069D01*
X12412Y94751D01*
X11754Y94246D01*
X11249Y93588D01*
X10932Y92822D01*
X10823Y92000D01*
X10932Y91178D01*
X11249Y90412D01*
X11754Y89754D01*
X12412Y89249D01*
X13178Y88932D01*
X14000Y88823D01*
X14822Y88932D01*
X15588Y89249D01*
X16246Y89754D01*
X16751Y90412D01*
X16827Y90595D01*
X20370D01*
Y88957D01*
X26669D01*
Y96043D01*
D02*
G37*
G36*
X14000Y105177D02*
X13178Y105069D01*
X12412Y104751D01*
X11754Y104246D01*
X11249Y103588D01*
X10932Y102822D01*
X10823Y102000D01*
X10932Y101178D01*
X11249Y100412D01*
X11754Y99754D01*
X12412Y99249D01*
X13178Y98931D01*
X14000Y98823D01*
X14822Y98931D01*
X15588Y99249D01*
X16246Y99754D01*
X16751Y100412D01*
X16827Y100595D01*
X20370D01*
Y97957D01*
X26669D01*
Y105043D01*
X20370D01*
Y103405D01*
X16827D01*
X16751Y103588D01*
X16246Y104246D01*
X15588Y104751D01*
X14822Y105069D01*
X14000Y105177D01*
D02*
G37*
G36*
X33500Y130574D02*
X32575Y130452D01*
X31713Y130095D01*
X30973Y129527D01*
X30405Y128787D01*
X30048Y127925D01*
X29926Y127000D01*
X30048Y126075D01*
X30405Y125213D01*
X30973Y124473D01*
X31713Y123905D01*
X32575Y123548D01*
X33500Y123426D01*
X34425Y123548D01*
X34807Y123706D01*
X35835Y122678D01*
Y96070D01*
X34611Y94846D01*
X34150Y95038D01*
Y96043D01*
X27850D01*
Y88957D01*
X34150D01*
Y90443D01*
X34245Y90507D01*
X38234Y94495D01*
X38538Y94950D01*
X38645Y95488D01*
Y123260D01*
X38538Y123798D01*
X38234Y124253D01*
X36794Y125693D01*
X36952Y126075D01*
X37074Y127000D01*
X36952Y127925D01*
X36595Y128787D01*
X36027Y129527D01*
X35287Y130095D01*
X34425Y130452D01*
X33500Y130574D01*
D02*
G37*
G36*
X174587Y67606D02*
X171634D01*
Y64260D01*
X174587D01*
Y67606D01*
D02*
G37*
G36*
X170846D02*
X167894D01*
Y64260D01*
X170846D01*
Y67606D01*
D02*
G37*
G36*
Y71740D02*
X167894D01*
Y68394D01*
X170846D01*
Y71740D01*
D02*
G37*
G36*
X187587D02*
X184634D01*
Y68394D01*
X187587D01*
Y71740D01*
D02*
G37*
G36*
X174587D02*
X171634D01*
Y68394D01*
X174587D01*
Y71740D01*
D02*
G37*
G36*
X61764Y108106D02*
X58894D01*
Y105236D01*
X59358Y105297D01*
X60158Y105629D01*
X60845Y106155D01*
X61371Y106842D01*
X61703Y107642D01*
X61764Y108106D01*
D02*
G37*
G36*
X58106D02*
X55236D01*
X55297Y107642D01*
X55629Y106842D01*
X56155Y106155D01*
X56842Y105629D01*
X57642Y105297D01*
X58106Y105236D01*
Y108106D01*
D02*
G37*
G36*
X77106Y111264D02*
X76642Y111203D01*
X75842Y110872D01*
X75155Y110345D01*
X74629Y109658D01*
X74297Y108858D01*
X74236Y108394D01*
X77106D01*
Y111264D01*
D02*
G37*
G36*
X96606D02*
X96142Y111203D01*
X95342Y110872D01*
X94655Y110345D01*
X94129Y109658D01*
X93797Y108858D01*
X93736Y108394D01*
X96606D01*
Y111264D01*
D02*
G37*
G36*
X77894D02*
Y108394D01*
X80764D01*
X80703Y108858D01*
X80371Y109658D01*
X79845Y110345D01*
X79158Y110872D01*
X78358Y111203D01*
X77894Y111264D01*
D02*
G37*
G36*
X77106Y107606D02*
X74236D01*
X74297Y107142D01*
X74629Y106342D01*
X75155Y105655D01*
X75842Y105129D01*
X76642Y104797D01*
X77106Y104736D01*
Y107606D01*
D02*
G37*
G36*
X27043Y130543D02*
X19957D01*
Y123457D01*
X25056D01*
X30335Y118178D01*
Y105043D01*
X27850D01*
Y97957D01*
X34150D01*
Y105043D01*
X33145D01*
Y118760D01*
X33038Y119298D01*
X32734Y119753D01*
X27043Y125444D01*
Y130543D01*
D02*
G37*
G36*
X80764Y107606D02*
X77894D01*
Y104736D01*
X78358Y104797D01*
X79158Y105129D01*
X79845Y105655D01*
X80371Y106342D01*
X80703Y107142D01*
X80764Y107606D01*
D02*
G37*
G36*
X100264D02*
X97394D01*
Y104736D01*
X97858Y104797D01*
X98658Y105129D01*
X99345Y105655D01*
X99871Y106342D01*
X100203Y107142D01*
X100264Y107606D01*
D02*
G37*
G36*
X96606D02*
X93736D01*
X93797Y107142D01*
X94129Y106342D01*
X94655Y105655D01*
X95342Y105129D01*
X96142Y104797D01*
X96606Y104736D01*
Y107606D01*
D02*
G37*
G36*
X140500Y141574D02*
X139575Y141452D01*
X138713Y141095D01*
X137973Y140527D01*
X137405Y139787D01*
X137048Y138925D01*
X136926Y138000D01*
X137048Y137075D01*
X137405Y136213D01*
X137973Y135473D01*
X138713Y134905D01*
X139575Y134548D01*
X140500Y134426D01*
X141425Y134548D01*
X142287Y134905D01*
X143027Y135473D01*
X143595Y136213D01*
X143952Y137075D01*
X144074Y138000D01*
X143952Y138925D01*
X143595Y139787D01*
X143027Y140527D01*
X142287Y141095D01*
X141425Y141452D01*
X140500Y141574D01*
D02*
G37*
G36*
X80394Y171764D02*
Y168500D01*
Y165236D01*
X80858Y165297D01*
X81334Y165494D01*
X81834Y165160D01*
Y162596D01*
X81945Y162040D01*
X82260Y161567D01*
X82732Y161252D01*
X83289Y161141D01*
X84815D01*
Y165500D01*
Y169859D01*
X83289D01*
X83018Y169805D01*
X82872Y170158D01*
X82345Y170845D01*
X81658Y171371D01*
X80858Y171703D01*
X80394Y171764D01*
D02*
G37*
G36*
X276894Y162264D02*
Y159394D01*
X279764D01*
X279703Y159858D01*
X279372Y160658D01*
X278845Y161345D01*
X278158Y161872D01*
X277358Y162203D01*
X276894Y162264D01*
D02*
G37*
G36*
X88583Y165106D02*
X85602D01*
Y161141D01*
X87128D01*
X87685Y161252D01*
X88157Y161567D01*
X88472Y162040D01*
X88583Y162596D01*
Y165106D01*
D02*
G37*
G36*
X99672Y165106D02*
X96988D01*
Y161143D01*
X98292D01*
X98820Y161248D01*
X99268Y161547D01*
X99567Y161995D01*
X99672Y162523D01*
Y165106D01*
D02*
G37*
G36*
X96201D02*
X93517D01*
Y162523D01*
X93622Y161995D01*
X93921Y161547D01*
X94369Y161248D01*
X94897Y161143D01*
X96201D01*
Y165106D01*
D02*
G37*
G36*
X100394Y157264D02*
Y154394D01*
X103264D01*
X103203Y154858D01*
X102872Y155658D01*
X102345Y156345D01*
X101658Y156871D01*
X100858Y157203D01*
X100394Y157264D01*
D02*
G37*
G36*
X99606D02*
X99142Y157203D01*
X98342Y156871D01*
X97655Y156345D01*
X97128Y155658D01*
X96797Y154858D01*
X96736Y154394D01*
X99606D01*
Y157264D01*
D02*
G37*
G36*
X276106Y158606D02*
X273236D01*
X273297Y158142D01*
X273628Y157342D01*
X274155Y156655D01*
X274842Y156129D01*
X275642Y155797D01*
X276106Y155736D01*
Y158606D01*
D02*
G37*
G36*
Y162264D02*
X275642Y162203D01*
X274842Y161872D01*
X274155Y161345D01*
X273628Y160658D01*
X273297Y159858D01*
X273236Y159394D01*
X276106D01*
Y162264D01*
D02*
G37*
G36*
X279764Y158606D02*
X276894D01*
Y155736D01*
X277358Y155797D01*
X278158Y156129D01*
X278845Y156655D01*
X279372Y157342D01*
X279703Y158142D01*
X279764Y158606D01*
D02*
G37*
G36*
X229740Y168866D02*
X226394D01*
Y165913D01*
X229740D01*
Y168866D01*
D02*
G37*
G36*
X225606D02*
X222260D01*
Y165913D01*
X225606D01*
Y168866D01*
D02*
G37*
G36*
X88555Y174606D02*
X83871D01*
X83945Y174232D01*
X84380Y173581D01*
X85031Y173146D01*
X85799Y172993D01*
X88555D01*
Y174606D01*
D02*
G37*
G36*
X119606Y176866D02*
X116260D01*
Y173913D01*
X119606D01*
Y176866D01*
D02*
G37*
G36*
X94027Y174606D02*
X89342D01*
Y172993D01*
X92098D01*
X92866Y173146D01*
X93518Y173581D01*
X93953Y174232D01*
X94027Y174606D01*
D02*
G37*
G36*
X267098Y164051D02*
X263260D01*
Y161492D01*
X267098D01*
Y164051D01*
D02*
G37*
G36*
X111483Y165106D02*
X108799D01*
Y161143D01*
X110103D01*
X110631Y161248D01*
X111079Y161547D01*
X111378Y161995D01*
X111483Y162523D01*
Y165106D01*
D02*
G37*
G36*
X87128Y169859D02*
X85602D01*
Y165894D01*
X88583D01*
Y168403D01*
X88472Y168960D01*
X88157Y169432D01*
X87685Y169748D01*
X87128Y169859D01*
D02*
G37*
G36*
X98292Y169857D02*
X96988D01*
Y165894D01*
X99672D01*
Y168477D01*
X99567Y169005D01*
X99268Y169453D01*
X98820Y169752D01*
X98292Y169857D01*
D02*
G37*
G36*
X96201D02*
X94897D01*
X94369Y169752D01*
X93921Y169453D01*
X93622Y169005D01*
X93517Y168477D01*
Y165894D01*
X96201D01*
Y169857D01*
D02*
G37*
G36*
X278740Y151347D02*
X275394D01*
Y148394D01*
X278740D01*
Y151347D01*
D02*
G37*
G36*
X168606Y148106D02*
X165654D01*
Y144760D01*
X168606D01*
Y148106D01*
D02*
G37*
G36*
X129866Y152240D02*
X126913D01*
Y148894D01*
X129866D01*
Y152240D01*
D02*
G37*
G36*
X164866D02*
X161913D01*
Y148894D01*
X164866D01*
Y152240D01*
D02*
G37*
G36*
X141087D02*
X138134D01*
Y148894D01*
X141087D01*
Y152240D01*
D02*
G37*
G36*
X130894Y141721D02*
Y138394D01*
X134221D01*
X134144Y138976D01*
X133767Y139886D01*
X133168Y140667D01*
X132386Y141267D01*
X131476Y141644D01*
X130894Y141721D01*
D02*
G37*
G36*
X130106D02*
X129524Y141644D01*
X128614Y141267D01*
X127832Y140667D01*
X127233Y139886D01*
X126856Y138976D01*
X126779Y138394D01*
X130106D01*
Y141721D01*
D02*
G37*
G36*
X43500Y140574D02*
X42575Y140452D01*
X41713Y140095D01*
X41043Y139581D01*
X35957D01*
X35287Y140095D01*
X34425Y140452D01*
X33500Y140574D01*
X32575Y140452D01*
X31713Y140095D01*
X30973Y139527D01*
X30405Y138787D01*
X30048Y137925D01*
X29926Y137000D01*
X30048Y136075D01*
X30405Y135213D01*
X30973Y134473D01*
X31713Y133905D01*
X32575Y133548D01*
X33500Y133426D01*
X34425Y133548D01*
X35287Y133905D01*
X35957Y134419D01*
X41043D01*
X41713Y133905D01*
X42575Y133548D01*
X43500Y133426D01*
X44425Y133548D01*
X45287Y133905D01*
X46027Y134473D01*
X46595Y135213D01*
X46952Y136075D01*
X47074Y137000D01*
X46952Y137925D01*
X46595Y138787D01*
X46027Y139527D01*
X45287Y140095D01*
X44425Y140452D01*
X43500Y140574D01*
D02*
G37*
G36*
X150866Y148106D02*
X147913D01*
Y144760D01*
X150866D01*
Y148106D01*
D02*
G37*
G36*
X129866D02*
X126913D01*
Y144760D01*
X129866D01*
Y148106D01*
D02*
G37*
G36*
X275394Y155087D02*
Y152134D01*
X278740D01*
Y155087D01*
X275394D01*
D02*
G37*
G36*
X103264Y153606D02*
X100394D01*
Y150736D01*
X100858Y150797D01*
X101658Y151128D01*
X102345Y151655D01*
X102872Y152342D01*
X103203Y153142D01*
X103264Y153606D01*
D02*
G37*
G36*
X296106Y155087D02*
X292760D01*
Y152134D01*
X296106D01*
Y155087D01*
D02*
G37*
G36*
X19894Y156721D02*
Y153394D01*
X23221D01*
X23144Y153976D01*
X22767Y154886D01*
X22167Y155667D01*
X21386Y156267D01*
X20476Y156644D01*
X19894Y156721D01*
D02*
G37*
G36*
X19106D02*
X18524Y156644D01*
X17614Y156267D01*
X16833Y155667D01*
X16233Y154886D01*
X15856Y153976D01*
X15779Y153394D01*
X19106D01*
Y156721D01*
D02*
G37*
G36*
Y152606D02*
X15779D01*
X15856Y152024D01*
X16233Y151114D01*
X16833Y150332D01*
X17614Y149733D01*
X18524Y149356D01*
X19106Y149279D01*
Y152606D01*
D02*
G37*
G36*
X168606Y152240D02*
X165654D01*
Y148894D01*
X168606D01*
Y152240D01*
D02*
G37*
G36*
X23221Y152606D02*
X19894D01*
Y149279D01*
X20476Y149356D01*
X21386Y149733D01*
X22167Y150332D01*
X22767Y151114D01*
X23144Y152024D01*
X23221Y152606D01*
D02*
G37*
G36*
X99606Y153606D02*
X96736D01*
X96797Y153142D01*
X97128Y152342D01*
X97655Y151655D01*
X98342Y151128D01*
X99142Y150797D01*
X99606Y150736D01*
Y153606D01*
D02*
G37*
G36*
X11903Y166965D02*
X6097D01*
X5616Y166870D01*
X5209Y166598D01*
X4938Y166191D01*
X4842Y165711D01*
Y161872D01*
X4938Y161392D01*
X5209Y160985D01*
X5616Y160713D01*
X6097Y160618D01*
X7386D01*
Y156543D01*
X5957D01*
Y149457D01*
X13043D01*
Y156543D01*
X10196D01*
Y160618D01*
X11903D01*
X12384Y160713D01*
X12790Y160985D01*
X13062Y161392D01*
X13158Y161872D01*
Y165711D01*
X13062Y166191D01*
X12790Y166598D01*
X12384Y166870D01*
X11903Y166965D01*
D02*
G37*
G36*
X74020Y251106D02*
X69138D01*
X69213Y250732D01*
X69648Y250081D01*
X70299Y249646D01*
X71067Y249493D01*
X74020D01*
Y251106D01*
D02*
G37*
G36*
X43862D02*
X38980D01*
Y249493D01*
X41933D01*
X42701Y249646D01*
X43352Y250081D01*
X43787Y250732D01*
X43862Y251106D01*
D02*
G37*
G36*
X79689D02*
X74807D01*
Y249493D01*
X77760D01*
X78528Y249646D01*
X79179Y250081D01*
X79614Y250732D01*
X79689Y251106D01*
D02*
G37*
G36*
X230740Y252847D02*
X227394D01*
Y249894D01*
X230740D01*
Y252847D01*
D02*
G37*
G36*
X29740D02*
X26394D01*
Y249894D01*
X29740D01*
Y252847D01*
D02*
G37*
G36*
X62894Y251264D02*
Y248394D01*
X65764D01*
X65703Y248858D01*
X65372Y249658D01*
X64845Y250345D01*
X64158Y250871D01*
X63358Y251203D01*
X62894Y251264D01*
D02*
G37*
G36*
X62106D02*
X61642Y251203D01*
X60842Y250871D01*
X60155Y250345D01*
X59628Y249658D01*
X59297Y248858D01*
X59236Y248394D01*
X62106D01*
Y251264D01*
D02*
G37*
G36*
X263606Y251764D02*
X263142Y251703D01*
X262342Y251372D01*
X261655Y250845D01*
X261128Y250158D01*
X260797Y249358D01*
X260736Y248894D01*
X263606D01*
Y251764D01*
D02*
G37*
G36*
X38193Y251106D02*
X33311D01*
X33386Y250732D01*
X33821Y250081D01*
X34472Y249646D01*
X35240Y249493D01*
X38193D01*
Y251106D01*
D02*
G37*
G36*
X264394Y251764D02*
Y248894D01*
X267264D01*
X267203Y249358D01*
X266872Y250158D01*
X266345Y250845D01*
X265658Y251372D01*
X264858Y251703D01*
X264394Y251764D01*
D02*
G37*
G36*
X243362Y251606D02*
X238480D01*
Y249993D01*
X241433D01*
X242201Y250146D01*
X242852Y250581D01*
X243287Y251232D01*
X243362Y251606D01*
D02*
G37*
G36*
X237693D02*
X232811D01*
X232886Y251232D01*
X233321Y250581D01*
X233972Y250146D01*
X234740Y249993D01*
X237693D01*
Y251606D01*
D02*
G37*
G36*
X273520D02*
X268638D01*
X268713Y251232D01*
X269148Y250581D01*
X269799Y250146D01*
X270567Y249993D01*
X273520D01*
Y251606D01*
D02*
G37*
G36*
X334193D02*
X329311D01*
X329386Y251232D01*
X329821Y250581D01*
X330472Y250146D01*
X331240Y249993D01*
X334193D01*
Y251606D01*
D02*
G37*
G36*
X279189D02*
X274307D01*
Y249993D01*
X277260D01*
X278028Y250146D01*
X278679Y250581D01*
X279114Y251232D01*
X279189Y251606D01*
D02*
G37*
G36*
X137693D02*
X132811D01*
X132886Y251232D01*
X133321Y250581D01*
X133972Y250146D01*
X134740Y249993D01*
X137693D01*
Y251606D01*
D02*
G37*
G36*
X326264Y254606D02*
X319736D01*
X319797Y254142D01*
X320128Y253342D01*
X320165Y253295D01*
X319944Y252847D01*
X319260D01*
Y249894D01*
X326740D01*
Y252847D01*
X326056D01*
X325835Y253295D01*
X325871Y253342D01*
X326203Y254142D01*
X326264Y254606D01*
D02*
G37*
G36*
X143362Y251606D02*
X138480D01*
Y249993D01*
X141433D01*
X142201Y250146D01*
X142852Y250581D01*
X143287Y251232D01*
X143362Y251606D01*
D02*
G37*
G36*
X179189D02*
X174307D01*
Y249993D01*
X177260D01*
X178028Y250146D01*
X178679Y250581D01*
X179114Y251232D01*
X179189Y251606D01*
D02*
G37*
G36*
X173520D02*
X168638D01*
X168713Y251232D01*
X169148Y250581D01*
X169799Y250146D01*
X170567Y249993D01*
X173520D01*
Y251606D01*
D02*
G37*
G36*
X220606Y250606D02*
X217736D01*
X217797Y250142D01*
X218128Y249342D01*
X218655Y248655D01*
X219342Y248129D01*
X220142Y247797D01*
X220606Y247736D01*
Y250606D01*
D02*
G37*
G36*
X41933Y248507D02*
X38980D01*
Y246894D01*
X43862D01*
X43787Y247268D01*
X43352Y247919D01*
X42701Y248354D01*
X41933Y248507D01*
D02*
G37*
G36*
X38193D02*
X35240D01*
X34472Y248354D01*
X33821Y247919D01*
X33386Y247268D01*
X33311Y246894D01*
X38193D01*
Y248507D01*
D02*
G37*
G36*
X74020D02*
X71067D01*
X70299Y248354D01*
X69648Y247919D01*
X69213Y247268D01*
X69138Y246894D01*
X74020D01*
Y248507D01*
D02*
G37*
G36*
X137693Y249007D02*
X134740D01*
X133972Y248854D01*
X133321Y248419D01*
X132886Y247768D01*
X132811Y247394D01*
X137693D01*
Y249007D01*
D02*
G37*
G36*
X77760Y248507D02*
X74807D01*
Y246894D01*
X79689D01*
X79614Y247268D01*
X79179Y247919D01*
X78528Y248354D01*
X77760Y248507D01*
D02*
G37*
G36*
X124106Y249346D02*
X120760D01*
Y246394D01*
X124106D01*
Y249346D01*
D02*
G37*
G36*
X361106Y249264D02*
X360642Y249203D01*
X359842Y248871D01*
X359155Y248345D01*
X358629Y247658D01*
X358297Y246858D01*
X358236Y246394D01*
X361106D01*
Y249264D01*
D02*
G37*
G36*
X128240Y249346D02*
X124894D01*
Y246394D01*
X128240D01*
Y249346D01*
D02*
G37*
G36*
X168264Y249606D02*
X165394D01*
Y246736D01*
X165858Y246797D01*
X166658Y247129D01*
X167345Y247655D01*
X167871Y248342D01*
X168203Y249142D01*
X168264Y249606D01*
D02*
G37*
G36*
X164606D02*
X161736D01*
X161797Y249142D01*
X162128Y248342D01*
X162655Y247655D01*
X163342Y247129D01*
X164142Y246797D01*
X164606Y246736D01*
Y249606D01*
D02*
G37*
G36*
X277260Y249007D02*
X274307D01*
Y247394D01*
X279189D01*
X279114Y247768D01*
X278679Y248419D01*
X278028Y248854D01*
X277260Y249007D01*
D02*
G37*
G36*
X273520D02*
X270567D01*
X269799Y248854D01*
X269148Y248419D01*
X268713Y247768D01*
X268638Y247394D01*
X273520D01*
Y249007D01*
D02*
G37*
G36*
X334193D02*
X331240D01*
X330472Y248854D01*
X329821Y248419D01*
X329386Y247768D01*
X329311Y247394D01*
X334193D01*
Y249007D01*
D02*
G37*
G36*
X373760D02*
X370807D01*
Y247394D01*
X375689D01*
X375614Y247768D01*
X375179Y248419D01*
X374528Y248854D01*
X373760Y249007D01*
D02*
G37*
G36*
X337933D02*
X334980D01*
Y247394D01*
X339862D01*
X339787Y247768D01*
X339352Y248419D01*
X338701Y248854D01*
X337933Y249007D01*
D02*
G37*
G36*
X173520D02*
X170567D01*
X169799Y248854D01*
X169148Y248419D01*
X168713Y247768D01*
X168638Y247394D01*
X173520D01*
Y249007D01*
D02*
G37*
G36*
X141433D02*
X138480D01*
Y247394D01*
X143362D01*
X143287Y247768D01*
X142852Y248419D01*
X142201Y248854D01*
X141433Y249007D01*
D02*
G37*
G36*
X177260D02*
X174307D01*
Y247394D01*
X179189D01*
X179114Y247768D01*
X178679Y248419D01*
X178028Y248854D01*
X177260Y249007D01*
D02*
G37*
G36*
X241433D02*
X238480D01*
Y247394D01*
X243362D01*
X243287Y247768D01*
X242852Y248419D01*
X242201Y248854D01*
X241433Y249007D01*
D02*
G37*
G36*
X237693D02*
X234740D01*
X233972Y248854D01*
X233321Y248419D01*
X232886Y247768D01*
X232811Y247394D01*
X237693D01*
Y249007D01*
D02*
G37*
G36*
X339862Y251606D02*
X334980D01*
Y249993D01*
X337933D01*
X338701Y250146D01*
X339352Y250581D01*
X339787Y251232D01*
X339862Y251606D01*
D02*
G37*
G36*
X29740Y259866D02*
X26394D01*
Y256913D01*
X29740D01*
Y259866D01*
D02*
G37*
G36*
X25606D02*
X22260D01*
Y256913D01*
X25606D01*
Y259866D01*
D02*
G37*
G36*
X86106D02*
X82760D01*
Y256913D01*
X86106D01*
Y259866D01*
D02*
G37*
G36*
X226606D02*
X223260D01*
Y256913D01*
X226606D01*
Y259866D01*
D02*
G37*
G36*
X185106D02*
X181760D01*
Y256913D01*
X185106D01*
Y259866D01*
D02*
G37*
G36*
X128240Y259366D02*
X124894D01*
Y256413D01*
X126077D01*
X126355Y255998D01*
X126297Y255858D01*
X126236Y255394D01*
X129106D01*
Y258264D01*
X128740Y258216D01*
X128240Y258488D01*
Y259366D01*
D02*
G37*
G36*
X373760Y254007D02*
X370807D01*
Y252394D01*
X375689D01*
X375614Y252768D01*
X375179Y253419D01*
X374528Y253854D01*
X373760Y254007D01*
D02*
G37*
G36*
X129894Y258264D02*
Y255394D01*
X132764D01*
X132703Y255858D01*
X132371Y256658D01*
X131845Y257345D01*
X131158Y257872D01*
X130358Y258203D01*
X129894Y258264D01*
D02*
G37*
G36*
X124106Y259366D02*
X120760D01*
Y256413D01*
X124106D01*
Y259366D01*
D02*
G37*
G36*
X326740Y259866D02*
X319260D01*
Y256913D01*
X319731D01*
X320027Y256413D01*
X319797Y255858D01*
X319736Y255394D01*
X326264D01*
X326203Y255858D01*
X325973Y256413D01*
X326269Y256913D01*
X326740D01*
Y259866D01*
D02*
G37*
G36*
X285106Y263606D02*
X281760D01*
Y260653D01*
X285106D01*
Y263606D01*
D02*
G37*
G36*
X230740D02*
X227394D01*
Y260653D01*
X230740D01*
Y263606D01*
D02*
G37*
G36*
X322606D02*
X319260D01*
Y260653D01*
X322606D01*
Y263606D01*
D02*
G37*
G36*
X381106D02*
X377760D01*
Y260653D01*
X381106D01*
Y263606D01*
D02*
G37*
G36*
X326740D02*
X323394D01*
Y260653D01*
X326740D01*
Y263606D01*
D02*
G37*
G36*
X285106Y259866D02*
X281760D01*
Y256913D01*
X285106D01*
Y259866D01*
D02*
G37*
G36*
X230740D02*
X227394D01*
Y256913D01*
X230740D01*
Y259866D01*
D02*
G37*
G36*
X381106D02*
X377760D01*
Y256913D01*
X381106D01*
Y259866D01*
D02*
G37*
G36*
X226606Y263606D02*
X223260D01*
Y260653D01*
X226606D01*
Y263606D01*
D02*
G37*
G36*
X86106D02*
X82760D01*
Y260653D01*
X86106D01*
Y263606D01*
D02*
G37*
G36*
X370020Y254007D02*
X367067D01*
X366299Y253854D01*
X365648Y253419D01*
X365213Y252768D01*
X365138Y252394D01*
X370020D01*
Y254007D01*
D02*
G37*
G36*
X129106Y254606D02*
X126236D01*
X126297Y254142D01*
X126527Y253587D01*
X126231Y253087D01*
X124894D01*
Y250134D01*
X128240D01*
Y251512D01*
X128740Y251784D01*
X129106Y251736D01*
Y254606D01*
D02*
G37*
G36*
X220606Y254264D02*
X220142Y254203D01*
X219342Y253871D01*
X218655Y253345D01*
X218128Y252658D01*
X217797Y251858D01*
X217736Y251394D01*
X220606D01*
Y254264D01*
D02*
G37*
G36*
X132764Y254606D02*
X129894D01*
Y251736D01*
X130358Y251797D01*
X131158Y252129D01*
X131845Y252655D01*
X132371Y253342D01*
X132703Y254142D01*
X132764Y254606D01*
D02*
G37*
G36*
X77760Y253507D02*
X74807D01*
Y251894D01*
X79689D01*
X79614Y252268D01*
X79179Y252919D01*
X78528Y253354D01*
X77760Y253507D01*
D02*
G37*
G36*
X74020D02*
X71067D01*
X70299Y253354D01*
X69648Y252919D01*
X69213Y252268D01*
X69138Y251894D01*
X74020D01*
Y253507D01*
D02*
G37*
G36*
X375689Y251606D02*
X370807D01*
Y249993D01*
X373760D01*
X374528Y250146D01*
X375179Y250581D01*
X375614Y251232D01*
X375689Y251606D01*
D02*
G37*
G36*
X370020D02*
X365138D01*
X365213Y251232D01*
X365648Y250581D01*
X366299Y250146D01*
X367067Y249993D01*
X370020D01*
Y251606D01*
D02*
G37*
G36*
X124106Y253087D02*
X120760D01*
Y250134D01*
X124106D01*
Y253087D01*
D02*
G37*
G36*
X165394Y253264D02*
Y250394D01*
X168264D01*
X168203Y250858D01*
X167871Y251658D01*
X167345Y252345D01*
X166658Y252871D01*
X165858Y253203D01*
X165394Y253264D01*
D02*
G37*
G36*
X164606D02*
X164142Y253203D01*
X163342Y252871D01*
X162655Y252345D01*
X162128Y251658D01*
X161797Y250858D01*
X161736Y250394D01*
X164606D01*
Y253264D01*
D02*
G37*
G36*
X273520Y254007D02*
X270567D01*
X269799Y253854D01*
X269148Y253419D01*
X268713Y252768D01*
X268638Y252394D01*
X273520D01*
Y254007D01*
D02*
G37*
G36*
X241433D02*
X238480D01*
Y252394D01*
X243362D01*
X243287Y252768D01*
X242852Y253419D01*
X242201Y253854D01*
X241433Y254007D01*
D02*
G37*
G36*
X277260D02*
X274307D01*
Y252394D01*
X279189D01*
X279114Y252768D01*
X278679Y253419D01*
X278028Y253854D01*
X277260Y254007D01*
D02*
G37*
G36*
X337933D02*
X334980D01*
Y252394D01*
X339862D01*
X339787Y252768D01*
X339352Y253419D01*
X338701Y253854D01*
X337933Y254007D01*
D02*
G37*
G36*
X334193D02*
X331240D01*
X330472Y253854D01*
X329821Y253419D01*
X329386Y252768D01*
X329311Y252394D01*
X334193D01*
Y254007D01*
D02*
G37*
G36*
X141433D02*
X138480D01*
Y252394D01*
X143362D01*
X143287Y252768D01*
X142852Y253419D01*
X142201Y253854D01*
X141433Y254007D01*
D02*
G37*
G36*
X137693D02*
X134740D01*
X133972Y253854D01*
X133321Y253419D01*
X132886Y252768D01*
X132811Y252394D01*
X137693D01*
Y254007D01*
D02*
G37*
G36*
X173520D02*
X170567D01*
X169799Y253854D01*
X169148Y253419D01*
X168713Y252768D01*
X168638Y252394D01*
X173520D01*
Y254007D01*
D02*
G37*
G36*
X237693D02*
X234740D01*
X233972Y253854D01*
X233321Y253419D01*
X232886Y252768D01*
X232811Y252394D01*
X237693D01*
Y254007D01*
D02*
G37*
G36*
X177260D02*
X174307D01*
Y252394D01*
X179189D01*
X179114Y252768D01*
X178679Y253419D01*
X178028Y253854D01*
X177260Y254007D01*
D02*
G37*
G36*
X137693Y241606D02*
X132811D01*
X132886Y241232D01*
X133321Y240581D01*
X133972Y240146D01*
X134740Y239993D01*
X137693D01*
Y241606D01*
D02*
G37*
G36*
X79689Y241106D02*
X74807D01*
Y239493D01*
X77760D01*
X78528Y239646D01*
X79179Y240081D01*
X79614Y240732D01*
X79689Y241106D01*
D02*
G37*
G36*
X143362Y241606D02*
X138480D01*
Y239993D01*
X141433D01*
X142201Y240146D01*
X142852Y240581D01*
X143287Y241232D01*
X143362Y241606D01*
D02*
G37*
G36*
X179189D02*
X174307D01*
Y239993D01*
X177260D01*
X178028Y240146D01*
X178679Y240581D01*
X179114Y241232D01*
X179189Y241606D01*
D02*
G37*
G36*
X173520D02*
X168638D01*
X168713Y241232D01*
X169148Y240581D01*
X169799Y240146D01*
X170567Y239993D01*
X173520D01*
Y241606D01*
D02*
G37*
G36*
X90240Y241626D02*
X86894D01*
Y238673D01*
X90240D01*
Y241626D01*
D02*
G37*
G36*
X373760Y239007D02*
X370807D01*
Y237394D01*
X375689D01*
X375614Y237768D01*
X375179Y238419D01*
X374528Y238854D01*
X373760Y239007D01*
D02*
G37*
G36*
X38193Y241106D02*
X33311D01*
X33386Y240732D01*
X33821Y240081D01*
X34472Y239646D01*
X35240Y239493D01*
X38193D01*
Y241106D01*
D02*
G37*
G36*
X74020D02*
X69138D01*
X69213Y240732D01*
X69648Y240081D01*
X70299Y239646D01*
X71067Y239493D01*
X74020D01*
Y241106D01*
D02*
G37*
G36*
X43862D02*
X38980D01*
Y239493D01*
X41933D01*
X42701Y239646D01*
X43352Y240081D01*
X43787Y240732D01*
X43862Y241106D01*
D02*
G37*
G36*
X370020Y241606D02*
X365138D01*
X365213Y241232D01*
X365648Y240581D01*
X366299Y240146D01*
X367067Y239993D01*
X370020D01*
Y241606D01*
D02*
G37*
G36*
X339862D02*
X334980D01*
Y239993D01*
X337933D01*
X338701Y240146D01*
X339352Y240581D01*
X339787Y241232D01*
X339862Y241606D01*
D02*
G37*
G36*
X375689D02*
X370807D01*
Y239993D01*
X373760D01*
X374528Y240146D01*
X375179Y240581D01*
X375614Y241232D01*
X375689Y241606D01*
D02*
G37*
G36*
X41933Y243507D02*
X38980D01*
Y241894D01*
X43862D01*
X43787Y242268D01*
X43352Y242919D01*
X42701Y243354D01*
X41933Y243507D01*
D02*
G37*
G36*
X38193D02*
X35240D01*
X34472Y243354D01*
X33821Y242919D01*
X33386Y242268D01*
X33311Y241894D01*
X38193D01*
Y243507D01*
D02*
G37*
G36*
X243362Y241606D02*
X238480D01*
Y239993D01*
X241433D01*
X242201Y240146D01*
X242852Y240581D01*
X243287Y241232D01*
X243362Y241606D01*
D02*
G37*
G36*
X237693D02*
X232811D01*
X232886Y241232D01*
X233321Y240581D01*
X233972Y240146D01*
X234740Y239993D01*
X237693D01*
Y241606D01*
D02*
G37*
G36*
X273520D02*
X268638D01*
X268713Y241232D01*
X269148Y240581D01*
X269799Y240146D01*
X270567Y239993D01*
X273520D01*
Y241606D01*
D02*
G37*
G36*
X334193D02*
X329311D01*
X329386Y241232D01*
X329821Y240581D01*
X330472Y240146D01*
X331240Y239993D01*
X334193D01*
Y241606D01*
D02*
G37*
G36*
X279189D02*
X274307D01*
Y239993D01*
X277260D01*
X278028Y240146D01*
X278679Y240581D01*
X279114Y241232D01*
X279189Y241606D01*
D02*
G37*
G36*
X370020Y239007D02*
X367067D01*
X366299Y238854D01*
X365648Y238419D01*
X365213Y237768D01*
X365138Y237394D01*
X370020D01*
Y239007D01*
D02*
G37*
G36*
X38193Y238507D02*
X35240D01*
X34472Y238354D01*
X33821Y237919D01*
X33386Y237268D01*
X33311Y236894D01*
X38193D01*
Y238507D01*
D02*
G37*
G36*
X375689Y236606D02*
X370807D01*
Y234993D01*
X373760D01*
X374528Y235146D01*
X375179Y235581D01*
X375614Y236232D01*
X375689Y236606D01*
D02*
G37*
G36*
X41933Y238507D02*
X38980D01*
Y236894D01*
X43862D01*
X43787Y237268D01*
X43352Y237919D01*
X42701Y238354D01*
X41933Y238507D01*
D02*
G37*
G36*
X77760D02*
X74807D01*
Y236894D01*
X79689D01*
X79614Y237268D01*
X79179Y237919D01*
X78528Y238354D01*
X77760Y238507D01*
D02*
G37*
G36*
X74020D02*
X71067D01*
X70299Y238354D01*
X69648Y237919D01*
X69213Y237268D01*
X69138Y236894D01*
X74020D01*
Y238507D01*
D02*
G37*
G36*
X279189Y236606D02*
X274307D01*
Y234993D01*
X277260D01*
X278028Y235146D01*
X278679Y235581D01*
X279114Y236232D01*
X279189Y236606D01*
D02*
G37*
G36*
X273520D02*
X268638D01*
X268713Y236232D01*
X269148Y235581D01*
X269799Y235146D01*
X270567Y234993D01*
X273520D01*
Y236606D01*
D02*
G37*
G36*
X334193D02*
X329311D01*
X329386Y236232D01*
X329821Y235581D01*
X330472Y235146D01*
X331240Y234993D01*
X334193D01*
Y236606D01*
D02*
G37*
G36*
X370020D02*
X365138D01*
X365213Y236232D01*
X365648Y235581D01*
X366299Y235146D01*
X367067Y234993D01*
X370020D01*
Y236606D01*
D02*
G37*
G36*
X339862D02*
X334980D01*
Y234993D01*
X337933D01*
X338701Y235146D01*
X339352Y235581D01*
X339787Y236232D01*
X339862Y236606D01*
D02*
G37*
G36*
X273520Y239007D02*
X270567D01*
X269799Y238854D01*
X269148Y238419D01*
X268713Y237768D01*
X268638Y237394D01*
X273520D01*
Y239007D01*
D02*
G37*
G36*
X241433D02*
X238480D01*
Y237394D01*
X243362D01*
X243287Y237768D01*
X242852Y238419D01*
X242201Y238854D01*
X241433Y239007D01*
D02*
G37*
G36*
X277260D02*
X274307D01*
Y237394D01*
X279189D01*
X279114Y237768D01*
X278679Y238419D01*
X278028Y238854D01*
X277260Y239007D01*
D02*
G37*
G36*
X337933D02*
X334980D01*
Y237394D01*
X339862D01*
X339787Y237768D01*
X339352Y238419D01*
X338701Y238854D01*
X337933Y239007D01*
D02*
G37*
G36*
X334193D02*
X331240D01*
X330472Y238854D01*
X329821Y238419D01*
X329386Y237768D01*
X329311Y237394D01*
X334193D01*
Y239007D01*
D02*
G37*
G36*
X141433D02*
X138480D01*
Y237394D01*
X143362D01*
X143287Y237768D01*
X142852Y238419D01*
X142201Y238854D01*
X141433Y239007D01*
D02*
G37*
G36*
X137693D02*
X134740D01*
X133972Y238854D01*
X133321Y238419D01*
X132886Y237768D01*
X132811Y237394D01*
X137693D01*
Y239007D01*
D02*
G37*
G36*
X173520D02*
X170567D01*
X169799Y238854D01*
X169148Y238419D01*
X168713Y237768D01*
X168638Y237394D01*
X173520D01*
Y239007D01*
D02*
G37*
G36*
X237693D02*
X234740D01*
X233972Y238854D01*
X233321Y238419D01*
X232886Y237768D01*
X232811Y237394D01*
X237693D01*
Y239007D01*
D02*
G37*
G36*
X177260D02*
X174307D01*
Y237394D01*
X179189D01*
X179114Y237768D01*
X178679Y238419D01*
X178028Y238854D01*
X177260Y239007D01*
D02*
G37*
G36*
X74020Y243507D02*
X71067D01*
X70299Y243354D01*
X69648Y242919D01*
X69213Y242268D01*
X69138Y241894D01*
X74020D01*
Y243507D01*
D02*
G37*
G36*
X273520Y246606D02*
X268638D01*
X268713Y246232D01*
X269148Y245581D01*
X269799Y245146D01*
X270567Y244993D01*
X273520D01*
Y246606D01*
D02*
G37*
G36*
X243362D02*
X238480D01*
Y244993D01*
X241433D01*
X242201Y245146D01*
X242852Y245581D01*
X243287Y246232D01*
X243362Y246606D01*
D02*
G37*
G36*
X279189D02*
X274307D01*
Y244993D01*
X277260D01*
X278028Y245146D01*
X278679Y245581D01*
X279114Y246232D01*
X279189Y246606D01*
D02*
G37*
G36*
X339862D02*
X334980D01*
Y244993D01*
X337933D01*
X338701Y245146D01*
X339352Y245581D01*
X339787Y246232D01*
X339862Y246606D01*
D02*
G37*
G36*
X334193D02*
X329311D01*
X329386Y246232D01*
X329821Y245581D01*
X330472Y245146D01*
X331240Y244993D01*
X334193D01*
Y246606D01*
D02*
G37*
G36*
X143362D02*
X138480D01*
Y244993D01*
X141433D01*
X142201Y245146D01*
X142852Y245581D01*
X143287Y246232D01*
X143362Y246606D01*
D02*
G37*
G36*
X137693D02*
X132811D01*
X132886Y246232D01*
X133321Y245581D01*
X133972Y245146D01*
X134740Y244993D01*
X137693D01*
Y246606D01*
D02*
G37*
G36*
X173520D02*
X168638D01*
X168713Y246232D01*
X169148Y245581D01*
X169799Y245146D01*
X170567Y244993D01*
X173520D01*
Y246606D01*
D02*
G37*
G36*
X237693D02*
X232811D01*
X232886Y246232D01*
X233321Y245581D01*
X233972Y245146D01*
X234740Y244993D01*
X237693D01*
Y246606D01*
D02*
G37*
G36*
X179189D02*
X174307D01*
Y244993D01*
X177260D01*
X178028Y245146D01*
X178679Y245581D01*
X179114Y246232D01*
X179189Y246606D01*
D02*
G37*
G36*
X221394Y254264D02*
Y251000D01*
Y247736D01*
X221858Y247797D01*
X222658Y248129D01*
X222811Y248246D01*
X223260Y248025D01*
Y246153D01*
X226606D01*
Y249500D01*
Y252847D01*
X223727D01*
X223345Y253345D01*
X222658Y253871D01*
X221858Y254203D01*
X221394Y254264D01*
D02*
G37*
G36*
X29740Y249106D02*
X26394D01*
Y246153D01*
X29740D01*
Y249106D01*
D02*
G37*
G36*
X230740D02*
X227394D01*
Y246153D01*
X230740D01*
Y249106D01*
D02*
G37*
G36*
X326740D02*
X323394D01*
Y246153D01*
X326740D01*
Y249106D01*
D02*
G37*
G36*
X322606D02*
X319260D01*
Y246153D01*
X322606D01*
Y249106D01*
D02*
G37*
G36*
X375689Y246606D02*
X370807D01*
Y244993D01*
X373760D01*
X374528Y245146D01*
X375179Y245581D01*
X375614Y246232D01*
X375689Y246606D01*
D02*
G37*
G36*
X361894Y249264D02*
Y246000D01*
Y242736D01*
X362358Y242797D01*
X363158Y243128D01*
X363845Y243655D01*
X364371Y244342D01*
X364703Y245142D01*
X364808Y245938D01*
X364966Y246027D01*
X365308Y246089D01*
X365648Y245581D01*
X366299Y245146D01*
X367067Y244993D01*
X370020D01*
Y247000D01*
Y249007D01*
X367067D01*
X366299Y248854D01*
X365648Y248419D01*
X365213Y247768D01*
X365101Y247204D01*
X364580Y247153D01*
X364371Y247658D01*
X363845Y248345D01*
X363158Y248871D01*
X362358Y249203D01*
X361894Y249264D01*
D02*
G37*
G36*
X263606Y248106D02*
X260736D01*
X260797Y247642D01*
X261128Y246842D01*
X261655Y246155D01*
X262342Y245628D01*
X263142Y245297D01*
X263606Y245236D01*
Y248106D01*
D02*
G37*
G36*
X20894Y256264D02*
Y253000D01*
Y249736D01*
X21358Y249797D01*
X21760Y249964D01*
X22260Y249629D01*
Y246153D01*
X25606D01*
Y249500D01*
Y252847D01*
X23950D01*
X23816Y253000D01*
X23703Y253858D01*
X23371Y254658D01*
X22845Y255345D01*
X22158Y255872D01*
X21358Y256203D01*
X20894Y256264D01*
D02*
G37*
G36*
X267264Y248106D02*
X264394D01*
Y245236D01*
X264858Y245297D01*
X265658Y245628D01*
X266345Y246155D01*
X266872Y246842D01*
X267203Y247642D01*
X267264Y248106D01*
D02*
G37*
G36*
X65764Y247606D02*
X62894D01*
Y244736D01*
X63358Y244797D01*
X64158Y245128D01*
X64845Y245655D01*
X65372Y246342D01*
X65703Y247142D01*
X65764Y247606D01*
D02*
G37*
G36*
X241433Y244007D02*
X238480D01*
Y242394D01*
X243362D01*
X243287Y242768D01*
X242852Y243419D01*
X242201Y243854D01*
X241433Y244007D01*
D02*
G37*
G36*
X237693D02*
X234740D01*
X233972Y243854D01*
X233321Y243419D01*
X232886Y242768D01*
X232811Y242394D01*
X237693D01*
Y244007D01*
D02*
G37*
G36*
X273520D02*
X270567D01*
X269799Y243854D01*
X269148Y243419D01*
X268713Y242768D01*
X268638Y242394D01*
X273520D01*
Y244007D01*
D02*
G37*
G36*
X334193D02*
X331240D01*
X330472Y243854D01*
X329821Y243419D01*
X329386Y242768D01*
X329311Y242394D01*
X334193D01*
Y244007D01*
D02*
G37*
G36*
X277260D02*
X274307D01*
Y242394D01*
X279189D01*
X279114Y242768D01*
X278679Y243419D01*
X278028Y243854D01*
X277260Y244007D01*
D02*
G37*
G36*
X137693D02*
X134740D01*
X133972Y243854D01*
X133321Y243419D01*
X132886Y242768D01*
X132811Y242394D01*
X137693D01*
Y244007D01*
D02*
G37*
G36*
X77760Y243507D02*
X74807D01*
Y241894D01*
X79689D01*
X79614Y242268D01*
X79179Y242919D01*
X78528Y243354D01*
X77760Y243507D01*
D02*
G37*
G36*
X141433Y244007D02*
X138480D01*
Y242394D01*
X143362D01*
X143287Y242768D01*
X142852Y243419D01*
X142201Y243854D01*
X141433Y244007D01*
D02*
G37*
G36*
X177260D02*
X174307D01*
Y242394D01*
X179189D01*
X179114Y242768D01*
X178679Y243419D01*
X178028Y243854D01*
X177260Y244007D01*
D02*
G37*
G36*
X173520D02*
X170567D01*
X169799Y243854D01*
X169148Y243419D01*
X168713Y242768D01*
X168638Y242394D01*
X173520D01*
Y244007D01*
D02*
G37*
G36*
X43862Y246106D02*
X38980D01*
Y244493D01*
X41933D01*
X42701Y244646D01*
X43352Y245081D01*
X43787Y245732D01*
X43862Y246106D01*
D02*
G37*
G36*
X38193D02*
X33311D01*
X33386Y245732D01*
X33821Y245081D01*
X34472Y244646D01*
X35240Y244493D01*
X38193D01*
Y246106D01*
D02*
G37*
G36*
X74020D02*
X69138D01*
X69213Y245732D01*
X69648Y245081D01*
X70299Y244646D01*
X71067Y244493D01*
X74020D01*
Y246106D01*
D02*
G37*
G36*
X62106Y247606D02*
X59236D01*
X59297Y247142D01*
X59628Y246342D01*
X60155Y245655D01*
X60842Y245128D01*
X61642Y244797D01*
X62106Y244736D01*
Y247606D01*
D02*
G37*
G36*
X79689Y246106D02*
X74807D01*
Y244493D01*
X77760D01*
X78528Y244646D01*
X79179Y245081D01*
X79614Y245732D01*
X79689Y246106D01*
D02*
G37*
G36*
X370020Y244007D02*
X367067D01*
X366299Y243854D01*
X365648Y243419D01*
X365213Y242768D01*
X365138Y242394D01*
X370020D01*
Y244007D01*
D02*
G37*
G36*
X337933D02*
X334980D01*
Y242394D01*
X339862D01*
X339787Y242768D01*
X339352Y243419D01*
X338701Y243854D01*
X337933Y244007D01*
D02*
G37*
G36*
X373760D02*
X370807D01*
Y242394D01*
X375689D01*
X375614Y242768D01*
X375179Y243419D01*
X374528Y243854D01*
X373760Y244007D01*
D02*
G37*
G36*
X361106Y245606D02*
X358236D01*
X358297Y245142D01*
X358629Y244342D01*
X359155Y243655D01*
X359842Y243128D01*
X360642Y242797D01*
X361106Y242736D01*
Y245606D01*
D02*
G37*
G36*
X289240Y245366D02*
X285894D01*
Y242413D01*
X289240D01*
Y245366D01*
D02*
G37*
%LPD*%
D17*
X85000Y154000D02*
D03*
X73583D02*
D03*
X85209Y165500D02*
D03*
X73791D02*
D03*
D21*
X183000Y129000D02*
X189760D01*
X182500Y111000D02*
Y115000D01*
X219508Y135441D02*
X220000D01*
X182500Y111000D02*
X186043Y107457D01*
X192583D01*
X182677Y119677D02*
X198270D01*
X178500Y115500D02*
X182677Y119677D01*
X197699Y121055D02*
X210000Y133356D01*
X182106Y121055D02*
X197699D01*
X210000Y133356D02*
Y138000D01*
X211378Y133810D02*
X213446Y135878D01*
X211378Y132785D02*
Y133810D01*
X198270Y119677D02*
X211378Y132785D01*
X200000Y109063D02*
Y116051D01*
X192583Y115134D02*
X197134D01*
X195835Y104898D02*
X200000Y109063D01*
X192583Y104898D02*
X195835D01*
X205500Y92000D02*
Y92949D01*
X197240Y135240D02*
X200000Y138000D01*
X197240Y129000D02*
Y135240D01*
X182740Y138000D02*
X190000D01*
X172740Y128000D02*
X182740Y138000D01*
X155122Y132622D02*
X160500Y138000D01*
X155122Y86878D02*
X157575Y84425D01*
X155122Y86878D02*
Y132622D01*
X165417Y92102D02*
X175898D01*
X180500Y87500D01*
Y68000D02*
Y87500D01*
X171500Y78000D02*
Y84154D01*
X168669Y86984D02*
X171500Y84154D01*
X165417Y86984D02*
X168669D01*
X180500Y58260D02*
X180760Y58000D01*
X180500Y58260D02*
Y68000D01*
X171000Y78000D02*
X171500D01*
X163760Y70760D02*
X171000Y78000D01*
X163760Y68000D02*
Y70760D01*
X157575Y84425D02*
X165417D01*
X158185Y81866D02*
X165417D01*
X213446Y135878D02*
X219071D01*
X219508Y135441D01*
X220000D02*
Y138000D01*
X232000Y125500D02*
X286000D01*
X292372Y127000D02*
X292500D01*
X287427Y122055D02*
X292372Y127000D01*
X230504Y122055D02*
X287427D01*
X165417Y99779D02*
X176779D01*
X165417Y102339D02*
X176161D01*
X177122Y116071D02*
X182106Y121055D01*
X235240Y116000D02*
X240000D01*
X242500Y118500D01*
X200000Y116051D02*
X203949Y120000D01*
X228449D01*
X230504Y122055D01*
X203378Y121378D02*
X227878D01*
X232000Y125500D01*
X197134Y115134D02*
X203378Y121378D01*
X248000Y116000D02*
Y116872D01*
X248151Y117024D01*
X248000Y116000D02*
X253760D01*
X176779Y99779D02*
X178500Y101500D01*
X176161Y102339D02*
X177122Y103299D01*
X178500Y101500D02*
Y115500D01*
X177122Y103299D02*
Y116071D01*
X153000Y87051D02*
X158185Y81866D01*
X153000Y87051D02*
Y128500D01*
X150500Y131000D02*
X153000Y128500D01*
X182500Y115000D02*
X183500D01*
X286000Y167520D02*
Y172000D01*
D22*
X279480Y167520D02*
X286000D01*
X295000Y143760D02*
X318657D01*
X243000Y177500D02*
X244254Y176246D01*
X244254D02*
X244254Y176246D01*
X246500Y174000D01*
X303000Y183025D02*
Y183129D01*
X302988Y183013D02*
X303000Y183025D01*
X302988Y174987D02*
Y183013D01*
Y174987D02*
X303000Y174976D01*
Y144760D02*
Y174976D01*
Y190391D02*
Y190609D01*
X302988Y190379D02*
X303000Y190391D01*
X302988Y183141D02*
Y190379D01*
Y183141D02*
X303000Y183129D01*
X295500Y198500D02*
X302988Y191012D01*
Y190621D02*
Y191012D01*
Y190621D02*
X303000Y190609D01*
X87949Y190000D02*
X88949D01*
X70051D02*
X87949D01*
X69468Y189417D02*
X70051Y190000D01*
Y185000D02*
Y190000D01*
X58500Y189417D02*
X69468D01*
X105500Y285834D02*
X124094Y267240D01*
X222760Y270980D02*
X227000Y266740D01*
X124094Y267240D02*
X124500D01*
X69051Y180000D02*
X70051D01*
X60500D02*
X69051D01*
X21622Y271118D02*
X26000Y266740D01*
X26102Y178000D02*
Y189055D01*
X23500Y191657D02*
X26102Y189055D01*
X246500Y174000D02*
X247000Y173500D01*
X26000Y267740D02*
Y290000D01*
Y266740D02*
Y267740D01*
X172740Y140240D02*
Y148500D01*
X170500Y138000D02*
X172740Y140240D01*
X8500Y211343D02*
X13500D01*
X18500Y191657D02*
X23500D01*
X8500D02*
X13500D01*
X30000Y332658D02*
X30343Y333000D01*
X30000Y323500D02*
Y332658D01*
X26500Y320000D02*
X30000Y323500D01*
X18819Y320000D02*
X26500D01*
X18504Y319685D02*
X18819Y320000D01*
X3354Y325697D02*
X10657Y333000D01*
X3354Y216488D02*
Y325697D01*
X38189Y307276D02*
Y319685D01*
X38000Y307087D02*
X38189Y307276D01*
X57874Y307461D02*
Y319685D01*
X57500Y307087D02*
X57874Y307461D01*
X77559Y307146D02*
Y319685D01*
X77500Y307087D02*
X77559Y307146D01*
X97244Y307331D02*
Y319685D01*
X97000Y307087D02*
X97244Y307331D01*
X116929Y307157D02*
Y319685D01*
Y307157D02*
X117000Y307087D01*
X136614Y307201D02*
Y319685D01*
X136500Y307087D02*
X136614Y307201D01*
X156299Y307386D02*
Y319685D01*
X156000Y307087D02*
X156299Y307386D01*
X175984Y307102D02*
Y319685D01*
Y307102D02*
X176000Y307087D01*
X228500D02*
X228740Y307327D01*
X248000Y307087D02*
X248425Y307512D01*
X268000Y307087D02*
X268110Y307197D01*
X287795Y307291D02*
X288000Y307087D01*
X327000D02*
X327165Y307252D01*
X346850Y307236D02*
X347000Y307087D01*
X366535Y307551D02*
X367000Y307087D01*
X13500Y211343D02*
X18500D01*
X13500Y191657D02*
X18500D01*
X20000Y163594D02*
X20595D01*
X26102Y169102D01*
Y178000D02*
X33917D01*
X34000Y178083D01*
X26102Y169102D02*
Y178000D01*
X46417Y178083D02*
X46500Y178000D01*
X58500D01*
X40500Y178083D02*
Y184000D01*
X34000Y178083D02*
X40500D01*
X46417D01*
X58500Y178000D02*
X60500Y180000D01*
X34000Y189500D02*
X46417D01*
X46500Y189417D01*
X58500D01*
X88949Y185000D02*
X94551D01*
X104000Y194449D01*
X88949Y180000D02*
X96212D01*
X100952Y184740D01*
X120000D01*
X73791Y154209D02*
Y165500D01*
X73583Y154000D02*
X73791Y154209D01*
X70051Y175000D02*
X73791Y171260D01*
Y165500D02*
Y171260D01*
X104000Y194449D02*
X112051D01*
X113500Y193000D01*
X10880Y271118D02*
X21622D01*
X7882Y268120D02*
X10880Y271118D01*
X7882Y222381D02*
Y268120D01*
Y222381D02*
X11763Y218500D01*
X3354Y216488D02*
X8500Y211343D01*
X346850Y307236D02*
Y319685D01*
X248425Y307512D02*
Y319685D01*
X327165Y307252D02*
Y319685D01*
X287795Y307291D02*
Y319685D01*
X268110Y307197D02*
Y319685D01*
X228740Y307327D02*
Y319685D01*
X366535Y307551D02*
Y319685D01*
X307480D02*
X307500Y319665D01*
Y307087D02*
Y319665D01*
X26000Y290000D02*
X31079Y295079D01*
X221421Y270980D02*
X222760D01*
X203500Y288901D02*
X221421Y270980D01*
X203500Y288901D02*
Y294579D01*
X320760Y269980D02*
X323000Y267740D01*
X317421Y269980D02*
X320760D01*
X307677Y279724D02*
X317421Y269980D01*
X302109Y279724D02*
X307677D01*
X300610Y281224D02*
X302109Y279724D01*
X300610Y281224D02*
Y287859D01*
X293391Y295079D02*
X300610Y287859D01*
X105500Y285834D02*
Y294579D01*
X31079Y295079D02*
X293391D01*
X99500Y226000D02*
X105763D01*
X115668Y216094D01*
X188094D01*
X198000Y226000D01*
X198795D01*
X213512Y211283D01*
Y210488D02*
Y211283D01*
Y210488D02*
X215000Y209000D01*
X218000D01*
X227000Y200000D02*
X251000D01*
X218000Y209000D02*
X227000Y200000D01*
X251000D02*
X262000Y211000D01*
X283000D01*
X318657Y143760D02*
X318898Y144000D01*
X328898D02*
X338898D01*
X348898D01*
X358898D02*
X368898D01*
X378898D01*
X388898D01*
X395000Y150102D01*
Y161898D01*
X388898Y168000D02*
X395000Y161898D01*
X394012Y173114D02*
Y203488D01*
X388500Y209000D02*
X394012Y203488D01*
X318898Y144000D02*
X323500D01*
X328898D01*
X348898D02*
X348957D01*
X358898D01*
X388898Y168000D02*
X394012Y173114D01*
X391000Y215500D02*
Y225000D01*
X295500Y198500D02*
Y226000D01*
X283000Y211000D02*
X295500Y198500D01*
X388500Y209000D02*
Y213000D01*
X391000Y215500D01*
X231500Y136000D02*
X272500D01*
X279500Y129000D01*
X280240D01*
X295000Y143760D01*
X286000Y152240D02*
Y164902D01*
X285500Y151740D02*
X286000Y152240D01*
X273500Y173500D02*
X279480Y167520D01*
X286000Y164902D02*
Y167520D01*
X267492Y173500D02*
X273500D01*
X267492Y173500D02*
X267492Y173500D01*
X247000Y173500D02*
X267492D01*
X247000D02*
Y173500D01*
X244254Y176246D02*
X244254D01*
X243000Y174500D02*
Y174992D01*
X241508Y173500D02*
X243000Y174992D01*
Y177500D01*
X33500Y137000D02*
X43500D01*
X202953Y109453D02*
X205500Y112000D01*
X11880Y66882D02*
X18618D01*
X202953Y106953D02*
Y109453D01*
X4500Y74262D02*
X11880Y66882D01*
X190481Y51110D02*
X199276Y59904D01*
Y103276D01*
X18618Y66882D02*
X34390Y51110D01*
X105382Y104120D02*
X108380Y107118D01*
X105382Y52992D02*
Y104120D01*
X110500Y107118D02*
Y112000D01*
X108380Y107118D02*
X110500D01*
X34390Y51110D02*
X190481D01*
X199276Y103276D02*
X202953Y106953D01*
X4500Y74262D02*
Y106500D01*
X10000Y112000D01*
X14000D01*
X265000Y84500D02*
X284000D01*
X284500Y66500D02*
Y84000D01*
Y66500D02*
X292500Y58500D01*
X329500D01*
X356500Y85500D01*
X375500D01*
D23*
X122760Y72000D02*
X123260Y72500D01*
X110500Y92000D02*
X123260D01*
X122500Y102000D02*
X123500Y103000D01*
X9000Y176209D02*
X10791D01*
X186380Y266120D02*
X187380Y267120D01*
X185500Y248740D02*
X189240D01*
X187380Y267120D02*
X190169Y264331D01*
Y249669D02*
Y264331D01*
X285750Y267490D02*
X285880Y267620D01*
X285260Y267000D02*
X285750Y267490D01*
X285500Y250740D02*
X286740D01*
X289831Y253831D02*
Y263669D01*
X285880Y267620D02*
X289831Y263669D01*
X227000Y266740D02*
X237827D01*
X26000D02*
X38346D01*
X20000Y175406D02*
Y182500D01*
X19500Y183000D02*
X20000Y182500D01*
X86500Y247740D02*
X90240D01*
X74413Y266500D02*
X88500D01*
X90831Y248331D02*
Y264169D01*
X88500Y266500D02*
X90831Y264169D01*
X35740Y221500D02*
X38587D01*
X26000Y231240D02*
X35740Y221500D01*
X148500Y193169D02*
X149551D01*
X323000Y231980D02*
X326520D01*
X272913Y262000D02*
X273413Y261500D01*
X381500Y267240D02*
X384760D01*
X126000Y232500D02*
Y242020D01*
X124500Y232740D02*
X130500Y226740D01*
X238587Y227500D02*
X239087Y227000D01*
X369413D02*
X369913Y227500D01*
X227000Y232000D02*
X232000Y227000D01*
X323000Y255000D02*
Y260260D01*
Y249500D02*
Y255000D01*
X26000Y231240D02*
Y238760D01*
X224480Y83000D02*
X231500D01*
X297000Y102000D02*
X309000D01*
X205500Y92000D02*
X216500D01*
X317480Y72000D02*
X323624D01*
X317480Y82000D02*
X330562D01*
X317480Y92500D02*
X337062D01*
X317480Y103000D02*
X344500D01*
X309000Y102000D02*
X310000Y103000D01*
X309500Y92000D02*
X310000Y92500D01*
X297000Y92000D02*
X309500D01*
X297000Y82000D02*
X310000D01*
X297000Y72000D02*
X310000D01*
X205500D02*
X206000Y72500D01*
X217000D01*
X205500Y82000D02*
X217000D01*
X217500Y81500D01*
X216000Y102000D02*
X217000Y103000D01*
X205500Y102000D02*
X216000D01*
X147000Y127500D02*
X150500Y131000D01*
X137240Y127500D02*
X147000D01*
X150500Y131000D02*
Y138000D01*
X155000Y143500D02*
X160500Y138000D01*
X155000Y143500D02*
Y148500D01*
X130740Y72500D02*
X142000Y83760D01*
X110500Y72000D02*
X122760D01*
X110500Y82000D02*
X122760D01*
X123500Y103000D02*
Y103500D01*
X110500Y102000D02*
X122500D01*
X14000D02*
X24260D01*
X23500Y92000D02*
X24000Y91500D01*
X14000Y92000D02*
X23500D01*
X14000Y82000D02*
X23760D01*
X14000Y72000D02*
X23520D01*
X378500Y179000D02*
Y186760D01*
X368500Y179000D02*
Y186760D01*
X358500Y179000D02*
Y186760D01*
X348500Y179000D02*
X349000Y179500D01*
Y186760D01*
X338500Y179000D02*
Y186760D01*
X328500Y179000D02*
Y186760D01*
X308500Y179000D02*
Y186760D01*
X318500Y179000D02*
Y186760D01*
X334587Y262000D02*
X339500D01*
X328774Y287402D02*
X329723D01*
X319500Y275000D02*
X333552D01*
X314902Y280000D02*
X331614D01*
X327000Y287402D02*
X328774D01*
X381500Y249740D02*
X386000Y254240D01*
X381260Y267000D02*
X381500Y267240D01*
X384760D02*
X386000Y266000D01*
Y254240D02*
Y266000D01*
X356000Y232000D02*
X370413D01*
X329500Y222000D02*
X334587D01*
X328000Y223500D02*
X329500Y222000D01*
X328000Y223500D02*
Y230500D01*
X326520Y231980D02*
X328000Y230500D01*
X323000Y231980D02*
Y242020D01*
Y267740D02*
X323740Y267000D01*
X334587D01*
X307500Y287402D02*
X314902Y280000D01*
X233000Y222000D02*
X238087D01*
X237827Y266740D02*
X238087Y267000D01*
X236052Y276000D02*
X243992Y268060D01*
X223500Y276000D02*
X236052D01*
X243992Y265940D02*
Y268060D01*
X240052Y262000D02*
X243992Y265940D01*
X238087Y262000D02*
X240052D01*
X232000Y223000D02*
X233000Y222000D01*
X232000Y223000D02*
Y227000D01*
X227000Y232000D02*
Y241520D01*
X286740Y250740D02*
X289831Y253831D01*
X273913Y267000D02*
X285260D01*
X268000Y280000D02*
Y287402D01*
X238087Y257000D02*
X244500D01*
X248000Y276562D02*
Y287402D01*
Y276562D02*
X251165Y273397D01*
X242500Y279000D02*
X249000Y272500D01*
X229000Y279000D02*
X242500D01*
X228500Y279500D02*
X229000Y279000D01*
X228500Y279500D02*
Y287402D01*
X142831Y162331D02*
Y189909D01*
X138500Y158000D02*
X142831Y162331D01*
X138500Y194240D02*
X142831Y189909D01*
X152831Y162331D02*
Y189890D01*
X162831Y162331D02*
Y189909D01*
X172831Y162331D02*
Y189909D01*
X183669Y163169D02*
Y188831D01*
X193000Y162500D02*
Y190500D01*
X202831Y162331D02*
Y189409D01*
X212831Y162331D02*
Y189909D01*
X208500Y158000D02*
X212831Y162331D01*
X148500Y158000D02*
X152831Y162331D01*
X208000Y179000D02*
X208500Y179500D01*
Y186760D01*
Y194240D02*
X212831Y189909D01*
X198000Y179000D02*
Y186760D01*
X198500Y158000D02*
X202831Y162331D01*
X198000Y194240D02*
X202831Y189409D01*
X188000Y179000D02*
Y186760D01*
X188500Y158000D02*
X193000Y162500D01*
X189260Y194240D02*
X193000Y190500D01*
X188000Y194240D02*
X189260D01*
X178500Y194000D02*
X183669Y188831D01*
X178500Y158000D02*
X183669Y163169D01*
X178000Y179000D02*
Y186760D01*
X168500Y194240D02*
X172831Y189909D01*
X168500Y158000D02*
X172831Y162331D01*
X168000Y179000D02*
X168500Y179500D01*
Y186760D01*
X158500Y194240D02*
X162831Y189909D01*
X158500Y158000D02*
X162831Y162331D01*
X158000Y179000D02*
X158500Y179500D01*
Y186760D01*
X149551Y193169D02*
X152831Y189890D01*
X148500Y193169D02*
Y194240D01*
X148000Y179000D02*
X148500Y179500D01*
Y186760D01*
X138000Y179000D02*
X138500Y179500D01*
Y186760D01*
X132000Y222000D02*
X138087D01*
X130500Y223500D02*
X132000Y222000D01*
X150339Y236339D02*
Y273563D01*
X146000Y232000D02*
X150339Y236339D01*
X136500Y287402D02*
X150339Y273563D01*
X155496Y238504D02*
Y286898D01*
X157661Y269063D02*
X176000Y287402D01*
X161071Y257000D02*
X173913D01*
X157661Y260410D02*
Y269063D01*
Y260410D02*
X161071Y257000D01*
X155496Y286898D02*
X156000Y287402D01*
X161500Y262000D02*
X173913D01*
X149500Y227000D02*
X150000Y226500D01*
X138087Y227000D02*
X149500D01*
X138087Y262000D02*
X142000D01*
X144000Y264000D01*
Y268052D01*
X138552Y273500D02*
X144000Y268052D01*
X126000Y273500D02*
X138552D01*
X143500Y257000D02*
X146165Y259665D01*
X138000Y277500D02*
X146165Y269335D01*
Y259665D02*
Y269335D01*
X120500Y277500D02*
X138000D01*
X138087Y257000D02*
X143500D01*
X130500Y223500D02*
Y226740D01*
X126000Y267000D02*
X138087D01*
Y232000D02*
X146000D01*
X117000Y281000D02*
X120500Y277500D01*
X117000Y281000D02*
Y287402D01*
X56500Y226500D02*
X74413D01*
X65000Y231500D02*
X74413D01*
X38587Y226500D02*
X48000D01*
X38346Y266740D02*
X38587Y266500D01*
Y256500D02*
X46929D01*
X38587Y231500D02*
X46000D01*
X72402Y287402D02*
X77500D01*
X38587Y261500D02*
X44000D01*
X90240Y247740D02*
X90831Y248331D01*
X23500Y211343D02*
X33425D01*
X34000Y211917D01*
X45791D01*
X46000Y211709D01*
X42272Y196563D02*
X46000Y200291D01*
X8791Y153709D02*
Y163000D01*
Y153709D02*
X9500Y153000D01*
X56000Y227000D02*
X56500Y226500D01*
X25123Y196972D02*
X25532Y196563D01*
X42272D01*
X18500Y203500D02*
Y211343D01*
Y203500D02*
X21500Y200500D01*
X34000D01*
X88632Y279034D02*
X97000Y287402D01*
X57500Y278000D02*
Y287402D01*
X4472Y196972D02*
X25123D01*
X3500Y196000D02*
X4472Y196972D01*
X3500Y189000D02*
Y196000D01*
Y189000D02*
X9500Y183000D01*
X189240Y248740D02*
X190169Y249669D01*
X33500Y127000D02*
X37240Y123260D01*
X31480Y91500D02*
X33252D01*
X63500Y127000D02*
X72161Y118339D01*
X134500Y92000D02*
X136000Y93500D01*
X130740Y92000D02*
X134500D01*
X73500Y127000D02*
X79996Y120504D01*
X135500Y82000D02*
X139000Y85500D01*
X130240Y82000D02*
X135500D01*
X83500Y127000D02*
X87831Y122669D01*
X31740Y102000D02*
Y118760D01*
X23500Y127000D02*
X31740Y118760D01*
X224480Y72500D02*
X248484Y96504D01*
X231500Y83000D02*
X247169Y98669D01*
X225000Y92500D02*
X237000D01*
X245335Y100835D01*
X273568Y96504D02*
X293568Y116504D01*
X272671Y98669D02*
X292671Y118669D01*
X271774Y100835D02*
X291774Y120835D01*
X270877Y103000D02*
X290877Y123000D01*
X224480Y103000D02*
X270877D01*
X245335Y100835D02*
X271774D01*
X247169Y98669D02*
X272671D01*
X248484Y96504D02*
X273568D01*
X216500Y92000D02*
X217000Y91500D01*
X378500Y194240D02*
X384000Y188740D01*
Y162898D02*
Y188740D01*
Y162898D02*
X388898Y158000D01*
X375773Y120876D02*
X388898Y134000D01*
X372500Y120876D02*
X375773D01*
X323624Y72000D02*
X372500Y120876D01*
X330562Y82000D02*
X378500Y129938D01*
Y134000D01*
X337062Y92500D02*
X369000Y124438D01*
Y134000D01*
X344500Y103000D02*
X359000Y117500D01*
Y134000D01*
X338898Y128898D02*
Y134000D01*
X348898Y125398D02*
Y134000D01*
X340004Y116504D02*
X348898Y125398D01*
X290877Y123000D02*
X309500D01*
X318898Y132398D01*
Y134000D01*
X328669Y118669D02*
X338898Y128898D01*
X291774Y120835D02*
X315732D01*
X328898Y134000D01*
X292671Y118669D02*
X328669D01*
X293568Y116504D02*
X340004D01*
X368500Y194240D02*
X374169Y188571D01*
Y166604D02*
Y188571D01*
Y166604D02*
X378898Y161875D01*
Y158000D02*
Y161875D01*
X358500Y194240D02*
X364169Y188571D01*
Y166604D02*
Y188571D01*
Y166604D02*
X368898Y161875D01*
Y158000D02*
Y161875D01*
X349000Y194240D02*
X354169Y189071D01*
Y166604D02*
Y189071D01*
Y166604D02*
X358898Y161875D01*
Y158000D02*
Y161875D01*
X338500Y194240D02*
X344169Y188571D01*
Y166604D02*
Y188571D01*
Y166604D02*
X348898Y161875D01*
Y158000D02*
Y161875D01*
X328500Y194240D02*
X334169Y188571D01*
Y166604D02*
Y188571D01*
Y166604D02*
X338898Y161875D01*
Y158000D02*
Y161875D01*
X318500Y194240D02*
X324169Y188571D01*
Y166604D02*
Y188571D01*
Y166604D02*
X328898Y161875D01*
Y158000D02*
Y161875D01*
X308500Y194240D02*
X314169Y188571D01*
Y166604D02*
Y188571D01*
Y166604D02*
X318898Y161875D01*
Y158000D02*
Y161875D01*
X55504Y276004D02*
X57500Y278000D01*
X53339Y266954D02*
Y274590D01*
X51090Y276839D02*
X53339Y274590D01*
X63000Y262000D02*
X63500Y261500D01*
X74413D01*
X63071Y256500D02*
X74413D01*
X74605Y279034D02*
X88632D01*
X46000Y231500D02*
X54839Y240339D01*
X57004Y239496D02*
X65000Y231500D01*
X57004Y239496D02*
Y259505D01*
X56996Y259513D02*
X57004Y259505D01*
X54839Y240339D02*
Y258608D01*
X54831Y258616D02*
X54839Y258608D01*
X57669Y272669D02*
X72402Y287402D01*
X57669Y265160D02*
Y272669D01*
X55504Y266057D02*
Y276004D01*
X59161Y263590D02*
X74605Y279034D01*
X59161Y260410D02*
Y263590D01*
Y260410D02*
X63071Y256500D01*
X56996Y259513D02*
Y264487D01*
X57669Y265160D01*
X54831Y258616D02*
Y265384D01*
X55504Y266057D01*
X46929Y256500D02*
X49500Y259071D01*
Y263115D01*
X53339Y266954D01*
X38000Y287402D02*
X46598D01*
X51090Y282910D01*
Y276839D02*
Y282910D01*
X49500Y267000D02*
Y273000D01*
X44000Y261500D02*
X49500Y267000D01*
X155496Y238504D02*
X162000Y232000D01*
X173913D01*
X160500Y227000D02*
X173913D01*
X258500D02*
X273913D01*
X238087Y232000D02*
X245500D01*
X251165Y237665D01*
X262000Y232000D02*
X273913D01*
X238087Y227000D02*
X238587Y227500D01*
X239087Y227000D02*
X249000D01*
X253996Y240004D02*
X262000Y232000D01*
X253996Y265996D02*
X268000Y280000D01*
X254661Y263090D02*
X256910Y265339D01*
X254661Y259910D02*
Y263090D01*
X253996Y240004D02*
Y257513D01*
X252496Y259013D02*
X253996Y257513D01*
X252496Y259013D02*
Y263987D01*
X253996Y265487D01*
Y265996D01*
X251165Y237665D02*
Y257282D01*
X250331Y258116D02*
X251165Y257282D01*
X250331Y258116D02*
Y264884D01*
X251165Y265718D01*
Y273397D01*
X244500Y257000D02*
X248165Y260665D01*
Y265781D01*
X249000Y266615D01*
Y272500D01*
X254661Y259910D02*
X257571Y257000D01*
X273913D01*
X273413Y261500D02*
X273913Y262000D01*
X259500D02*
X272913D01*
X256910Y265339D02*
X257410D01*
X279473Y287402D01*
X288000D01*
X370413Y267000D02*
X381260D01*
X347000Y273000D02*
Y287402D01*
X369913Y261500D02*
X370413Y262000D01*
X356000Y261500D02*
X369913D01*
X352161Y259910D02*
X355071Y257000D01*
X370413D01*
X339500Y262000D02*
X341000Y263500D01*
Y267552D01*
X333552Y275000D02*
X341000Y267552D01*
X331614Y280000D02*
X345500Y266114D01*
X352161Y259910D02*
Y272563D01*
X367000Y287402D01*
X347000Y273000D02*
X349996Y270004D01*
X328774Y287402D02*
X347831Y268345D01*
X334587Y257000D02*
X343500D01*
X345500Y259000D01*
Y266114D01*
X349996Y238004D02*
X356000Y232000D01*
X349996Y238004D02*
Y270004D01*
X347831Y236831D02*
Y268345D01*
X369913Y227500D02*
X370413Y227000D01*
X334587Y232000D02*
X343000D01*
X347438Y236438D01*
X334587Y227000D02*
X347000D01*
X356000D02*
X369413D01*
X267500Y149500D02*
X273240Y143760D01*
X285000D01*
X285500Y144260D01*
X297000Y112000D02*
X338562D01*
X353228Y126666D01*
Y139728D01*
X348957Y144000D02*
X353228Y139728D01*
X318898Y168000D02*
X323500Y163398D01*
Y144000D02*
Y163398D01*
X33252Y91500D02*
X37240Y95488D01*
Y123260D01*
X31240Y82000D02*
X43500Y94260D01*
Y127000D01*
X31000Y72000D02*
X48500Y89500D01*
Y122000D01*
X53500Y127000D01*
X173913Y267000D02*
X183740D01*
X93500Y127000D02*
X119687D01*
X142000Y83760D02*
Y102500D01*
X139000Y85500D02*
Y102438D01*
X136000Y93500D02*
Y102375D01*
X134677Y103698D02*
X136000Y102375D01*
X136843Y104595D02*
X139000Y102438D01*
X139008Y105492D02*
X142000Y102500D01*
X132500Y112500D02*
X134677Y110323D01*
Y103698D02*
Y110323D01*
X133397Y114665D02*
X136843Y111220D01*
X134294Y116831D02*
X139008Y112117D01*
X136843Y104595D02*
Y111220D01*
X139008Y105492D02*
Y112117D01*
X72161Y118339D02*
X119161D01*
X131000Y106500D01*
Y103500D02*
Y106500D01*
X120058Y120504D02*
X128062Y112500D01*
X132500D01*
X120955Y122669D02*
X128959Y114665D01*
X133397D01*
X129856Y116831D02*
X134294D01*
X79996Y120504D02*
X120058D01*
X87831Y122669D02*
X120955D01*
X119687Y127000D02*
X129856Y116831D01*
X80000Y168500D02*
X82209D01*
X85209Y165500D01*
X129799Y120000D02*
X149500D01*
X103799Y146000D02*
X129799Y120000D01*
X16217Y159953D02*
X59954D01*
X15079Y161091D02*
X16217Y159953D01*
X15079Y161091D02*
Y171921D01*
X10791Y176209D02*
X15079Y171921D01*
X59954Y159953D02*
X73906Y146000D01*
X103799D01*
X267492Y173500D02*
X273500D01*
X171500Y112290D02*
Y119000D01*
X165417Y110016D02*
X169226D01*
X171500Y112290D01*
X165417Y107457D02*
Y110016D01*
X160957Y107457D02*
X165417D01*
X159000Y105500D02*
X160957Y107457D01*
X159000Y99000D02*
Y105500D01*
Y99000D02*
X160780Y97220D01*
X165417D01*
X184221D01*
X186779Y99779D01*
X192583D01*
X184221Y94279D02*
Y97220D01*
Y94279D02*
X187071Y91429D01*
Y81010D02*
Y91429D01*
Y81010D02*
X190581Y77500D01*
X188240Y58000D02*
X191917Y61677D01*
Y77083D01*
X227760Y110740D02*
Y116000D01*
X261240Y110760D02*
Y116000D01*
Y110760D02*
X265000Y107000D01*
X230000Y108500D02*
X258980D01*
X261240Y110760D01*
D25*
X228740Y22441D02*
D03*
X248425D02*
D03*
X268110D02*
D03*
X287795D02*
D03*
X307480D02*
D03*
X327165D02*
D03*
X346850D02*
D03*
X366535D02*
D03*
X386221D02*
D03*
X18504D02*
D03*
X38189D02*
D03*
X57874D02*
D03*
X77559D02*
D03*
X97244D02*
D03*
X116929D02*
D03*
X136614D02*
D03*
X156299D02*
D03*
X175984D02*
D03*
X18504Y319685D02*
D03*
X38189D02*
D03*
X57874D02*
D03*
X77559D02*
D03*
X97244D02*
D03*
X116929D02*
D03*
X136614D02*
D03*
X156299D02*
D03*
X175984D02*
D03*
X228740D02*
D03*
X248425D02*
D03*
X268110D02*
D03*
X287795D02*
D03*
X307480D02*
D03*
X327165D02*
D03*
X346850D02*
D03*
X366535D02*
D03*
X386221D02*
D03*
D26*
X265000Y84500D02*
D03*
X284500Y84000D02*
D03*
D27*
X110500Y112000D02*
D03*
X205500D02*
D03*
X297000D02*
D03*
X14000Y226000D02*
D03*
X99500D02*
D03*
X114500D02*
D03*
X198000D02*
D03*
X391000Y225000D02*
D03*
X295500Y226000D02*
D03*
X216000D02*
D03*
X313500D02*
D03*
X14000Y112000D02*
D03*
D28*
X110500Y102000D02*
D03*
Y92000D02*
D03*
Y82000D02*
D03*
Y72000D02*
D03*
X205500Y102000D02*
D03*
Y92000D02*
D03*
Y82000D02*
D03*
Y72000D02*
D03*
X297000Y102000D02*
D03*
Y92000D02*
D03*
Y82000D02*
D03*
Y72000D02*
D03*
X14000Y236000D02*
D03*
Y246000D02*
D03*
Y256000D02*
D03*
Y266000D02*
D03*
X99500Y236000D02*
D03*
Y246000D02*
D03*
Y256000D02*
D03*
Y266000D02*
D03*
X114500Y236000D02*
D03*
Y246000D02*
D03*
Y256000D02*
D03*
Y266000D02*
D03*
X198000Y236000D02*
D03*
Y246000D02*
D03*
Y256000D02*
D03*
Y266000D02*
D03*
X391000Y235000D02*
D03*
Y245000D02*
D03*
Y255000D02*
D03*
Y265000D02*
D03*
X295500Y236000D02*
D03*
Y246000D02*
D03*
Y256000D02*
D03*
Y266000D02*
D03*
X216000Y236000D02*
D03*
Y246000D02*
D03*
Y256000D02*
D03*
Y266000D02*
D03*
X313500Y236000D02*
D03*
Y246000D02*
D03*
Y256000D02*
D03*
Y266000D02*
D03*
X14000Y102000D02*
D03*
Y92000D02*
D03*
Y82000D02*
D03*
Y72000D02*
D03*
D29*
X130500Y138000D02*
D03*
X140500D02*
D03*
X150500D02*
D03*
X160500D02*
D03*
X220000D02*
D03*
X210000D02*
D03*
X200000D02*
D03*
X388898Y144000D02*
D03*
Y134000D02*
D03*
X378898Y144000D02*
D03*
Y134000D02*
D03*
X368898Y144000D02*
D03*
Y134000D02*
D03*
X358898Y144000D02*
D03*
Y134000D02*
D03*
X348898Y144000D02*
D03*
Y134000D02*
D03*
X338898Y144000D02*
D03*
Y134000D02*
D03*
X328898Y144000D02*
D03*
Y134000D02*
D03*
X318898Y144000D02*
D03*
X388898Y168000D02*
D03*
Y158000D02*
D03*
X378898Y168000D02*
D03*
Y158000D02*
D03*
X368898Y168000D02*
D03*
Y158000D02*
D03*
X358898Y168000D02*
D03*
Y158000D02*
D03*
X348898Y168000D02*
D03*
Y158000D02*
D03*
X338898Y168000D02*
D03*
Y158000D02*
D03*
X328898Y168000D02*
D03*
Y158000D02*
D03*
X318898Y168000D02*
D03*
X19500Y183000D02*
D03*
X9500D02*
D03*
X19500Y153000D02*
D03*
X93500Y137000D02*
D03*
Y127000D02*
D03*
X83500Y137000D02*
D03*
Y127000D02*
D03*
X73500Y137000D02*
D03*
Y127000D02*
D03*
X63500Y137000D02*
D03*
Y127000D02*
D03*
X53500Y137000D02*
D03*
Y127000D02*
D03*
X43500Y137000D02*
D03*
Y127000D02*
D03*
X33500Y137000D02*
D03*
Y127000D02*
D03*
X23500Y137000D02*
D03*
X208500Y168000D02*
D03*
Y158000D02*
D03*
X198500Y168000D02*
D03*
Y158000D02*
D03*
X188500Y168000D02*
D03*
Y158000D02*
D03*
X178500Y168000D02*
D03*
Y158000D02*
D03*
X168500Y168000D02*
D03*
Y158000D02*
D03*
X158500Y168000D02*
D03*
Y158000D02*
D03*
X148500Y168000D02*
D03*
Y158000D02*
D03*
X138500Y168000D02*
D03*
D30*
X170500Y138000D02*
D03*
X190000D02*
D03*
X318898Y134000D02*
D03*
Y158000D02*
D03*
X23500Y127000D02*
D03*
X138500Y158000D02*
D03*
D31*
X138000Y179000D02*
D03*
X308500D02*
D03*
D32*
X148000D02*
D03*
X158000D02*
D03*
X168000D02*
D03*
X178000D02*
D03*
X188000D02*
D03*
X198000D02*
D03*
X208000D02*
D03*
X218000D02*
D03*
X138000Y209000D02*
D03*
X148000D02*
D03*
X158000D02*
D03*
X168000D02*
D03*
X178000D02*
D03*
X188000D02*
D03*
X198000D02*
D03*
X208000D02*
D03*
X218000D02*
D03*
X318500Y179000D02*
D03*
X328500D02*
D03*
X338500D02*
D03*
X348500D02*
D03*
X358500D02*
D03*
X368500D02*
D03*
X378500D02*
D03*
X388500D02*
D03*
X308500Y209000D02*
D03*
X318500D02*
D03*
X328500D02*
D03*
X338500D02*
D03*
X348500D02*
D03*
X358500D02*
D03*
X368500D02*
D03*
X378500D02*
D03*
X388500D02*
D03*
D33*
X9500Y153000D02*
D03*
D34*
X232000Y211000D02*
D03*
X252000D02*
D03*
X242000D02*
D03*
D35*
X262000D02*
D03*
D36*
X20500Y253000D02*
D03*
X62500Y248000D02*
D03*
X129500Y255000D02*
D03*
X165000Y250000D02*
D03*
X221000Y251000D02*
D03*
X264000Y248500D02*
D03*
X323000Y255000D02*
D03*
X361500Y246000D02*
D03*
X80000Y168500D02*
D03*
X100000Y154000D02*
D03*
X159000Y128000D02*
D03*
X183000Y129000D02*
D03*
X77500Y108000D02*
D03*
X97000D02*
D03*
X58500Y108500D02*
D03*
X149500Y113500D02*
D03*
X191500Y77500D02*
D03*
X230000Y108500D02*
D03*
X265000Y107000D02*
D03*
X376000Y85000D02*
D03*
X356500Y85500D02*
D03*
X276500Y159000D02*
D03*
D37*
X319500Y275000D02*
D03*
X223500Y276000D02*
D03*
X161500Y262000D02*
D03*
X150000Y226500D02*
D03*
X126000Y273500D02*
D03*
X48000Y226500D02*
D03*
X40500Y184000D02*
D03*
X113500Y193000D02*
D03*
X56000Y227000D02*
D03*
X11763Y218500D02*
D03*
X286000Y125500D02*
D03*
X292500Y127000D02*
D03*
X49500Y273000D02*
D03*
X63000Y262000D02*
D03*
X160500Y227000D02*
D03*
X258500D02*
D03*
X249000D02*
D03*
X259500Y262000D02*
D03*
X356000Y261500D02*
D03*
X347000Y227000D02*
D03*
X356000D02*
D03*
X267500Y149500D02*
D03*
X242500Y118500D02*
D03*
X248151Y117024D02*
D03*
X273500Y173500D02*
D03*
X279500Y129000D02*
D03*
X231500Y136000D02*
D03*
X286000Y172000D02*
D03*
X149500Y120000D02*
D03*
X183500Y115000D02*
D03*
X246500Y174000D02*
D03*
X171500Y119000D02*
D03*
D38*
X368500Y194240D02*
D03*
Y186760D02*
D03*
X338500Y194240D02*
D03*
Y186760D02*
D03*
X378500Y194240D02*
D03*
Y186760D02*
D03*
X358500Y194240D02*
D03*
Y186760D02*
D03*
X349000Y194240D02*
D03*
Y186760D02*
D03*
X328500Y194240D02*
D03*
Y186760D02*
D03*
X318500Y194240D02*
D03*
Y186760D02*
D03*
X308500Y194240D02*
D03*
Y186760D02*
D03*
X226000Y176740D02*
D03*
Y169260D02*
D03*
X178000Y194240D02*
D03*
Y186760D02*
D03*
X208500Y194240D02*
D03*
Y186760D02*
D03*
X198000Y194240D02*
D03*
Y186760D02*
D03*
X188000Y194240D02*
D03*
Y186760D02*
D03*
X168500Y194240D02*
D03*
Y186760D02*
D03*
X158500Y194240D02*
D03*
Y186760D02*
D03*
X148500Y194240D02*
D03*
Y186760D02*
D03*
X138500Y194240D02*
D03*
Y186760D02*
D03*
X185500Y231240D02*
D03*
Y223760D02*
D03*
Y242020D02*
D03*
Y249500D02*
D03*
Y260260D02*
D03*
Y267740D02*
D03*
X285500Y231240D02*
D03*
Y223760D02*
D03*
Y242020D02*
D03*
Y249500D02*
D03*
Y260260D02*
D03*
Y267740D02*
D03*
X323000Y223760D02*
D03*
Y231240D02*
D03*
Y249500D02*
D03*
Y242020D02*
D03*
Y260260D02*
D03*
Y267740D02*
D03*
X381500Y231240D02*
D03*
Y223760D02*
D03*
Y242020D02*
D03*
Y249500D02*
D03*
Y260260D02*
D03*
Y267740D02*
D03*
X124500Y223760D02*
D03*
Y231240D02*
D03*
X227000Y223760D02*
D03*
Y231240D02*
D03*
X124500Y249500D02*
D03*
Y242020D02*
D03*
Y260260D02*
D03*
Y267740D02*
D03*
X227000Y249500D02*
D03*
Y242020D02*
D03*
Y260260D02*
D03*
Y267740D02*
D03*
X86500Y260260D02*
D03*
Y267740D02*
D03*
Y242020D02*
D03*
Y249500D02*
D03*
X86000Y231240D02*
D03*
Y223760D02*
D03*
X26000Y260260D02*
D03*
Y267740D02*
D03*
Y249500D02*
D03*
Y242020D02*
D03*
Y223760D02*
D03*
Y231240D02*
D03*
X296500Y151740D02*
D03*
Y144260D02*
D03*
X285500Y151740D02*
D03*
Y144260D02*
D03*
X275000Y151740D02*
D03*
Y144260D02*
D03*
X120000Y177260D02*
D03*
Y184740D02*
D03*
D39*
X286000Y190098D02*
D03*
Y164902D02*
D03*
D40*
X267492Y182555D02*
D03*
D41*
Y173500D02*
D03*
Y164445D02*
D03*
D42*
X241508Y173500D02*
D03*
D43*
X165260Y148500D02*
D03*
X172740D02*
D03*
X155000D02*
D03*
X147520D02*
D03*
X130260D02*
D03*
X137740D02*
D03*
X31000Y92500D02*
D03*
X23520D02*
D03*
X31000Y82000D02*
D03*
X23520D02*
D03*
X31000Y72000D02*
D03*
X23520D02*
D03*
X130740Y101500D02*
D03*
X123260D02*
D03*
X130740Y92500D02*
D03*
X123260D02*
D03*
X130240Y82000D02*
D03*
X122760D02*
D03*
X130740Y72000D02*
D03*
X123260D02*
D03*
X187980Y68000D02*
D03*
X180500D02*
D03*
X188240Y58000D02*
D03*
X180760D02*
D03*
X171240Y68000D02*
D03*
X163760D02*
D03*
X224480Y101500D02*
D03*
X217000D02*
D03*
X224480Y72000D02*
D03*
X217000D02*
D03*
X253760Y116000D02*
D03*
X261240D02*
D03*
X235240D02*
D03*
X227760D02*
D03*
X224480Y92500D02*
D03*
X217000D02*
D03*
X224480Y82000D02*
D03*
X217000D02*
D03*
X317480Y72000D02*
D03*
X310000D02*
D03*
X317480Y82000D02*
D03*
X310000D02*
D03*
X317480Y92500D02*
D03*
X310000D02*
D03*
X317480Y101500D02*
D03*
X310000D02*
D03*
X197240Y127500D02*
D03*
X189760D02*
D03*
X172740D02*
D03*
X165260D02*
D03*
X137240D02*
D03*
X129760D02*
D03*
X31000Y101500D02*
D03*
X23520D02*
D03*
D44*
X30343Y333000D02*
D03*
X10657D02*
D03*
D45*
X38000Y307087D02*
D03*
Y287402D02*
D03*
X57500Y307087D02*
D03*
Y287402D02*
D03*
X77500Y307087D02*
D03*
Y287402D02*
D03*
X97000Y307087D02*
D03*
Y287402D02*
D03*
X117000Y307087D02*
D03*
Y287402D02*
D03*
X136500Y307087D02*
D03*
Y287402D02*
D03*
X156000Y307087D02*
D03*
Y287402D02*
D03*
X176000Y307087D02*
D03*
Y287402D02*
D03*
X228500Y307087D02*
D03*
Y287402D02*
D03*
X248000Y307087D02*
D03*
Y287402D02*
D03*
X268000Y307087D02*
D03*
Y287402D02*
D03*
X288000Y307087D02*
D03*
Y287402D02*
D03*
X307500Y307087D02*
D03*
Y287402D02*
D03*
X327000Y307087D02*
D03*
Y287402D02*
D03*
X347000Y307087D02*
D03*
Y287402D02*
D03*
X367000Y307087D02*
D03*
Y287402D02*
D03*
D46*
X370413Y267000D02*
D03*
Y262000D02*
D03*
Y257000D02*
D03*
Y252000D02*
D03*
Y247000D02*
D03*
Y242000D02*
D03*
Y237000D02*
D03*
Y232000D02*
D03*
Y227000D02*
D03*
Y222000D02*
D03*
X334587Y267000D02*
D03*
Y262000D02*
D03*
Y257000D02*
D03*
Y252000D02*
D03*
Y247000D02*
D03*
Y242000D02*
D03*
Y237000D02*
D03*
Y232000D02*
D03*
Y227000D02*
D03*
Y222000D02*
D03*
X173913Y267000D02*
D03*
Y262000D02*
D03*
Y257000D02*
D03*
Y252000D02*
D03*
Y247000D02*
D03*
Y242000D02*
D03*
Y237000D02*
D03*
Y232000D02*
D03*
Y227000D02*
D03*
Y222000D02*
D03*
X138087Y267000D02*
D03*
Y262000D02*
D03*
Y257000D02*
D03*
Y252000D02*
D03*
Y247000D02*
D03*
Y242000D02*
D03*
Y237000D02*
D03*
Y232000D02*
D03*
Y227000D02*
D03*
Y222000D02*
D03*
X273913Y267000D02*
D03*
Y262000D02*
D03*
Y257000D02*
D03*
Y252000D02*
D03*
Y247000D02*
D03*
Y242000D02*
D03*
Y237000D02*
D03*
Y232000D02*
D03*
Y227000D02*
D03*
Y222000D02*
D03*
X238087Y267000D02*
D03*
Y262000D02*
D03*
Y257000D02*
D03*
Y252000D02*
D03*
Y247000D02*
D03*
Y242000D02*
D03*
Y237000D02*
D03*
Y232000D02*
D03*
Y227000D02*
D03*
Y222000D02*
D03*
X74413Y266500D02*
D03*
Y261500D02*
D03*
Y256500D02*
D03*
Y251500D02*
D03*
Y246500D02*
D03*
Y241500D02*
D03*
Y236500D02*
D03*
Y231500D02*
D03*
Y226500D02*
D03*
Y221500D02*
D03*
X38587Y266500D02*
D03*
Y261500D02*
D03*
Y256500D02*
D03*
Y251500D02*
D03*
Y246500D02*
D03*
Y241500D02*
D03*
Y236500D02*
D03*
Y231500D02*
D03*
Y226500D02*
D03*
Y221500D02*
D03*
D47*
X8500Y211343D02*
D03*
X13500D02*
D03*
X18500D02*
D03*
X23500D02*
D03*
X8500Y191657D02*
D03*
X13500D02*
D03*
X18500D02*
D03*
X23500D02*
D03*
D48*
X34000Y211917D02*
D03*
Y200500D02*
D03*
X46000Y200291D02*
D03*
Y211709D02*
D03*
X9000Y163791D02*
D03*
Y175209D02*
D03*
X46500Y178000D02*
D03*
Y189417D02*
D03*
X34000Y178083D02*
D03*
Y189500D02*
D03*
X58500Y178000D02*
D03*
Y189417D02*
D03*
D49*
X192583Y115134D02*
D03*
Y112575D02*
D03*
Y110016D02*
D03*
Y107457D02*
D03*
Y104898D02*
D03*
Y102339D02*
D03*
Y99779D02*
D03*
Y97220D02*
D03*
Y94661D02*
D03*
Y92102D02*
D03*
Y89543D02*
D03*
Y86984D02*
D03*
Y84425D02*
D03*
Y81866D02*
D03*
X165417Y115134D02*
D03*
Y112575D02*
D03*
Y110016D02*
D03*
Y107457D02*
D03*
Y104898D02*
D03*
Y102339D02*
D03*
Y99779D02*
D03*
Y97220D02*
D03*
Y94661D02*
D03*
Y92102D02*
D03*
Y89543D02*
D03*
Y86984D02*
D03*
Y84425D02*
D03*
Y81866D02*
D03*
D50*
X104000Y175551D02*
D03*
Y194449D02*
D03*
D51*
X69051Y175000D02*
D03*
Y180000D02*
D03*
Y185000D02*
D03*
Y190000D02*
D03*
X87949Y175000D02*
D03*
Y180000D02*
D03*
Y185000D02*
D03*
Y190000D02*
D03*
D52*
X20000Y175406D02*
D03*
Y163594D02*
D03*
D53*
X96595Y165500D02*
D03*
X108405D02*
D03*
D54*
X285500Y151740D02*
X287020D01*
X290276Y148484D01*
Y147947D02*
Y148484D01*
Y147947D02*
X291313Y146909D01*
X291850D01*
X295000Y143760D01*
M02*
