<?xml version="1.0" encoding="UTF-8" standalone="no"?><svg xmlns="http://www.w3.org/2000/svg" xmlns:xlink="http://www.w3.org/1999/xlink" contentScriptType="application/ecmascript" contentStyleType="text/css" height="1133px" preserveAspectRatio="none" style="width:911px;height:1133px;" version="1.1" viewBox="0 0 911 1133" width="911px" zoomAndPan="magnify"><defs><filter height="300%" id="fjydbhz5rd33l" width="300%" x="-1" y="-1"><feGaussianBlur result="blurOut" stdDeviation="2.0"/><feColorMatrix in="blurOut" result="blurOut2" type="matrix" values="0 0 0 0 0 0 0 0 0 0 0 0 0 0 0 0 0 0 .4 0"/><feOffset dx="4.0" dy="4.0" in="blurOut2" result="blurOut3"/><feBlend in="SourceGraphic" in2="blurOut3" mode="normal"/></filter></defs><g><!--MD5=[34bfa397262be8e71d7297b4db6ec35a]
cluster Diplomamunka--><polygon fill="#FFFFFF" filter="url(#fjydbhz5rd33l)" points="16,6,142,6,149,28.2969,894,28.2969,894,1126,16,1126,16,6" style="stroke:#000000;stroke-width:1.5;"/><line style="stroke:#000000;stroke-width:1.5;" x1="16" x2="149" y1="28.2969" y2="28.2969"/><text fill="#000000" font-family="sans-serif" font-size="14" font-weight="bold" lengthAdjust="spacing" textLength="120" x="20" y="20.9951">Diplomamunka</text><!--MD5=[d973e8441f81186c59873525e6e23174]
class Diplomamunka.BorisController--><rect codeLine="5" fill="#FEFECE" filter="url(#fjydbhz5rd33l)" height="304.0938" id="Diplomamunka.BorisController" style="stroke:#A80036;stroke-width:1.5;" width="460" x="129" y="111"/><ellipse cx="309.75" cy="127" fill="#ADD1B2" rx="11" ry="11" style="stroke:#A80036;stroke-width:1.0;"/><path d="M312.0938,122.6719 C311.1563,122.2344 310.5625,122.0938 309.6875,122.0938 C307.0625,122.0938 305.0625,124.1719 305.0625,126.8906 L305.0625,128.0156 C305.0625,130.5938 307.1719,132.4844 310.0625,132.4844 C311.2813,132.4844 312.4375,132.1875 313.1875,131.6406 C313.7656,131.2344 314.0938,130.7813 314.0938,130.3906 C314.0938,129.9375 313.7031,129.5469 313.2344,129.5469 C313.0156,129.5469 312.8125,129.625 312.625,129.8125 C312.1719,130.2969 312.1719,130.2969 311.9844,130.3906 C311.5625,130.6563 310.875,130.7813 310.1094,130.7813 C308.0625,130.7813 306.7656,129.6875 306.7656,127.9844 L306.7656,126.8906 C306.7656,125.1094 308.0156,123.7969 309.75,123.7969 C310.3281,123.7969 310.9375,123.9531 311.4063,124.2031 C311.8906,124.4844 312.0625,124.7031 312.1563,125.1094 C312.2188,125.5156 312.25,125.6406 312.3906,125.7656 C312.5313,125.9063 312.7656,126.0156 312.9844,126.0156 C313.25,126.0156 313.5156,125.875 313.6875,125.6563 C313.7969,125.5 313.8281,125.3125 313.8281,124.8906 L313.8281,123.4688 C313.8281,123.0313 313.8125,122.9063 313.7188,122.75 C313.5625,122.4844 313.2813,122.3438 312.9844,122.3438 C312.6875,122.3438 312.4844,122.4375 312.2656,122.75 L312.0938,122.6719 Z " fill="#000000"/><text fill="#000000" font-family="sans-serif" font-size="12" lengthAdjust="spacing" textLength="90" x="330.25" y="131.1543">BorisController</text><line style="stroke:#A80036;stroke-width:1.5;" x1="130" x2="588" y1="143" y2="143"/><ellipse cx="140" cy="154" rx="3" ry="3" style="stroke:#038048;stroke-width:1.0;fill:none;"/><text fill="#000000" font-family="sans-serif" font-size="11" lengthAdjust="spacing" textLength="165" x="149" y="157.2104">«property» interval : int = 10</text><ellipse cx="140" cy="166.8047" rx="3" ry="3" style="stroke:#038048;stroke-width:1.0;fill:none;"/><text fill="#000000" font-family="sans-serif" font-size="11" lengthAdjust="spacing" textLength="202" x="149" y="170.0151">«property» portName : QString = ""</text><ellipse cx="140" cy="179.6094" rx="3" ry="3" style="stroke:#038048;stroke-width:1.0;fill:none;"/><text fill="#000000" font-family="sans-serif" font-size="11" lengthAdjust="spacing" textLength="222" x="149" y="182.8198">«property» input : quint16 = 0 {query}</text><ellipse cx="140" cy="192.4141" rx="3" ry="3" style="stroke:#038048;stroke-width:1.0;fill:none;"/><text fill="#000000" font-family="sans-serif" font-size="11" lengthAdjust="spacing" textLength="179" x="149" y="195.6245">«property» output : quint16 = 0</text><rect fill="none" height="6" style="stroke:#C82930;stroke-width:1.0;" width="6" x="137" y="202.2188"/><text fill="#000000" font-family="sans-serif" font-size="11" lengthAdjust="spacing" textLength="106" x="149" y="208.4292">m_ioPort : IOPortPtr</text><rect fill="none" height="6" style="stroke:#C82930;stroke-width:1.0;" width="6" x="137" y="215.0234"/><text fill="#000000" font-family="sans-serif" font-size="11" lengthAdjust="spacing" textLength="105" x="149" y="221.2339">m_timer : TimerPtr</text><rect fill="none" height="6" style="stroke:#C82930;stroke-width:1.0;" width="6" x="137" y="227.8281"/><text fill="#000000" font-family="sans-serif" font-size="11" lengthAdjust="spacing" textLength="142" x="149" y="234.0386">m_isActive : bool = false</text><rect fill="none" height="6" style="stroke:#C82930;stroke-width:1.0;" width="6" x="137" y="240.6328"/><text fill="#000000" font-family="sans-serif" font-size="11" lengthAdjust="spacing" text-decoration="underline" textLength="236" x="149" y="246.8433">«constant» ReadCommand : char = '\xb9'</text><rect fill="none" height="6" style="stroke:#C82930;stroke-width:1.0;" width="6" x="137" y="253.4375"/><text fill="#000000" font-family="sans-serif" font-size="11" lengthAdjust="spacing" text-decoration="underline" textLength="237" x="149" y="259.6479">«constant» WriteCommand : char = '\xba'</text><line style="stroke:#A80036;stroke-width:1.5;" x1="130" x2="588" y1="266.2422" y2="266.2422"/><ellipse cx="140" cy="277.2422" fill="#84BE84" rx="3" ry="3" style="stroke:#038048;stroke-width:1.0;"/><text fill="#000000" font-family="sans-serif" font-size="11" lengthAdjust="spacing" textLength="243" x="149" y="280.4526">BorisController(parent : QObject* = nullptr)</text><ellipse cx="140" cy="290.0469" fill="#84BE84" rx="3" ry="3" style="stroke:#038048;stroke-width:1.0;"/><text fill="#000000" font-family="sans-serif" font-size="11" lengthAdjust="spacing" textLength="434" x="149" y="293.2573">BorisController(ioPort : IOPortPtr, timer : TimerPtr, parent : QObject* = nullptr)</text><ellipse cx="140" cy="302.8516" fill="#84BE84" rx="3" ry="3" style="stroke:#038048;stroke-width:1.0;"/><text fill="#000000" font-family="sans-serif" font-size="11" lengthAdjust="spacing" textLength="100" x="149" y="306.062">~BorisController()</text><ellipse cx="140" cy="315.6563" fill="#84BE84" rx="3" ry="3" style="stroke:#038048;stroke-width:1.0;"/><text fill="#000000" font-family="sans-serif" font-size="11" lengthAdjust="spacing" textLength="68" x="149" y="318.8667">start() : bool</text><ellipse cx="140" cy="328.4609" fill="#84BE84" rx="3" ry="3" style="stroke:#038048;stroke-width:1.0;"/><text fill="#000000" font-family="sans-serif" font-size="11" lengthAdjust="spacing" textLength="139" x="149" y="331.6714">isActive() : bool {query}</text><ellipse cx="140" cy="341.2656" fill="#84BE84" rx="3" ry="3" style="stroke:#038048;stroke-width:1.0;"/><text fill="#000000" font-family="sans-serif" font-size="11" lengthAdjust="spacing" textLength="67" x="149" y="344.4761">stop() : void</text><ellipse cx="140" cy="354.0703" fill="#84BE84" rx="3" ry="3" style="stroke:#038048;stroke-width:1.0;"/><text fill="#000000" font-family="sans-serif" font-size="11" lengthAdjust="spacing" textLength="211" x="149" y="357.2808">getPortNames() : QStringList {query}</text><ellipse cx="140" cy="366.875" fill="#84BE84" rx="3" ry="3" style="stroke:#038048;stroke-width:1.0;"/><text fill="#000000" font-family="sans-serif" font-size="11" lengthAdjust="spacing" textLength="279" x="149" y="370.0854">«event» errorOccurred(message : QString) : void</text><rect fill="#F24D5C" height="6" style="stroke:#C82930;stroke-width:1.0;" width="6" x="137" y="376.6797"/><text fill="#000000" font-family="sans-serif" font-size="11" lengthAdjust="spacing" textLength="97" x="149" y="382.8901">readInput() : void</text><rect fill="#F24D5C" height="6" style="stroke:#C82930;stroke-width:1.0;" width="6" x="137" y="389.4844"/><text fill="#000000" font-family="sans-serif" font-size="11" lengthAdjust="spacing" textLength="109" x="149" y="395.6948">writeOutput() : void</text><rect fill="#F24D5C" height="6" style="stroke:#C82930;stroke-width:1.0;" width="6" x="137" y="402.2891"/><text fill="#000000" font-family="sans-serif" font-size="11" lengthAdjust="spacing" textLength="110" x="149" y="408.4995">stopIfActive() : void</text><ellipse cx="359" cy="46" fill="#FEFECE" filter="url(#fjydbhz5rd33l)" rx="5" ry="5" style="stroke:#A80036;stroke-width:1.5;"/><text fill="#000000" font-family="sans-serif" font-size="12" lengthAdjust="spacing" textLength="50" x="334" y="62.1387">QObject</text><!--MD5=[312ba82487982af088d25db0cf638f0c]
class Diplomamunka.Timer--><rect codeLine="31" fill="#FEFECE" filter="url(#fjydbhz5rd33l)" height="112.0234" id="Diplomamunka.Timer" style="stroke:#A80036;stroke-width:1.5;" width="219" x="76.5" y="494"/><ellipse cx="164.75" cy="510" fill="#A9DCDF" rx="11" ry="11" style="stroke:#A80036;stroke-width:1.0;"/><path d="M166.8281,511.8125 L167.2188,512.7969 L166.8281,512.7969 C166.375,512.7969 166.2656,512.8125 166.1094,512.9219 C165.8594,513.0781 165.7031,513.3594 165.7031,513.6563 C165.7031,513.9219 165.8438,514.1719 166.0625,514.3281 C166.2031,514.4531 166.4063,514.5 166.8281,514.5 L169.1875,514.5 C169.5469,514.5 169.7656,514.4688 169.9063,514.375 C170.1563,514.2344 170.3125,513.9375 170.3125,513.6563 C170.3125,513.375 170.1719,513.125 169.9531,512.9688 C169.7813,512.8281 169.625,512.7969 169.1563,512.7969 L165.7656,504.5938 L162.0938,504.5938 C161.6406,504.5938 161.5156,504.6094 161.3594,504.7031 C161.1094,504.875 160.9531,505.1563 160.9531,505.4375 C160.9531,505.7188 161.0938,505.9688 161.3125,506.1406 C161.4844,506.25 161.6563,506.2813 162.0938,506.2813 L163.1719,506.2813 L160.5313,512.7969 C160.1094,512.7969 159.9531,512.8125 159.7969,512.9219 C159.5469,513.0781 159.3906,513.3594 159.3906,513.6563 C159.3906,514.2188 159.7656,514.5 160.5156,514.5 L162.7813,514.5 C163.1406,514.5 163.3594,514.4688 163.4844,514.375 C163.75,514.2344 163.8906,513.9375 163.8906,513.6563 C163.8906,513.375 163.7656,513.125 163.5469,512.9531 C163.375,512.8281 163.2344,512.7969 162.7813,512.7969 L162.3906,512.7969 L162.7813,511.8125 L166.8281,511.8125 Z M166.125,510.1094 L163.4531,510.1094 L164.7969,506.8438 L166.125,510.1094 Z " fill="#000000"/><text fill="#000000" font-family="sans-serif" font-size="12" font-style="italic" lengthAdjust="spacing" textLength="34" x="185.25" y="514.1543">Timer</text><line style="stroke:#A80036;stroke-width:1.5;" x1="77.5" x2="294.5" y1="526" y2="526"/><line style="stroke:#A80036;stroke-width:1.5;" x1="77.5" x2="294.5" y1="534" y2="534"/><ellipse cx="87.5" cy="545" fill="#84BE84" rx="3" ry="3" style="stroke:#038048;stroke-width:1.0;"/><text fill="#000000" font-family="sans-serif" font-size="11" lengthAdjust="spacing" textLength="193" x="96.5" y="548.2104">Timer(parent : QObject* = nullptr)</text><ellipse cx="87.5" cy="557.8047" fill="#84BE84" rx="3" ry="3" style="stroke:#038048;stroke-width:1.0;"/><text fill="#000000" font-family="sans-serif" font-size="11" font-style="italic" lengthAdjust="spacing" textLength="139" x="96.5" y="561.0151">start(interval : int) : void</text><ellipse cx="87.5" cy="570.6094" fill="#84BE84" rx="3" ry="3" style="stroke:#038048;stroke-width:1.0;"/><text fill="#000000" font-family="sans-serif" font-size="11" font-style="italic" lengthAdjust="spacing" textLength="150" x="96.5" y="573.8198">isRunning() : bool {query}</text><ellipse cx="87.5" cy="583.4141" fill="#84BE84" rx="3" ry="3" style="stroke:#038048;stroke-width:1.0;"/><text fill="#000000" font-family="sans-serif" font-size="11" font-style="italic" lengthAdjust="spacing" textLength="68" x="96.5" y="586.6245">stop() : void</text><ellipse cx="87.5" cy="596.2188" fill="#84BE84" rx="3" ry="3" style="stroke:#038048;stroke-width:1.0;"/><text fill="#000000" font-family="sans-serif" font-size="11" lengthAdjust="spacing" textLength="141" x="96.5" y="599.4292">«event» elapsed() : void</text><ellipse cx="622" cy="550" fill="#FEFECE" filter="url(#fjydbhz5rd33l)" rx="5" ry="5" style="stroke:#A80036;stroke-width:1.5;"/><text fill="#000000" font-family="sans-serif" font-size="12" lengthAdjust="spacing" textLength="50" x="597" y="566.1387">QObject</text><!--MD5=[8632c0ca3afae4e461fc3cbb3fd0252c]
class Diplomamunka.IOPort--><rect codeLine="43" fill="#FEFECE" filter="url(#fjydbhz5rd33l)" height="150.4375" id="Diplomamunka.IOPort" style="stroke:#A80036;stroke-width:1.5;" width="251" x="330.5" y="475"/><ellipse cx="433.25" cy="491" fill="#A9DCDF" rx="11" ry="11" style="stroke:#A80036;stroke-width:1.0;"/><path d="M435.3281,492.8125 L435.7188,493.7969 L435.3281,493.7969 C434.875,493.7969 434.7656,493.8125 434.6094,493.9219 C434.3594,494.0781 434.2031,494.3594 434.2031,494.6563 C434.2031,494.9219 434.3438,495.1719 434.5625,495.3281 C434.7031,495.4531 434.9063,495.5 435.3281,495.5 L437.6875,495.5 C438.0469,495.5 438.2656,495.4688 438.4063,495.375 C438.6563,495.2344 438.8125,494.9375 438.8125,494.6563 C438.8125,494.375 438.6719,494.125 438.4531,493.9688 C438.2813,493.8281 438.125,493.7969 437.6563,493.7969 L434.2656,485.5938 L430.5938,485.5938 C430.1406,485.5938 430.0156,485.6094 429.8594,485.7031 C429.6094,485.875 429.4531,486.1563 429.4531,486.4375 C429.4531,486.7188 429.5938,486.9688 429.8125,487.1406 C429.9844,487.25 430.1563,487.2813 430.5938,487.2813 L431.6719,487.2813 L429.0313,493.7969 C428.6094,493.7969 428.4531,493.8125 428.2969,493.9219 C428.0469,494.0781 427.8906,494.3594 427.8906,494.6563 C427.8906,495.2188 428.2656,495.5 429.0156,495.5 L431.2813,495.5 C431.6406,495.5 431.8594,495.4688 431.9844,495.375 C432.25,495.2344 432.3906,494.9375 432.3906,494.6563 C432.3906,494.375 432.2656,494.125 432.0469,493.9531 C431.875,493.8281 431.7344,493.7969 431.2813,493.7969 L430.8906,493.7969 L431.2813,492.8125 L435.3281,492.8125 Z M434.625,491.1094 L431.9531,491.1094 L433.2969,487.8438 L434.625,491.1094 Z " fill="#000000"/><text fill="#000000" font-family="sans-serif" font-size="12" font-style="italic" lengthAdjust="spacing" textLength="37" x="453.75" y="495.1543">IOPort</text><line style="stroke:#A80036;stroke-width:1.5;" x1="331.5" x2="580.5" y1="507" y2="507"/><line style="stroke:#A80036;stroke-width:1.5;" x1="331.5" x2="580.5" y1="515" y2="515"/><ellipse cx="341.5" cy="526" fill="#84BE84" rx="3" ry="3" style="stroke:#038048;stroke-width:1.0;"/><text fill="#000000" font-family="sans-serif" font-size="11" lengthAdjust="spacing" textLength="193" x="350.5" y="529.2104">IOPort(parent : QObject* = nullptr)</text><ellipse cx="341.5" cy="538.8047" fill="#84BE84" rx="3" ry="3" style="stroke:#038048;stroke-width:1.0;"/><text fill="#000000" font-family="sans-serif" font-size="11" font-style="italic" lengthAdjust="spacing" textLength="212" x="350.5" y="542.0151">getPortNames() : QStringList {query}</text><ellipse cx="341.5" cy="551.6094" fill="#84BE84" rx="3" ry="3" style="stroke:#038048;stroke-width:1.0;"/><text fill="#000000" font-family="sans-serif" font-size="11" font-style="italic" lengthAdjust="spacing" textLength="225" x="350.5" y="554.8198">open(portName : const QString&amp;) : void</text><ellipse cx="341.5" cy="564.4141" fill="#84BE84" rx="3" ry="3" style="stroke:#038048;stroke-width:1.0;"/><text fill="#000000" font-family="sans-serif" font-size="11" font-style="italic" lengthAdjust="spacing" textLength="134" x="350.5" y="567.6245">isOpen() : bool {query}</text><ellipse cx="341.5" cy="577.2188" fill="#84BE84" rx="3" ry="3" style="stroke:#038048;stroke-width:1.0;"/><text fill="#000000" font-family="sans-serif" font-size="11" font-style="italic" lengthAdjust="spacing" textLength="73" x="350.5" y="580.4292">close() : void</text><ellipse cx="341.5" cy="590.0234" fill="#84BE84" rx="3" ry="3" style="stroke:#038048;stroke-width:1.0;"/><text fill="#000000" font-family="sans-serif" font-size="11" font-style="italic" lengthAdjust="spacing" textLength="113" x="350.5" y="593.2339">read() : QByteArray</text><ellipse cx="341.5" cy="602.8281" fill="#84BE84" rx="3" ry="3" style="stroke:#038048;stroke-width:1.0;"/><text fill="#000000" font-family="sans-serif" font-size="11" font-style="italic" lengthAdjust="spacing" textLength="219" x="350.5" y="606.0386">write(data : const QByteArray&amp;) : void</text><ellipse cx="341.5" cy="615.6328" fill="#84BE84" rx="3" ry="3" style="stroke:#038048;stroke-width:1.0;"/><text fill="#000000" font-family="sans-serif" font-size="11" lengthAdjust="spacing" textLength="174" x="350.5" y="618.8433">«event» dataReceived() : void</text><ellipse cx="667" cy="550" fill="#FEFECE" filter="url(#fjydbhz5rd33l)" rx="5" ry="5" style="stroke:#A80036;stroke-width:1.5;"/><text fill="#000000" font-family="sans-serif" font-size="12" lengthAdjust="spacing" textLength="50" x="642" y="566.1387">QObject</text><!--MD5=[db92b30e8c964fdbcf4874d774af981f]
class Diplomamunka.CyclicTimer--><rect codeLine="58" fill="#FEFECE" filter="url(#fjydbhz5rd33l)" height="176.0469" id="Diplomamunka.CyclicTimer" style="stroke:#A80036;stroke-width:1.5;" width="252" x="32" y="685"/><ellipse cx="119.25" cy="701" fill="#ADD1B2" rx="11" ry="11" style="stroke:#A80036;stroke-width:1.0;"/><path d="M121.5938,696.6719 C120.6563,696.2344 120.0625,696.0938 119.1875,696.0938 C116.5625,696.0938 114.5625,698.1719 114.5625,700.8906 L114.5625,702.0156 C114.5625,704.5938 116.6719,706.4844 119.5625,706.4844 C120.7813,706.4844 121.9375,706.1875 122.6875,705.6406 C123.2656,705.2344 123.5938,704.7813 123.5938,704.3906 C123.5938,703.9375 123.2031,703.5469 122.7344,703.5469 C122.5156,703.5469 122.3125,703.625 122.125,703.8125 C121.6719,704.2969 121.6719,704.2969 121.4844,704.3906 C121.0625,704.6563 120.375,704.7813 119.6094,704.7813 C117.5625,704.7813 116.2656,703.6875 116.2656,701.9844 L116.2656,700.8906 C116.2656,699.1094 117.5156,697.7969 119.25,697.7969 C119.8281,697.7969 120.4375,697.9531 120.9063,698.2031 C121.3906,698.4844 121.5625,698.7031 121.6563,699.1094 C121.7188,699.5156 121.75,699.6406 121.8906,699.7656 C122.0313,699.9063 122.2656,700.0156 122.4844,700.0156 C122.75,700.0156 123.0156,699.875 123.1875,699.6563 C123.2969,699.5 123.3281,699.3125 123.3281,698.8906 L123.3281,697.4688 C123.3281,697.0313 123.3125,696.9063 123.2188,696.75 C123.0625,696.4844 122.7813,696.3438 122.4844,696.3438 C122.1875,696.3438 121.9844,696.4375 121.7656,696.75 L121.5938,696.6719 Z " fill="#000000"/><text fill="#000000" font-family="sans-serif" font-size="12" lengthAdjust="spacing" textLength="69" x="139.75" y="705.1543">CyclicTimer</text><line style="stroke:#A80036;stroke-width:1.5;" x1="33" x2="283" y1="717" y2="717"/><rect fill="none" height="6" style="stroke:#C82930;stroke-width:1.0;" width="6" x="40" y="725"/><text fill="#000000" font-family="sans-serif" font-size="11" lengthAdjust="spacing" textLength="124" x="52" y="731.2104">m_timerImpl : QTimer</text><rect fill="none" height="6" style="stroke:#C82930;stroke-width:1.0;" width="6" x="40" y="737.8047"/><text fill="#000000" font-family="sans-serif" font-size="11" lengthAdjust="spacing" text-decoration="underline" textLength="199" x="52" y="744.0151">«constant» InvalidTimerId : int = -1</text><line style="stroke:#A80036;stroke-width:1.5;" x1="33" x2="283" y1="750.6094" y2="750.6094"/><ellipse cx="43" cy="761.6094" fill="#84BE84" rx="3" ry="3" style="stroke:#038048;stroke-width:1.0;"/><text fill="#000000" font-family="sans-serif" font-size="11" lengthAdjust="spacing" textLength="226" x="52" y="764.8198">CyclicTimer(parent : QObject* = nullptr)</text><ellipse cx="43" cy="774.4141" fill="#84BE84" rx="3" ry="3" style="stroke:#038048;stroke-width:1.0;"/><text fill="#000000" font-family="sans-serif" font-size="11" lengthAdjust="spacing" textLength="136" x="52" y="777.6245">start(interval : int) : void</text><ellipse cx="43" cy="787.2188" fill="#84BE84" rx="3" ry="3" style="stroke:#038048;stroke-width:1.0;"/><text fill="#000000" font-family="sans-serif" font-size="11" lengthAdjust="spacing" textLength="148" x="52" y="790.4292">isRunning() : bool {query}</text><ellipse cx="43" cy="800.0234" fill="#84BE84" rx="3" ry="3" style="stroke:#038048;stroke-width:1.0;"/><text fill="#000000" font-family="sans-serif" font-size="11" lengthAdjust="spacing" textLength="67" x="52" y="803.2339">stop() : void</text><ellipse cx="43" cy="812.8281" fill="#84BE84" rx="3" ry="3" style="stroke:#038048;stroke-width:1.0;"/><text fill="#000000" font-family="sans-serif" font-size="11" lengthAdjust="spacing" text-decoration="underline" textLength="103" x="52" y="816.0386">create() : TimerPtr</text><rect fill="#F24D5C" height="6" style="stroke:#C82930;stroke-width:1.0;" width="6" x="40" y="822.6328"/><text fill="#000000" font-family="sans-serif" font-size="11" lengthAdjust="spacing" textLength="224" x="52" y="828.8433">verifyCanBeStarted(interval : int) : void</text><rect fill="#F24D5C" height="6" style="stroke:#C82930;stroke-width:1.0;" width="6" x="40" y="835.4375"/><text fill="#000000" font-family="sans-serif" font-size="11" lengthAdjust="spacing" textLength="118" x="52" y="841.6479">verifyStarted() : void</text><rect fill="#F24D5C" height="6" style="stroke:#C82930;stroke-width:1.0;" width="6" x="40" y="848.2422"/><text fill="#000000" font-family="sans-serif" font-size="11" lengthAdjust="spacing" textLength="162" x="52" y="854.4526">verifyCanBeStopped() : void</text><!--MD5=[0e7d57a5dcc9d81f46568c9b4239aded]
class Diplomamunka.SerialPort--><rect codeLine="72" fill="#FEFECE" filter="url(#fjydbhz5rd33l)" height="176.0469" id="Diplomamunka.SerialPort" style="stroke:#A80036;stroke-width:1.5;" width="250" x="628" y="685"/><ellipse cx="720.25" cy="701" fill="#ADD1B2" rx="11" ry="11" style="stroke:#A80036;stroke-width:1.0;"/><path d="M722.5938,696.6719 C721.6563,696.2344 721.0625,696.0938 720.1875,696.0938 C717.5625,696.0938 715.5625,698.1719 715.5625,700.8906 L715.5625,702.0156 C715.5625,704.5938 717.6719,706.4844 720.5625,706.4844 C721.7813,706.4844 722.9375,706.1875 723.6875,705.6406 C724.2656,705.2344 724.5938,704.7813 724.5938,704.3906 C724.5938,703.9375 724.2031,703.5469 723.7344,703.5469 C723.5156,703.5469 723.3125,703.625 723.125,703.8125 C722.6719,704.2969 722.6719,704.2969 722.4844,704.3906 C722.0625,704.6563 721.375,704.7813 720.6094,704.7813 C718.5625,704.7813 717.2656,703.6875 717.2656,701.9844 L717.2656,700.8906 C717.2656,699.1094 718.5156,697.7969 720.25,697.7969 C720.8281,697.7969 721.4375,697.9531 721.9063,698.2031 C722.3906,698.4844 722.5625,698.7031 722.6563,699.1094 C722.7188,699.5156 722.75,699.6406 722.8906,699.7656 C723.0313,699.9063 723.2656,700.0156 723.4844,700.0156 C723.75,700.0156 724.0156,699.875 724.1875,699.6563 C724.2969,699.5 724.3281,699.3125 724.3281,698.8906 L724.3281,697.4688 C724.3281,697.0313 724.3125,696.9063 724.2188,696.75 C724.0625,696.4844 723.7813,696.3438 723.4844,696.3438 C723.1875,696.3438 722.9844,696.4375 722.7656,696.75 L722.5938,696.6719 Z " fill="#000000"/><text fill="#000000" font-family="sans-serif" font-size="12" lengthAdjust="spacing" textLength="57" x="740.75" y="705.1543">SerialPort</text><line style="stroke:#A80036;stroke-width:1.5;" x1="629" x2="877" y1="717" y2="717"/><rect fill="none" height="6" style="stroke:#C82930;stroke-width:1.0;" width="6" x="636" y="725"/><text fill="#000000" font-family="sans-serif" font-size="11" lengthAdjust="spacing" textLength="137" x="648" y="731.2104">m_portImpl : QSerialPort</text><line style="stroke:#A80036;stroke-width:1.5;" x1="629" x2="877" y1="737.8047" y2="737.8047"/><ellipse cx="639" cy="748.8047" fill="#84BE84" rx="3" ry="3" style="stroke:#038048;stroke-width:1.0;"/><text fill="#000000" font-family="sans-serif" font-size="11" lengthAdjust="spacing" textLength="214" x="648" y="752.0151">SerialPort(parent : QObject* = nullptr)</text><ellipse cx="639" cy="761.6094" fill="#84BE84" rx="3" ry="3" style="stroke:#038048;stroke-width:1.0;"/><text fill="#000000" font-family="sans-serif" font-size="11" lengthAdjust="spacing" textLength="211" x="648" y="764.8198">getPortNames() : QStringList {query}</text><ellipse cx="639" cy="774.4141" fill="#84BE84" rx="3" ry="3" style="stroke:#038048;stroke-width:1.0;"/><text fill="#000000" font-family="sans-serif" font-size="11" lengthAdjust="spacing" textLength="224" x="648" y="777.6245">open(portName : const QString&amp;) : void</text><ellipse cx="639" cy="787.2188" fill="#84BE84" rx="3" ry="3" style="stroke:#038048;stroke-width:1.0;"/><text fill="#000000" font-family="sans-serif" font-size="11" lengthAdjust="spacing" textLength="134" x="648" y="790.4292">isOpen() : bool {query}</text><ellipse cx="639" cy="800.0234" fill="#84BE84" rx="3" ry="3" style="stroke:#038048;stroke-width:1.0;"/><text fill="#000000" font-family="sans-serif" font-size="11" lengthAdjust="spacing" textLength="73" x="648" y="803.2339">close() : void</text><ellipse cx="639" cy="812.8281" fill="#84BE84" rx="3" ry="3" style="stroke:#038048;stroke-width:1.0;"/><text fill="#000000" font-family="sans-serif" font-size="11" lengthAdjust="spacing" textLength="111" x="648" y="816.0386">read() : QByteArray</text><ellipse cx="639" cy="825.6328" fill="#84BE84" rx="3" ry="3" style="stroke:#038048;stroke-width:1.0;"/><text fill="#000000" font-family="sans-serif" font-size="11" lengthAdjust="spacing" textLength="216" x="648" y="828.8433">write(data : const QByteArray&amp;) : void</text><ellipse cx="639" cy="838.4375" fill="#84BE84" rx="3" ry="3" style="stroke:#038048;stroke-width:1.0;"/><text fill="#000000" font-family="sans-serif" font-size="11" lengthAdjust="spacing" text-decoration="underline" textLength="103" x="648" y="841.6479">create() : IOPortPtr</text><rect fill="#F24D5C" height="6" style="stroke:#C82930;stroke-width:1.0;" width="6" x="636" y="848.2422"/><text fill="#000000" font-family="sans-serif" font-size="11" lengthAdjust="spacing" textLength="123" x="648" y="854.4526">verifyNoErrors() : void</text><!--MD5=[41765721100e49136fcbde296801f87e]
class Diplomamunka.DeveloperPort--><rect codeLine="86" fill="#FEFECE" filter="url(#fjydbhz5rd33l)" height="176.0469" id="Diplomamunka.DeveloperPort" style="stroke:#A80036;stroke-width:1.5;" width="274" x="319" y="685"/><ellipse cx="409.75" cy="701" fill="#A9DCDF" rx="11" ry="11" style="stroke:#A80036;stroke-width:1.0;"/><path d="M411.8281,702.8125 L412.2188,703.7969 L411.8281,703.7969 C411.375,703.7969 411.2656,703.8125 411.1094,703.9219 C410.8594,704.0781 410.7031,704.3594 410.7031,704.6563 C410.7031,704.9219 410.8438,705.1719 411.0625,705.3281 C411.2031,705.4531 411.4063,705.5 411.8281,705.5 L414.1875,705.5 C414.5469,705.5 414.7656,705.4688 414.9063,705.375 C415.1563,705.2344 415.3125,704.9375 415.3125,704.6563 C415.3125,704.375 415.1719,704.125 414.9531,703.9688 C414.7813,703.8281 414.625,703.7969 414.1563,703.7969 L410.7656,695.5938 L407.0938,695.5938 C406.6406,695.5938 406.5156,695.6094 406.3594,695.7031 C406.1094,695.875 405.9531,696.1563 405.9531,696.4375 C405.9531,696.7188 406.0938,696.9688 406.3125,697.1406 C406.4844,697.25 406.6563,697.2813 407.0938,697.2813 L408.1719,697.2813 L405.5313,703.7969 C405.1094,703.7969 404.9531,703.8125 404.7969,703.9219 C404.5469,704.0781 404.3906,704.3594 404.3906,704.6563 C404.3906,705.2188 404.7656,705.5 405.5156,705.5 L407.7813,705.5 C408.1406,705.5 408.3594,705.4688 408.4844,705.375 C408.75,705.2344 408.8906,704.9375 408.8906,704.6563 C408.8906,704.375 408.7656,704.125 408.5469,703.9531 C408.375,703.8281 408.2344,703.7969 407.7813,703.7969 L407.3906,703.7969 L407.7813,702.8125 L411.8281,702.8125 Z M411.125,701.1094 L408.4531,701.1094 L409.7969,697.8438 L411.125,701.1094 Z " fill="#000000"/><text fill="#000000" font-family="sans-serif" font-size="12" font-style="italic" lengthAdjust="spacing" textLength="84" x="430.25" y="705.1543">DeveloperPort</text><line style="stroke:#A80036;stroke-width:1.5;" x1="320" x2="592" y1="717" y2="717"/><rect fill="none" height="6" style="stroke:#C82930;stroke-width:1.0;" width="6" x="327" y="725"/><text fill="#000000" font-family="sans-serif" font-size="11" lengthAdjust="spacing" textLength="140" x="339" y="731.2104">m_isOpen : bool = false;</text><line style="stroke:#A80036;stroke-width:1.5;" x1="320" x2="592" y1="737.8047" y2="737.8047"/><ellipse cx="330" cy="748.8047" fill="#84BE84" rx="3" ry="3" style="stroke:#038048;stroke-width:1.0;"/><text fill="#000000" font-family="sans-serif" font-size="11" lengthAdjust="spacing" textLength="242" x="339" y="752.0151">DeveloperPort(parent : QObject* = nullptr)</text><ellipse cx="330" cy="761.6094" fill="#84BE84" rx="3" ry="3" style="stroke:#038048;stroke-width:1.0;"/><text fill="#000000" font-family="sans-serif" font-size="11" lengthAdjust="spacing" textLength="224" x="339" y="764.8198">open(portName : const QString&amp;) : void</text><ellipse cx="330" cy="774.4141" fill="#84BE84" rx="3" ry="3" style="stroke:#038048;stroke-width:1.0;"/><text fill="#000000" font-family="sans-serif" font-size="11" lengthAdjust="spacing" textLength="134" x="339" y="777.6245">isOpen() : bool {query}</text><ellipse cx="330" cy="787.2188" fill="#84BE84" rx="3" ry="3" style="stroke:#038048;stroke-width:1.0;"/><text fill="#000000" font-family="sans-serif" font-size="11" lengthAdjust="spacing" textLength="73" x="339" y="790.4292">close() : void</text><ellipse cx="330" cy="800.0234" fill="#84BE84" rx="3" ry="3" style="stroke:#038048;stroke-width:1.0;"/><text fill="#000000" font-family="sans-serif" font-size="11" lengthAdjust="spacing" textLength="111" x="339" y="803.2339">read() : QByteArray</text><ellipse cx="330" cy="812.8281" fill="#84BE84" rx="3" ry="3" style="stroke:#038048;stroke-width:1.0;"/><text fill="#000000" font-family="sans-serif" font-size="11" lengthAdjust="spacing" textLength="216" x="339" y="816.0386">write(data : const QByteArray&amp;) : void</text><rect fill="#F24D5C" height="6" style="stroke:#C82930;stroke-width:1.0;" width="6" x="327" y="822.6328"/><text fill="#000000" font-family="sans-serif" font-size="11" font-style="italic" lengthAdjust="spacing" textLength="248" x="339" y="828.8433">openPort(portName : const QString&amp;) : void</text><rect fill="#F24D5C" height="6" style="stroke:#C82930;stroke-width:1.0;" width="6" x="327" y="835.4375"/><text fill="#000000" font-family="sans-serif" font-size="11" font-style="italic" lengthAdjust="spacing" textLength="139" x="339" y="841.6479">readData() : QByteArray</text><rect fill="#F24D5C" height="6" style="stroke:#C82930;stroke-width:1.0;" width="6" x="327" y="848.2422"/><text fill="#000000" font-family="sans-serif" font-size="11" font-style="italic" lengthAdjust="spacing" textLength="245" x="339" y="854.4526">writeData(data : const QByteArray&amp;) : void</text><!--MD5=[4661baf3e115646df0814ee9016d32f8]
class Diplomamunka.EchoPort--><rect codeLine="100" fill="#FEFECE" filter="url(#fjydbhz5rd33l)" height="188.8516" id="Diplomamunka.EchoPort" style="stroke:#A80036;stroke-width:1.5;" width="322" x="140" y="921"/><ellipse cx="270.75" cy="937" fill="#ADD1B2" rx="11" ry="11" style="stroke:#A80036;stroke-width:1.0;"/><path d="M273.0938,932.6719 C272.1563,932.2344 271.5625,932.0938 270.6875,932.0938 C268.0625,932.0938 266.0625,934.1719 266.0625,936.8906 L266.0625,938.0156 C266.0625,940.5938 268.1719,942.4844 271.0625,942.4844 C272.2813,942.4844 273.4375,942.1875 274.1875,941.6406 C274.7656,941.2344 275.0938,940.7813 275.0938,940.3906 C275.0938,939.9375 274.7031,939.5469 274.2344,939.5469 C274.0156,939.5469 273.8125,939.625 273.625,939.8125 C273.1719,940.2969 273.1719,940.2969 272.9844,940.3906 C272.5625,940.6563 271.875,940.7813 271.1094,940.7813 C269.0625,940.7813 267.7656,939.6875 267.7656,937.9844 L267.7656,936.8906 C267.7656,935.1094 269.0156,933.7969 270.75,933.7969 C271.3281,933.7969 271.9375,933.9531 272.4063,934.2031 C272.8906,934.4844 273.0625,934.7031 273.1563,935.1094 C273.2188,935.5156 273.25,935.6406 273.3906,935.7656 C273.5313,935.9063 273.7656,936.0156 273.9844,936.0156 C274.25,936.0156 274.5156,935.875 274.6875,935.6563 C274.7969,935.5 274.8281,935.3125 274.8281,934.8906 L274.8281,933.4688 C274.8281,933.0313 274.8125,932.9063 274.7188,932.75 C274.5625,932.4844 274.2813,932.3438 273.9844,932.3438 C273.6875,932.3438 273.4844,932.4375 273.2656,932.75 L273.0938,932.6719 Z " fill="#000000"/><text fill="#000000" font-family="sans-serif" font-size="12" lengthAdjust="spacing" textLength="52" x="291.25" y="941.1543">EchoPort</text><line style="stroke:#A80036;stroke-width:1.5;" x1="141" x2="461" y1="953" y2="953"/><rect fill="none" height="6" style="stroke:#C82930;stroke-width:1.0;" width="6" x="148" y="961"/><text fill="#000000" font-family="sans-serif" font-size="11" lengthAdjust="spacing" textLength="171" x="160" y="967.2104">m_inverseMode : bool = false</text><rect fill="none" height="6" style="stroke:#C82930;stroke-width:1.0;" width="6" x="148" y="973.8047"/><text fill="#000000" font-family="sans-serif" font-size="11" lengthAdjust="spacing" textLength="119" x="160" y="980.0151">m_data : quint16 = 0</text><rect fill="none" height="6" style="stroke:#C82930;stroke-width:1.0;" width="6" x="148" y="986.6094"/><text fill="#000000" font-family="sans-serif" font-size="11" lengthAdjust="spacing" text-decoration="underline" textLength="292" x="160" y="992.8198">«constant» NormalEcho : char* = "ECHO (NORMAL)"</text><rect fill="none" height="6" style="stroke:#C82930;stroke-width:1.0;" width="6" x="148" y="999.4141"/><text fill="#000000" font-family="sans-serif" font-size="11" lengthAdjust="spacing" text-decoration="underline" textLength="296" x="160" y="1005.6245">«constant» InverseEcho : char* = "ECHO (INVERSE)"</text><line style="stroke:#A80036;stroke-width:1.5;" x1="141" x2="461" y1="1012.2188" y2="1012.2188"/><ellipse cx="151" cy="1023.2188" fill="#84BE84" rx="3" ry="3" style="stroke:#038048;stroke-width:1.0;"/><text fill="#000000" font-family="sans-serif" font-size="11" lengthAdjust="spacing" textLength="208" x="160" y="1026.4292">EchoPort(parent : QObject* = nullptr)</text><ellipse cx="151" cy="1036.0234" fill="#84BE84" rx="3" ry="3" style="stroke:#038048;stroke-width:1.0;"/><text fill="#000000" font-family="sans-serif" font-size="11" lengthAdjust="spacing" textLength="211" x="160" y="1039.2339">getPortNames() : QStringList {query}</text><ellipse cx="151" cy="1048.8281" fill="#84BE84" rx="3" ry="3" style="stroke:#038048;stroke-width:1.0;"/><text fill="#000000" font-family="sans-serif" font-size="11" lengthAdjust="spacing" text-decoration="underline" textLength="103" x="160" y="1052.0386">create() : IOPortPtr</text><rect fill="#F24D5C" height="6" style="stroke:#C82930;stroke-width:1.0;" width="6" x="148" y="1058.6328"/><text fill="#000000" font-family="sans-serif" font-size="11" lengthAdjust="spacing" textLength="245" x="160" y="1064.8433">openPort(portName : const QString&amp;) : void</text><rect fill="#F24D5C" height="6" style="stroke:#C82930;stroke-width:1.0;" width="6" x="148" y="1071.4375"/><text fill="#000000" font-family="sans-serif" font-size="11" lengthAdjust="spacing" textLength="138" x="160" y="1077.6479">readData() : QByteArray</text><rect fill="#F24D5C" height="6" style="stroke:#C82930;stroke-width:1.0;" width="6" x="148" y="1084.2422"/><text fill="#000000" font-family="sans-serif" font-size="11" lengthAdjust="spacing" textLength="243" x="160" y="1090.4526">writeData(data : const QByteArray&amp;) : void</text><rect fill="#F24D5C" height="6" style="stroke:#C82930;stroke-width:1.0;" width="6" x="148" y="1097.0469"/><text fill="#000000" font-family="sans-serif" font-size="11" lengthAdjust="spacing" textLength="244" x="160" y="1103.2573">storeData(data : const QByteArray&amp;) : void</text><!--MD5=[1627a355a8e5d18387eb79a9479b6225]
class Diplomamunka.VirtualPort--><rect codeLine="115" fill="#FEFECE" filter="url(#fjydbhz5rd33l)" height="150.4375" id="Diplomamunka.VirtualPort" style="stroke:#A80036;stroke-width:1.5;" width="271" x="497.5" y="940.5"/><ellipse cx="598.75" cy="956.5" fill="#ADD1B2" rx="11" ry="11" style="stroke:#A80036;stroke-width:1.0;"/><path d="M601.0938,952.1719 C600.1563,951.7344 599.5625,951.5938 598.6875,951.5938 C596.0625,951.5938 594.0625,953.6719 594.0625,956.3906 L594.0625,957.5156 C594.0625,960.0938 596.1719,961.9844 599.0625,961.9844 C600.2813,961.9844 601.4375,961.6875 602.1875,961.1406 C602.7656,960.7344 603.0938,960.2813 603.0938,959.8906 C603.0938,959.4375 602.7031,959.0469 602.2344,959.0469 C602.0156,959.0469 601.8125,959.125 601.625,959.3125 C601.1719,959.7969 601.1719,959.7969 600.9844,959.8906 C600.5625,960.1563 599.875,960.2813 599.1094,960.2813 C597.0625,960.2813 595.7656,959.1875 595.7656,957.4844 L595.7656,956.3906 C595.7656,954.6094 597.0156,953.2969 598.75,953.2969 C599.3281,953.2969 599.9375,953.4531 600.4063,953.7031 C600.8906,953.9844 601.0625,954.2031 601.1563,954.6094 C601.2188,955.0156 601.25,955.1406 601.3906,955.2656 C601.5313,955.4063 601.7656,955.5156 601.9844,955.5156 C602.25,955.5156 602.5156,955.375 602.6875,955.1563 C602.7969,955 602.8281,954.8125 602.8281,954.3906 L602.8281,952.9688 C602.8281,952.5313 602.8125,952.4063 602.7188,952.25 C602.5625,951.9844 602.2813,951.8438 601.9844,951.8438 C601.6875,951.8438 601.4844,951.9375 601.2656,952.25 L601.0938,952.1719 Z " fill="#000000"/><text fill="#000000" font-family="sans-serif" font-size="12" lengthAdjust="spacing" textLength="60" x="619.25" y="960.6543">VirtualPort</text><line style="stroke:#A80036;stroke-width:1.5;" x1="498.5" x2="767.5" y1="972.5" y2="972.5"/><ellipse cx="508.5" cy="983.5" rx="3" ry="3" style="stroke:#038048;stroke-width:1.0;fill:none;"/><text fill="#000000" font-family="sans-serif" font-size="11" lengthAdjust="spacing" textLength="168" x="517.5" y="986.7104">«property» data : quint16 = 0</text><rect fill="none" height="6" style="stroke:#C82930;stroke-width:1.0;" width="6" x="505.5" y="993.3047"/><text fill="#000000" font-family="sans-serif" font-size="11" lengthAdjust="spacing" text-decoration="underline" textLength="205" x="517.5" y="999.5151">«constant» Port : char* = "VIRTUAL";</text><line style="stroke:#A80036;stroke-width:1.5;" x1="498.5" x2="767.5" y1="1006.1094" y2="1006.1094"/><ellipse cx="508.5" cy="1017.1094" fill="#84BE84" rx="3" ry="3" style="stroke:#038048;stroke-width:1.0;"/><text fill="#000000" font-family="sans-serif" font-size="11" lengthAdjust="spacing" textLength="217" x="517.5" y="1020.3198">VirtualPort(parent : QObject* = nullptr)</text><ellipse cx="508.5" cy="1029.9141" fill="#84BE84" rx="3" ry="3" style="stroke:#038048;stroke-width:1.0;"/><text fill="#000000" font-family="sans-serif" font-size="11" lengthAdjust="spacing" textLength="211" x="517.5" y="1033.1245">getPortNames() : QStringList {query}</text><ellipse cx="508.5" cy="1042.7188" fill="#84BE84" rx="3" ry="3" style="stroke:#038048;stroke-width:1.0;"/><text fill="#000000" font-family="sans-serif" font-size="11" lengthAdjust="spacing" text-decoration="underline" textLength="103" x="517.5" y="1045.9292">create() : IOPortPtr</text><rect fill="#F24D5C" height="6" style="stroke:#C82930;stroke-width:1.0;" width="6" x="505.5" y="1052.5234"/><text fill="#000000" font-family="sans-serif" font-size="11" lengthAdjust="spacing" textLength="245" x="517.5" y="1058.7339">openPort(portName : const QString&amp;) : void</text><rect fill="#F24D5C" height="6" style="stroke:#C82930;stroke-width:1.0;" width="6" x="505.5" y="1065.3281"/><text fill="#000000" font-family="sans-serif" font-size="11" lengthAdjust="spacing" textLength="138" x="517.5" y="1071.5386">readData() : QByteArray</text><rect fill="#F24D5C" height="6" style="stroke:#C82930;stroke-width:1.0;" width="6" x="505.5" y="1078.1328"/><text fill="#000000" font-family="sans-serif" font-size="11" lengthAdjust="spacing" textLength="243" x="517.5" y="1084.3433">writeData(data : const QByteArray&amp;) : void</text><!--MD5=[f82bcf41675a6354b06c6f3c389010ee]
link Diplomamunka.BorisControllerlol663995 to Diplomamunka.BorisController--><path d="M359,51.36 C359,61.28 359,83.97 359,110.96 " fill="none" id="Diplomamunka.BorisControllerlol663995-Diplomamunka.BorisController" style="stroke:#A80036;stroke-width:1.0;"/><!--MD5=[5d82db29a7d22237f995f79cd32d5fbd]
link Diplomamunka.Timerlol663999 to Diplomamunka.Timer--><path d="M622,555.064 C622,576.039 622,655 622,655 C622,655 289.75,655 289.75,655 C289.75,655 289.75,631.153 289.75,606.189 " fill="none" id="Diplomamunka.Timerlol663999-Diplomamunka.Timer" style="stroke:#A80036;stroke-width:1.0;"/><!--MD5=[fa7f69592af687f52b43fe682e4db181]
link Diplomamunka.BorisController to Diplomamunka.Timer--><path codeLine="41" d="M212.25,427.324 C212.25,427.324 212.25,480.787 212.25,480.787 " fill="none" id="Diplomamunka.BorisController-Diplomamunka.Timer" style="stroke:#A80036;stroke-width:1.0;"/><polygon fill="#A80036" points="212.25,493.787,216.25,484.787,212.25,488.787,208.25,484.787,212.25,493.787" style="stroke:#A80036;stroke-width:1.0;"/><line style="stroke:#A80036;stroke-width:1.0;" x1="212.25" x2="212.25" y1="488.787" y2="480.787"/><polygon fill="#FFFFFF" points="212.25,415.324,208.25,421.324,212.25,427.324,216.25,421.324,212.25,415.324" style="stroke:#A80036;stroke-width:1.0;"/><!--MD5=[2820b0ed3900865c351264383a9eda57]
link Diplomamunka.IOPort to Diplomamunka.IOPortlol664004--><path d="M581.786,510 C626.973,510 667,510 667,510 C667,510 667,533.928 667,544.771 " fill="none" id="Diplomamunka.IOPort-Diplomamunka.IOPortlol664004" style="stroke:#A80036;stroke-width:1.0;"/><!--MD5=[e924bf8dcf09b94362090b6cefc50d60]
link Diplomamunka.BorisController to Diplomamunka.IOPort--><path codeLine="56" d="M456,427.324 C456,427.324 456,461.85 456,461.85 " fill="none" id="Diplomamunka.BorisController-Diplomamunka.IOPort" style="stroke:#A80036;stroke-width:1.0;"/><polygon fill="#A80036" points="456,474.85,460,465.85,456,469.85,452,465.85,456,474.85" style="stroke:#A80036;stroke-width:1.0;"/><line style="stroke:#A80036;stroke-width:1.0;" x1="456" x2="456" y1="469.85" y2="461.85"/><polygon fill="#FFFFFF" points="456,415.324,452,421.324,456,427.324,460,421.324,456,415.324" style="stroke:#A80036;stroke-width:1.0;"/><!--MD5=[21d0057f9ccdced66a58b37b9732cd2f]
reverse link Diplomamunka.Timer to Diplomamunka.CyclicTimer--><path d="M180.25,626.272 C180.25,626.272 180.25,684.624 180.25,684.624 " fill="none" id="Diplomamunka.Timer-backto-Diplomamunka.CyclicTimer" style="stroke:#A80036;stroke-width:1.0;"/><polygon fill="none" points="173.25,626.272,180.25,606.272,187.25,626.272,173.25,626.272" style="stroke:#A80036;stroke-width:1.0;"/><!--MD5=[6b2b1b659d0e3790af63efab02490cca]
reverse link Diplomamunka.IOPort to Diplomamunka.SerialPort--><path d="M601.54,590 C601.54,590 645,590 645,590 C645,590 645,638.103 645,684.984 " fill="none" id="Diplomamunka.IOPort-backto-Diplomamunka.SerialPort" style="stroke:#A80036;stroke-width:1.0;"/><polygon fill="none" points="601.54,597,581.54,590,601.54,583,601.54,597" style="stroke:#A80036;stroke-width:1.0;"/><!--MD5=[6b0b8fc808942845304f453529b203f7]
reverse link Diplomamunka.IOPort to Diplomamunka.DeveloperPort--><path d="M456,645.187 C456,645.187 456,684.649 456,684.649 " fill="none" id="Diplomamunka.IOPort-backto-Diplomamunka.DeveloperPort" style="stroke:#A80036;stroke-width:1.0;"/><polygon fill="none" points="449,645.187,456,625.187,463,645.187,449,645.187" style="stroke:#A80036;stroke-width:1.0;"/><!--MD5=[8e5083705f8d79373445c0f413d074a2]
reverse link Diplomamunka.DeveloperPort to Diplomamunka.EchoPort--><path d="M390.5,881.234 C390.5,881.234 390.5,920.79 390.5,920.79 " fill="none" id="Diplomamunka.DeveloperPort-backto-Diplomamunka.EchoPort" style="stroke:#A80036;stroke-width:1.0;"/><polygon fill="none" points="383.5,881.234,390.5,861.234,397.5,881.234,383.5,881.234" style="stroke:#A80036;stroke-width:1.0;"/><!--MD5=[300b0e7c97592257a2ffb456aecbfb94]
reverse link Diplomamunka.DeveloperPort to Diplomamunka.VirtualPort--><path d="M545.25,881.234 C545.25,881.234 545.25,940.123 545.25,940.123 " fill="none" id="Diplomamunka.DeveloperPort-backto-Diplomamunka.VirtualPort" style="stroke:#A80036;stroke-width:1.0;"/><polygon fill="none" points="538.25,881.234,545.25,861.234,552.25,881.234,538.25,881.234" style="stroke:#A80036;stroke-width:1.0;"/><!--MD5=[82e0aba074b817f20c613490515974ce]
@startuml
skinparam linetype ortho

namespace Diplomamunka {

class BorisController
{
    +<<property>> interval : int = 10
    +<<property>> portName : QString = ""
    +<<property>> input : quint16 = 0 {query}
    +<<property>> output : quint16 = 0
    +BorisController(parent : QObject* = nullptr)
    +BorisController(ioPort : IOPortPtr, timer : TimerPtr, parent : QObject* = nullptr)
    +~BorisController()
    +start() : bool
    +isActive() : bool {query}
    +stop() : void
    +getPortNames() : QStringList {query}
    +<<event>> errorOccurred(message : QString) : void
    -readInput() : void
    -writeOutput() : void
    -stopIfActive() : void
    -m_ioPort : IOPortPtr
    -m_timer : TimerPtr
    -m_isActive : bool = false
    -{static}<<constant>> ReadCommand : char = '\xb9'
    -{static}<<constant>> WriteCommand : char = '\xba'
}

QObject ()- - BorisController

abstract class Timer
{
    +Timer(parent : QObject* = nullptr)
    +{abstract}start(interval : int) : void
    +{abstract}isRunning() : bool {query}
    +{abstract}stop() : void
    +<<event>> elapsed() : void
}

QObject ()- Timer
BorisController o- -> Timer

abstract class IOPort
{
    +IOPort(parent : QObject* = nullptr)
    +{abstract}getPortNames() : QStringList {query}
    +{abstract}open(portName : const QString&) : void
    +{abstract}isOpen() : bool {query}
    +{abstract}close() : void
    +{abstract}read() : QByteArray
    +{abstract}write(data : const QByteArray&) : void
    +<<event>> dataReceived() : void
}

IOPort -() QObject
BorisController o- -> IOPort

class CyclicTimer extends Timer
{
    +CyclicTimer(parent : QObject* = nullptr)
    +start(interval : int) : void
    +isRunning() : bool {query}
    +stop() : void
    +{static}create() : TimerPtr
    -verifyCanBeStarted(interval : int) : void
    -verifyStarted() : void
    -verifyCanBeStopped() : void
    -m_timerImpl : QTimer
    -{static}<<constant>> InvalidTimerId : int = -1
}

class SerialPort extends IOPort
{
    +SerialPort(parent : QObject* = nullptr)
    +getPortNames() : QStringList {query}
    +open(portName : const QString&) : void
    +isOpen() : bool {query}
    +close() : void
    +read() : QByteArray
    +write(data : const QByteArray&) : void
    +{static}create() : IOPortPtr
    -verifyNoErrors() : void
    -m_portImpl : QSerialPort
}

abstract class DeveloperPort extends IOPort
{
    +DeveloperPort(parent : QObject* = nullptr)
    +open(portName : const QString&) : void
    +isOpen() : bool {query}
    +close() : void
    +read() : QByteArray
    +write(data : const QByteArray&) : void
    -{abstract}openPort(portName : const QString&) : void
    -{abstract}readData() : QByteArray
    -{abstract}writeData(data : const QByteArray&) : void
    -m_isOpen : bool = false;
}

class EchoPort extends DeveloperPort
{
    +EchoPort(parent : QObject* = nullptr)
    +getPortNames() : QStringList {query}
    +{static}create() : IOPortPtr
    -openPort(portName : const QString&) : void
    -readData() : QByteArray
    -writeData(data : const QByteArray&) : void
    -storeData(data : const QByteArray&) : void
    -m_inverseMode : bool = false
    -m_data : quint16 = 0
    -{static}{field}<<constant>> NormalEcho : char* = "ECHO (NORMAL)"
    -{static}{field}<<constant>> InverseEcho : char* = "ECHO (INVERSE)"
}

class VirtualPort extends DeveloperPort
{
    +<<property>> data : quint16 = 0
    +VirtualPort(parent : QObject* = nullptr)
    +getPortNames() : QStringList {query}
    +{static}create() : IOPortPtr
    -openPort(portName : const QString&) : void
    -readData() : QByteArray
    -writeData(data : const QByteArray&) : void
    -{static}<<constant>> Port : char* = "VIRTUAL";
}

}
@enduml

PlantUML version 1.2021.3beta7(Unknown compile time)
(GPL source distribution)
Java Runtime: Java(TM) SE Runtime Environment
JVM: Java HotSpot(TM) 64-Bit Server VM
Default Encoding: UTF-8
Language: en
Country: US
--></g></svg>