<?xml version="1.0" encoding="UTF-8" standalone="no"?><svg xmlns="http://www.w3.org/2000/svg" xmlns:xlink="http://www.w3.org/1999/xlink" contentScriptType="application/ecmascript" contentStyleType="text/css" height="589px" preserveAspectRatio="none" style="width:576px;height:589px;background:#FFFFFF;" version="1.1" viewBox="0 0 576 589" width="576px" zoomAndPan="magnify"><defs><filter height="300%" id="ft4m40ogtxa6g" width="300%" x="-1" y="-1"><feGaussianBlur result="blurOut" stdDeviation="2.0"/><feColorMatrix in="blurOut" result="blurOut2" type="matrix" values="0 0 0 0 0 0 0 0 0 0 0 0 0 0 0 0 0 0 .4 0"/><feOffset dx="4.0" dy="4.0" in="blurOut2" result="blurOut3"/><feBlend in="SourceGraphic" in2="blurOut3" mode="normal"/></filter></defs><g><!--MD5=[34bfa397262be8e71d7297b4db6ec35a]
cluster Diplomamunka--><polygon fill="#FFFFFF" filter="url(#ft4m40ogtxa6g)" points="16,6,142,6,149,28.2969,559,28.2969,559,582,16,582,16,6" style="stroke:#000000;stroke-width:1.5;"/><line style="stroke:#000000;stroke-width:1.5;" x1="16" x2="149" y1="28.2969" y2="28.2969"/><text fill="#000000" font-family="sans-serif" font-size="14" font-weight="bold" lengthAdjust="spacing" textLength="120" x="20" y="20.9951">Diplomamunka</text><!--MD5=[7e225692ed8330f5a1767633211b5c5d]
cluster BorisAccess--><rect fill="#FFFFFF" filter="url(#ft4m40ogtxa6g)" height="369" style="stroke:#000000;stroke-width:1.5;" width="511" x="32" y="197"/><rect fill="#FFFFFF" height="10" style="stroke:#000000;stroke-width:1.5;" width="15" x="523" y="202"/><rect fill="#FFFFFF" height="2" style="stroke:#000000;stroke-width:1.5;" width="4" x="521" y="204"/><rect fill="#FFFFFF" height="2" style="stroke:#000000;stroke-width:1.5;" width="4" x="521" y="208"/><text fill="#000000" font-family="sans-serif" font-size="14" font-weight="bold" lengthAdjust="spacing" textLength="110" x="232.5" y="222.9951">BORIS Access</text><!--MD5=[4a1009eec45b53661bf08a4ef7ea7fca]
entity ExposedAttributes--><ellipse cx="188" cy="86" fill="#FEFECE" filter="url(#ft4m40ogtxa6g)" rx="8" ry="8" style="stroke:#A80036;stroke-width:1.5;"/><text fill="#000000" font-family="sans-serif" font-size="14" lengthAdjust="spacing" textLength="61" x="150.5" y="115.9951">Exposed</text><text fill="#000000" font-family="sans-serif" font-size="14" lengthAdjust="spacing" textLength="75" x="150.5" y="132.292">Attributes</text><text fill="#000000" font-family="sans-serif" font-size="14" lengthAdjust="spacing" textLength="31" x="172.5" y="175.6982">QML</text><rect fill="#A80036" height="12" style="stroke:#FEFECE;stroke-width:1.5;" width="12" x="182" y="191"/><!--MD5=[f35ec8c70f6c30212ee7414466076c9c]
entity BorisController--><rect fill="#FEFECE" filter="url(#ft4m40ogtxa6g)" height="62.5938" style="stroke:#A80036;stroke-width:1.5;" width="113" x="209.5" y="263"/><rect fill="#FEFECE" height="10" style="stroke:#A80036;stroke-width:1.5;" width="15" x="302.5" y="268"/><rect fill="#FEFECE" height="2" style="stroke:#A80036;stroke-width:1.5;" width="4" x="300.5" y="270"/><rect fill="#FEFECE" height="2" style="stroke:#A80036;stroke-width:1.5;" width="4" x="300.5" y="274"/><text fill="#000000" font-family="sans-serif" font-size="14" lengthAdjust="spacing" textLength="44" x="224.5" y="295.9951">BORIS</text><text fill="#000000" font-family="sans-serif" font-size="14" lengthAdjust="spacing" textLength="73" x="224.5" y="312.292">Controller</text><!--MD5=[1bfc463d4b7b2bceea9aef8616727621]
entity Timer--><ellipse cx="251" cy="415" fill="#FEFECE" filter="url(#ft4m40ogtxa6g)" rx="8" ry="8" style="stroke:#A80036;stroke-width:1.5;"/><text fill="#000000" font-family="sans-serif" font-size="14" lengthAdjust="spacing" textLength="42" x="230" y="444.9951">Timer</text><!--MD5=[fffef698e29abe63a2f162a677d6fc67]
entity IOPort--><ellipse cx="367" cy="294.5" fill="#FEFECE" filter="url(#ft4m40ogtxa6g)" rx="8" ry="8" style="stroke:#A80036;stroke-width:1.5;"/><text fill="#000000" font-family="sans-serif" font-size="14" lengthAdjust="spacing" textLength="55" x="339.5" y="324.4951">I/O Port</text><!--MD5=[6795afb97634de84e9ad3e2973253b2e]
entity CyclicTimer--><rect fill="#FEFECE" filter="url(#ft4m40ogtxa6g)" height="46.2969" style="stroke:#A80036;stroke-width:1.5;" width="128" x="172" y="504"/><rect fill="#FEFECE" height="10" style="stroke:#A80036;stroke-width:1.5;" width="15" x="280" y="509"/><rect fill="#FEFECE" height="2" style="stroke:#A80036;stroke-width:1.5;" width="4" x="278" y="511"/><rect fill="#FEFECE" height="2" style="stroke:#A80036;stroke-width:1.5;" width="4" x="278" y="515"/><text fill="#000000" font-family="sans-serif" font-size="14" lengthAdjust="spacing" textLength="88" x="187" y="536.9951">Cyclic Timer</text><!--MD5=[704124cfd116798fe217e58942a551cd]
entity SerialPort--><rect fill="#FEFECE" filter="url(#ft4m40ogtxa6g)" height="46.2969" style="stroke:#A80036;stroke-width:1.5;" width="115" x="411.5" y="271.5"/><rect fill="#FEFECE" height="10" style="stroke:#A80036;stroke-width:1.5;" width="15" x="506.5" y="276.5"/><rect fill="#FEFECE" height="2" style="stroke:#A80036;stroke-width:1.5;" width="4" x="504.5" y="278.5"/><rect fill="#FEFECE" height="2" style="stroke:#A80036;stroke-width:1.5;" width="4" x="504.5" y="282.5"/><text fill="#000000" font-family="sans-serif" font-size="14" lengthAdjust="spacing" textLength="75" x="426.5" y="304.4951">Serial Port</text><!--MD5=[2a3b5d4e0317169243fb02718911f8e0]
entity EchoPort--><rect fill="#FEFECE" filter="url(#ft4m40ogtxa6g)" height="46.2969" style="stroke:#A80036;stroke-width:1.5;" width="110" x="403" y="392"/><rect fill="#FEFECE" height="10" style="stroke:#A80036;stroke-width:1.5;" width="15" x="493" y="397"/><rect fill="#FEFECE" height="2" style="stroke:#A80036;stroke-width:1.5;" width="4" x="491" y="399"/><rect fill="#FEFECE" height="2" style="stroke:#A80036;stroke-width:1.5;" width="4" x="491" y="403"/><text fill="#000000" font-family="sans-serif" font-size="14" lengthAdjust="spacing" textLength="70" x="418" y="424.9951">Echo Port</text><!--MD5=[6a9a7517f51385bd8b06ab78c0e0e1d9]
entity VirtualPort--><rect fill="#FEFECE" filter="url(#ft4m40ogtxa6g)" height="46.2969" style="stroke:#A80036;stroke-width:1.5;" width="122" x="335" y="504"/><rect fill="#FEFECE" height="10" style="stroke:#A80036;stroke-width:1.5;" width="15" x="437" y="509"/><rect fill="#FEFECE" height="2" style="stroke:#A80036;stroke-width:1.5;" width="4" x="435" y="511"/><rect fill="#FEFECE" height="2" style="stroke:#A80036;stroke-width:1.5;" width="4" x="435" y="515"/><text fill="#000000" font-family="sans-serif" font-size="14" lengthAdjust="spacing" textLength="82" x="350" y="536.9951">Virtual Port</text><!--MD5=[c4a54db0016507a0444b4a8849fe3dc8]
link QML to BorisController--><path d="M192.194,203.134 C201.244,214.215 223.213,241.113 240.844,262.7 " fill="none" id="QML-BorisController" style="stroke:#A80036;stroke-width:1.0;"/><!--MD5=[e748a012770c40df372928c0ec70cb2a]
link BorisController to Timer--><path d="M262.137,326.017 C259.348,348.051 255.673,377.08 253.323,395.647 " fill="none" id="BorisController-to-Timer" style="stroke:#A80036;stroke-width:1.0;"/><path d="M260.8278,403.7081 A9,9 0 0 0 244.0472 401.5843" style="stroke:#A80036;stroke-width:1.5;fill:none;"/><!--MD5=[6626fb5eaabde6d1a82d92dc6891cd0f]
link BorisController to IOPort--><path d="M322.812,294.5 C331.075,294.5 339.338,294.5 347.601,294.5 " fill="none" id="BorisController-to-IOPort" style="stroke:#A80036;stroke-width:1.0;"/><path d="M354.6008,286.0428 A9,9 0 0 0 354.6008 302.9572" style="stroke:#A80036;stroke-width:1.5;fill:none;"/><!--MD5=[281fe92f14b67113b65c7b3967153776]
link Timer to CyclicTimer--><path d="M249.873,424.268 C247.597,440.956 242.387,479.164 239.039,503.7129 " fill="none" id="Timer-CyclicTimer" style="stroke:#A80036;stroke-width:1.0;"/><!--MD5=[b3a4a92fd24bff71031b2d8de759a879]
link IOPort to SerialPort--><path d="M376.164,294.5 C387.889,294.5 399.615,294.5 411.34,294.5 " fill="none" id="IOPort-SerialPort" style="stroke:#A80036;stroke-width:1.0;"/><!--MD5=[2a9a166cc776ed284760433034335ea6]
link IOPort to EchoPort--><path d="M373.255,303.645 C387.068,321.633 420.575,365.265 441.077,391.963 " fill="none" id="IOPort-EchoPort" style="stroke:#A80036;stroke-width:1.0;"/><!--MD5=[52ef406287f405f3153929c1d13cbe6b]
link IOPort to VirtualPort--><path d="M368.032,303.704 C372.078,335.863 386.942,454.006 393.197,503.7204 " fill="none" id="IOPort-VirtualPort" style="stroke:#A80036;stroke-width:1.0;"/><!--MD5=[3f19b368f04621e023d50c8735a4d75f]
link ExposedAttributes to QML--><path d="M188,95.193 C188,116.581 188,173.643 188,190.952 " fill="none" id="ExposedAttributes-QML" style="stroke:#A80036;stroke-width:1.0;"/><!--MD5=[94590ff0e25e31092fe1494d7657887d]
@startuml
package Diplomamunka {
    interface "Exposed\nAttributes" as ExposedAttributes

    component "BORIS Access" as BorisAccess {
        port QML
        component "BORIS\nController" as BorisController
        interface Timer
        interface "I/O Port" as IOPort

        BorisController -up- QML
        BorisController - -( Timer
        BorisController -right-( IOPort

        component "Cyclic Timer" as CyclicTimer

        Timer - - CyclicTimer

        component "Serial Port" as SerialPort
        component "Echo Port" as EchoPort
        component "Virtual Port" as VirtualPort

        IOPort - SerialPort
        IOPort - - EchoPort
        IOPort - - - VirtualPort
    }

    ExposedAttributes - - QML
}
@enduml

PlantUML version 1.2021.7(Sun May 23 12:40:07 UTC 2021)
(GPL source distribution)
Java Runtime: Java(TM) SE Runtime Environment
JVM: Java HotSpot(TM) 64-Bit Server VM
Default Encoding: UTF-8
Language: en
Country: US
--></g></svg>